<svg width="210" height="31" viewBox="0 0 210 31" fill="none" xmlns="http://www.w3.org/2000/svg">
<g filter="url(#filter0_d_57002_523)">
<mask id="path-1-outside-1_57002_523" maskUnits="userSpaceOnUse" x="4" y="0.599609" width="202" height="22" fill="black">
<rect fill="white" x="4" y="0.599609" width="202" height="22"/>
<path d="M12.48 15.5476H12.876V1.59961H15.78V16.9996H10.104L8.3 3.05161H7.904V16.9996H5V1.59961H10.676L12.48 15.5476Z"/>
<path d="M19.0647 1.59961H28.9207V4.37161H21.9687V7.89161H28.7887V10.6636H21.9687V16.9996H19.0647V1.59961Z"/>
<path d="M31.7874 1.59961H42.8754V4.37161H38.7834V16.9996H35.8794V4.37161H31.7874V1.59961Z"/>
<path d="M58.0248 1.59961H63.1288L64.0088 13.1716V15.4156H64.5368V13.1716L65.4168 1.59961H70.5208V16.9996H67.8808V6.70361L68.1448 3.18361H67.6168L66.4728 16.9996H62.1168L60.9288 3.18361H60.4008L60.6648 6.70361V16.9996H58.0248V1.59961Z"/>
<path d="M79.7895 15.4156C79.4962 16.1049 79.0855 16.5963 78.5575 16.8896C78.0295 17.1683 77.4135 17.3076 76.7095 17.3076C76.0495 17.3076 75.4262 17.1829 74.8395 16.9336C74.2675 16.6843 73.7615 16.3176 73.3215 15.8336C72.8815 15.3496 72.5295 14.7629 72.2655 14.0736C72.0162 13.3843 71.8915 12.5996 71.8915 11.7196V11.3676C71.8915 10.5023 72.0162 9.72494 72.2655 9.03561C72.5148 8.34628 72.8522 7.75961 73.2775 7.27561C73.7028 6.79161 74.1942 6.42494 74.7515 6.17561C75.3235 5.91161 75.9322 5.77961 76.5775 5.77961C77.3548 5.77961 77.9782 5.91161 78.4475 6.17561C78.9315 6.43961 79.3128 6.85028 79.5915 7.40761H79.9875V6.08761H82.7595V13.6996C82.7595 14.1396 82.9575 14.3596 83.3535 14.3596H83.7715V16.9996H81.8795C81.3808 16.9996 80.9702 16.8529 80.6475 16.5596C80.3395 16.2663 80.1855 15.8849 80.1855 15.4156H79.7895ZM77.3255 14.6676C78.1322 14.6676 78.7775 14.4036 79.2615 13.8756C79.7455 13.3329 79.9875 12.5996 79.9875 11.6756V11.4116C79.9875 10.4876 79.7455 9.76161 79.2615 9.23361C78.7775 8.69094 78.1322 8.41961 77.3255 8.41961C76.5188 8.41961 75.8735 8.69094 75.3895 9.23361C74.9055 9.76161 74.6635 10.4876 74.6635 11.4116V11.6756C74.6635 12.5996 74.9055 13.3329 75.3895 13.8756C75.8735 14.4036 76.5188 14.6676 77.3255 14.6676Z"/>
<path d="M85.6702 6.08761H90.2902V7.67161H90.6862C90.8916 7.07028 91.2362 6.60828 91.7202 6.28561C92.2189 5.94828 92.8129 5.77961 93.5022 5.77961C94.5876 5.77961 95.4602 6.12428 96.1202 6.81361C96.7802 7.48828 97.1102 8.52228 97.1102 9.91561V10.3996L94.2502 10.6636V10.3556C94.2502 9.75428 94.0962 9.27761 93.7882 8.92561C93.4802 8.55894 93.0182 8.37561 92.4022 8.37561C91.7862 8.37561 91.3022 8.58828 90.9502 9.01361C90.5982 9.43894 90.4222 10.0476 90.4222 10.8396V14.3596H92.9302V16.9996H85.4062V14.3596H87.6502V8.72761H85.6702V6.08761Z"/>
<path d="M103.321 10.0916H103.849L106.753 6.08761H109.789V6.21961L106.269 11.2136V11.6096L110.141 16.8676V16.9996H106.973L103.849 12.7316H103.321V16.9996H100.549V1.59961H103.321V10.0916Z"/>
<path d="M115.582 12.4456C115.596 12.7683 115.67 13.0689 115.802 13.3476C115.948 13.6116 116.139 13.8463 116.374 14.0516C116.623 14.2423 116.902 14.3963 117.21 14.5136C117.532 14.6163 117.87 14.6676 118.222 14.6676C118.911 14.6676 119.439 14.5503 119.806 14.3156C120.172 14.0663 120.436 13.7729 120.598 13.4356L122.974 14.7556C122.842 15.0343 122.658 15.3276 122.424 15.6356C122.189 15.9289 121.881 16.2003 121.5 16.4496C121.133 16.6989 120.678 16.9043 120.136 17.0656C119.608 17.2269 118.984 17.3076 118.266 17.3076C117.444 17.3076 116.696 17.1756 116.022 16.9116C115.347 16.6476 114.76 16.2663 114.262 15.7676C113.778 15.2689 113.396 14.6603 113.118 13.9416C112.854 13.2229 112.722 12.4089 112.722 11.4996V11.3676C112.722 10.5316 112.861 9.76894 113.14 9.07961C113.433 8.39028 113.829 7.80361 114.328 7.31961C114.826 6.83561 115.406 6.46161 116.066 6.19761C116.74 5.91894 117.459 5.77961 118.222 5.77961C119.16 5.77961 119.967 5.94828 120.642 6.28561C121.316 6.60828 121.874 7.02628 122.314 7.53961C122.754 8.03828 123.076 8.59561 123.282 9.21161C123.487 9.81294 123.59 10.3996 123.59 10.9716V12.4456H115.582ZM118.2 8.28761C117.496 8.28761 116.924 8.47094 116.484 8.83761C116.044 9.18961 115.758 9.60028 115.626 10.0696H120.774C120.686 9.55628 120.407 9.13094 119.938 8.79361C119.483 8.45628 118.904 8.28761 118.2 8.28761Z"/>
<path d="M126.302 6.08761H129.536V1.59961H132.308V6.08761H136.246V8.72761H132.308V13.6996C132.308 14.1396 132.506 14.3596 132.902 14.3596H135.85V16.9996H131.23C130.732 16.9996 130.321 16.8383 129.998 16.5156C129.69 16.1929 129.536 15.7823 129.536 15.2836V8.72761H126.302V6.08761Z"/>
<path d="M142.281 21.3996H139.509V6.08761H142.281V7.67161H142.677C142.97 7.07028 143.396 6.60828 143.953 6.28561C144.51 5.94828 145.222 5.77961 146.087 5.77961C146.732 5.77961 147.341 5.90428 147.913 6.15361C148.5 6.40294 149.006 6.76961 149.431 7.25361C149.871 7.72294 150.216 8.30228 150.465 8.99161C150.729 9.68094 150.861 10.4656 150.861 11.3456V11.7416C150.861 12.6363 150.736 13.4283 150.487 14.1176C150.238 14.8069 149.9 15.3936 149.475 15.8776C149.05 16.3469 148.544 16.7063 147.957 16.9556C147.385 17.1903 146.762 17.3076 146.087 17.3076C145.588 17.3076 145.156 17.2563 144.789 17.1536C144.422 17.0509 144.1 16.9116 143.821 16.7356C143.557 16.5596 143.33 16.3616 143.139 16.1416C142.963 15.9069 142.809 15.6649 142.677 15.4156H142.281V21.3996ZM145.185 14.6676C146.05 14.6676 146.747 14.4036 147.275 13.8756C147.818 13.3329 148.089 12.5996 148.089 11.6756V11.4116C148.089 10.4876 147.818 9.76161 147.275 9.23361C146.747 8.69094 146.05 8.41961 145.185 8.41961C144.32 8.41961 143.616 8.69828 143.073 9.25561C142.545 9.79828 142.281 10.5169 142.281 11.4116V11.6756C142.281 12.5703 142.545 13.2963 143.073 13.8536C143.616 14.3963 144.32 14.6676 145.185 14.6676Z"/>
<path d="M153.486 14.3596H157.314V4.23961H153.618V1.59961H160.086V14.3596H163.65V16.9996H153.486V14.3596Z"/>
<path d="M174.084 15.4156C173.791 16.1049 173.38 16.5963 172.852 16.8896C172.324 17.1683 171.708 17.3076 171.004 17.3076C170.344 17.3076 169.721 17.1829 169.134 16.9336C168.562 16.6843 168.056 16.3176 167.616 15.8336C167.176 15.3496 166.824 14.7629 166.56 14.0736C166.311 13.3843 166.186 12.5996 166.186 11.7196V11.3676C166.186 10.5023 166.311 9.72494 166.56 9.03561C166.81 8.34628 167.147 7.75961 167.572 7.27561C167.998 6.79161 168.489 6.42494 169.046 6.17561C169.618 5.91161 170.227 5.77961 170.872 5.77961C171.65 5.77961 172.273 5.91161 172.742 6.17561C173.226 6.43961 173.608 6.85028 173.886 7.40761H174.282V6.08761H177.054V13.6996C177.054 14.1396 177.252 14.3596 177.648 14.3596H178.066V16.9996H176.174C175.676 16.9996 175.265 16.8529 174.942 16.5596C174.634 16.2663 174.48 15.8849 174.48 15.4156H174.084ZM171.62 14.6676C172.427 14.6676 173.072 14.4036 173.556 13.8756C174.04 13.3329 174.282 12.5996 174.282 11.6756V11.4116C174.282 10.4876 174.04 9.76161 173.556 9.23361C173.072 8.69094 172.427 8.41961 171.62 8.41961C170.814 8.41961 170.168 8.69094 169.684 9.23361C169.2 9.76161 168.958 10.4876 168.958 11.4116V11.6756C168.958 12.5996 169.2 13.3329 169.684 13.8756C170.168 14.4036 170.814 14.6676 171.62 14.6676Z"/>
<path d="M191.141 12.9956C190.892 14.2863 190.298 15.3276 189.359 16.1196C188.435 16.9116 187.196 17.3076 185.641 17.3076C184.834 17.3076 184.079 17.1829 183.375 16.9336C182.686 16.6843 182.084 16.3249 181.571 15.8556C181.058 15.3863 180.654 14.8069 180.361 14.1176C180.068 13.4283 179.921 12.6436 179.921 11.7636V11.4996C179.921 10.6196 180.068 9.82761 180.361 9.12361C180.654 8.41961 181.058 7.81828 181.571 7.31961C182.099 6.82094 182.708 6.43961 183.397 6.17561C184.101 5.91161 184.849 5.77961 185.641 5.77961C187.166 5.77961 188.398 6.17561 189.337 6.96761C190.29 7.75961 190.892 8.80094 191.141 10.0916L188.413 10.7956C188.325 10.1503 188.046 9.59294 187.577 9.12361C187.108 8.65428 186.448 8.41961 185.597 8.41961C185.201 8.41961 184.827 8.49294 184.475 8.63961C184.123 8.78628 183.815 8.99894 183.551 9.27761C183.287 9.54161 183.074 9.87161 182.913 10.2676C182.766 10.6489 182.693 11.0816 182.693 11.5656V11.6976C182.693 12.1816 182.766 12.6143 182.913 12.9956C183.074 13.3623 183.287 13.6703 183.551 13.9196C183.815 14.1689 184.123 14.3596 184.475 14.4916C184.827 14.6089 185.201 14.6676 185.597 14.6676C186.448 14.6676 187.093 14.4549 187.533 14.0296C187.988 13.6043 188.281 13.0323 188.413 12.3136L191.141 12.9956Z"/>
<path d="M196.406 12.4456C196.421 12.7683 196.494 13.0689 196.626 13.3476C196.773 13.6116 196.963 13.8463 197.198 14.0516C197.447 14.2423 197.726 14.3963 198.034 14.5136C198.357 14.6163 198.694 14.6676 199.046 14.6676C199.735 14.6676 200.263 14.5503 200.63 14.3156C200.997 14.0663 201.261 13.7729 201.422 13.4356L203.798 14.7556C203.666 15.0343 203.483 15.3276 203.248 15.6356C203.013 15.9289 202.705 16.2003 202.324 16.4496C201.957 16.6989 201.503 16.9043 200.96 17.0656C200.432 17.2269 199.809 17.3076 199.09 17.3076C198.269 17.3076 197.521 17.1756 196.846 16.9116C196.171 16.6476 195.585 16.2663 195.086 15.7676C194.602 15.2689 194.221 14.6603 193.942 13.9416C193.678 13.2229 193.546 12.4089 193.546 11.4996V11.3676C193.546 10.5316 193.685 9.76894 193.964 9.07961C194.257 8.39028 194.653 7.80361 195.152 7.31961C195.651 6.83561 196.23 6.46161 196.89 6.19761C197.565 5.91894 198.283 5.77961 199.046 5.77961C199.985 5.77961 200.791 5.94828 201.466 6.28561C202.141 6.60828 202.698 7.02628 203.138 7.53961C203.578 8.03828 203.901 8.59561 204.106 9.21161C204.311 9.81294 204.414 10.3996 204.414 10.9716V12.4456H196.406ZM199.024 8.28761C198.32 8.28761 197.748 8.47094 197.308 8.83761C196.868 9.18961 196.582 9.60028 196.45 10.0696H201.598C201.51 9.55628 201.231 9.13094 200.762 8.79361C200.307 8.45628 199.728 8.28761 199.024 8.28761Z"/>
</mask>
<path d="M12.48 15.5476H12.876V1.59961H15.78V16.9996H10.104L8.3 3.05161H7.904V16.9996H5V1.59961H10.676L12.48 15.5476Z" fill="white"/>
<path d="M19.0647 1.59961H28.9207V4.37161H21.9687V7.89161H28.7887V10.6636H21.9687V16.9996H19.0647V1.59961Z" fill="white"/>
<path d="M31.7874 1.59961H42.8754V4.37161H38.7834V16.9996H35.8794V4.37161H31.7874V1.59961Z" fill="white"/>
<path d="M58.0248 1.59961H63.1288L64.0088 13.1716V15.4156H64.5368V13.1716L65.4168 1.59961H70.5208V16.9996H67.8808V6.70361L68.1448 3.18361H67.6168L66.4728 16.9996H62.1168L60.9288 3.18361H60.4008L60.6648 6.70361V16.9996H58.0248V1.59961Z" fill="white"/>
<path d="M79.7895 15.4156C79.4962 16.1049 79.0855 16.5963 78.5575 16.8896C78.0295 17.1683 77.4135 17.3076 76.7095 17.3076C76.0495 17.3076 75.4262 17.1829 74.8395 16.9336C74.2675 16.6843 73.7615 16.3176 73.3215 15.8336C72.8815 15.3496 72.5295 14.7629 72.2655 14.0736C72.0162 13.3843 71.8915 12.5996 71.8915 11.7196V11.3676C71.8915 10.5023 72.0162 9.72494 72.2655 9.03561C72.5148 8.34628 72.8522 7.75961 73.2775 7.27561C73.7028 6.79161 74.1942 6.42494 74.7515 6.17561C75.3235 5.91161 75.9322 5.77961 76.5775 5.77961C77.3548 5.77961 77.9782 5.91161 78.4475 6.17561C78.9315 6.43961 79.3128 6.85028 79.5915 7.40761H79.9875V6.08761H82.7595V13.6996C82.7595 14.1396 82.9575 14.3596 83.3535 14.3596H83.7715V16.9996H81.8795C81.3808 16.9996 80.9702 16.8529 80.6475 16.5596C80.3395 16.2663 80.1855 15.8849 80.1855 15.4156H79.7895ZM77.3255 14.6676C78.1322 14.6676 78.7775 14.4036 79.2615 13.8756C79.7455 13.3329 79.9875 12.5996 79.9875 11.6756V11.4116C79.9875 10.4876 79.7455 9.76161 79.2615 9.23361C78.7775 8.69094 78.1322 8.41961 77.3255 8.41961C76.5188 8.41961 75.8735 8.69094 75.3895 9.23361C74.9055 9.76161 74.6635 10.4876 74.6635 11.4116V11.6756C74.6635 12.5996 74.9055 13.3329 75.3895 13.8756C75.8735 14.4036 76.5188 14.6676 77.3255 14.6676Z" fill="white"/>
<path d="M85.6702 6.08761H90.2902V7.67161H90.6862C90.8916 7.07028 91.2362 6.60828 91.7202 6.28561C92.2189 5.94828 92.8129 5.77961 93.5022 5.77961C94.5876 5.77961 95.4602 6.12428 96.1202 6.81361C96.7802 7.48828 97.1102 8.52228 97.1102 9.91561V10.3996L94.2502 10.6636V10.3556C94.2502 9.75428 94.0962 9.27761 93.7882 8.92561C93.4802 8.55894 93.0182 8.37561 92.4022 8.37561C91.7862 8.37561 91.3022 8.58828 90.9502 9.01361C90.5982 9.43894 90.4222 10.0476 90.4222 10.8396V14.3596H92.9302V16.9996H85.4062V14.3596H87.6502V8.72761H85.6702V6.08761Z" fill="white"/>
<path d="M103.321 10.0916H103.849L106.753 6.08761H109.789V6.21961L106.269 11.2136V11.6096L110.141 16.8676V16.9996H106.973L103.849 12.7316H103.321V16.9996H100.549V1.59961H103.321V10.0916Z" fill="white"/>
<path d="M115.582 12.4456C115.596 12.7683 115.67 13.0689 115.802 13.3476C115.948 13.6116 116.139 13.8463 116.374 14.0516C116.623 14.2423 116.902 14.3963 117.21 14.5136C117.532 14.6163 117.87 14.6676 118.222 14.6676C118.911 14.6676 119.439 14.5503 119.806 14.3156C120.172 14.0663 120.436 13.7729 120.598 13.4356L122.974 14.7556C122.842 15.0343 122.658 15.3276 122.424 15.6356C122.189 15.9289 121.881 16.2003 121.5 16.4496C121.133 16.6989 120.678 16.9043 120.136 17.0656C119.608 17.2269 118.984 17.3076 118.266 17.3076C117.444 17.3076 116.696 17.1756 116.022 16.9116C115.347 16.6476 114.76 16.2663 114.262 15.7676C113.778 15.2689 113.396 14.6603 113.118 13.9416C112.854 13.2229 112.722 12.4089 112.722 11.4996V11.3676C112.722 10.5316 112.861 9.76894 113.14 9.07961C113.433 8.39028 113.829 7.80361 114.328 7.31961C114.826 6.83561 115.406 6.46161 116.066 6.19761C116.74 5.91894 117.459 5.77961 118.222 5.77961C119.16 5.77961 119.967 5.94828 120.642 6.28561C121.316 6.60828 121.874 7.02628 122.314 7.53961C122.754 8.03828 123.076 8.59561 123.282 9.21161C123.487 9.81294 123.59 10.3996 123.59 10.9716V12.4456H115.582ZM118.2 8.28761C117.496 8.28761 116.924 8.47094 116.484 8.83761C116.044 9.18961 115.758 9.60028 115.626 10.0696H120.774C120.686 9.55628 120.407 9.13094 119.938 8.79361C119.483 8.45628 118.904 8.28761 118.2 8.28761Z" fill="white"/>
<path d="M126.302 6.08761H129.536V1.59961H132.308V6.08761H136.246V8.72761H132.308V13.6996C132.308 14.1396 132.506 14.3596 132.902 14.3596H135.85V16.9996H131.23C130.732 16.9996 130.321 16.8383 129.998 16.5156C129.69 16.1929 129.536 15.7823 129.536 15.2836V8.72761H126.302V6.08761Z" fill="white"/>
<path d="M142.281 21.3996H139.509V6.08761H142.281V7.67161H142.677C142.97 7.07028 143.396 6.60828 143.953 6.28561C144.51 5.94828 145.222 5.77961 146.087 5.77961C146.732 5.77961 147.341 5.90428 147.913 6.15361C148.5 6.40294 149.006 6.76961 149.431 7.25361C149.871 7.72294 150.216 8.30228 150.465 8.99161C150.729 9.68094 150.861 10.4656 150.861 11.3456V11.7416C150.861 12.6363 150.736 13.4283 150.487 14.1176C150.238 14.8069 149.9 15.3936 149.475 15.8776C149.05 16.3469 148.544 16.7063 147.957 16.9556C147.385 17.1903 146.762 17.3076 146.087 17.3076C145.588 17.3076 145.156 17.2563 144.789 17.1536C144.422 17.0509 144.1 16.9116 143.821 16.7356C143.557 16.5596 143.33 16.3616 143.139 16.1416C142.963 15.9069 142.809 15.6649 142.677 15.4156H142.281V21.3996ZM145.185 14.6676C146.05 14.6676 146.747 14.4036 147.275 13.8756C147.818 13.3329 148.089 12.5996 148.089 11.6756V11.4116C148.089 10.4876 147.818 9.76161 147.275 9.23361C146.747 8.69094 146.05 8.41961 145.185 8.41961C144.32 8.41961 143.616 8.69828 143.073 9.25561C142.545 9.79828 142.281 10.5169 142.281 11.4116V11.6756C142.281 12.5703 142.545 13.2963 143.073 13.8536C143.616 14.3963 144.32 14.6676 145.185 14.6676Z" fill="white"/>
<path d="M153.486 14.3596H157.314V4.23961H153.618V1.59961H160.086V14.3596H163.65V16.9996H153.486V14.3596Z" fill="white"/>
<path d="M174.084 15.4156C173.791 16.1049 173.38 16.5963 172.852 16.8896C172.324 17.1683 171.708 17.3076 171.004 17.3076C170.344 17.3076 169.721 17.1829 169.134 16.9336C168.562 16.6843 168.056 16.3176 167.616 15.8336C167.176 15.3496 166.824 14.7629 166.56 14.0736C166.311 13.3843 166.186 12.5996 166.186 11.7196V11.3676C166.186 10.5023 166.311 9.72494 166.56 9.03561C166.81 8.34628 167.147 7.75961 167.572 7.27561C167.998 6.79161 168.489 6.42494 169.046 6.17561C169.618 5.91161 170.227 5.77961 170.872 5.77961C171.65 5.77961 172.273 5.91161 172.742 6.17561C173.226 6.43961 173.608 6.85028 173.886 7.40761H174.282V6.08761H177.054V13.6996C177.054 14.1396 177.252 14.3596 177.648 14.3596H178.066V16.9996H176.174C175.676 16.9996 175.265 16.8529 174.942 16.5596C174.634 16.2663 174.48 15.8849 174.48 15.4156H174.084ZM171.62 14.6676C172.427 14.6676 173.072 14.4036 173.556 13.8756C174.04 13.3329 174.282 12.5996 174.282 11.6756V11.4116C174.282 10.4876 174.04 9.76161 173.556 9.23361C173.072 8.69094 172.427 8.41961 171.62 8.41961C170.814 8.41961 170.168 8.69094 169.684 9.23361C169.2 9.76161 168.958 10.4876 168.958 11.4116V11.6756C168.958 12.5996 169.2 13.3329 169.684 13.8756C170.168 14.4036 170.814 14.6676 171.62 14.6676Z" fill="white"/>
<path d="M191.141 12.9956C190.892 14.2863 190.298 15.3276 189.359 16.1196C188.435 16.9116 187.196 17.3076 185.641 17.3076C184.834 17.3076 184.079 17.1829 183.375 16.9336C182.686 16.6843 182.084 16.3249 181.571 15.8556C181.058 15.3863 180.654 14.8069 180.361 14.1176C180.068 13.4283 179.921 12.6436 179.921 11.7636V11.4996C179.921 10.6196 180.068 9.82761 180.361 9.12361C180.654 8.41961 181.058 7.81828 181.571 7.31961C182.099 6.82094 182.708 6.43961 183.397 6.17561C184.101 5.91161 184.849 5.77961 185.641 5.77961C187.166 5.77961 188.398 6.17561 189.337 6.96761C190.29 7.75961 190.892 8.80094 191.141 10.0916L188.413 10.7956C188.325 10.1503 188.046 9.59294 187.577 9.12361C187.108 8.65428 186.448 8.41961 185.597 8.41961C185.201 8.41961 184.827 8.49294 184.475 8.63961C184.123 8.78628 183.815 8.99894 183.551 9.27761C183.287 9.54161 183.074 9.87161 182.913 10.2676C182.766 10.6489 182.693 11.0816 182.693 11.5656V11.6976C182.693 12.1816 182.766 12.6143 182.913 12.9956C183.074 13.3623 183.287 13.6703 183.551 13.9196C183.815 14.1689 184.123 14.3596 184.475 14.4916C184.827 14.6089 185.201 14.6676 185.597 14.6676C186.448 14.6676 187.093 14.4549 187.533 14.0296C187.988 13.6043 188.281 13.0323 188.413 12.3136L191.141 12.9956Z" fill="white"/>
<path d="M196.406 12.4456C196.421 12.7683 196.494 13.0689 196.626 13.3476C196.773 13.6116 196.963 13.8463 197.198 14.0516C197.447 14.2423 197.726 14.3963 198.034 14.5136C198.357 14.6163 198.694 14.6676 199.046 14.6676C199.735 14.6676 200.263 14.5503 200.63 14.3156C200.997 14.0663 201.261 13.7729 201.422 13.4356L203.798 14.7556C203.666 15.0343 203.483 15.3276 203.248 15.6356C203.013 15.9289 202.705 16.2003 202.324 16.4496C201.957 16.6989 201.503 16.9043 200.96 17.0656C200.432 17.2269 199.809 17.3076 199.09 17.3076C198.269 17.3076 197.521 17.1756 196.846 16.9116C196.171 16.6476 195.585 16.2663 195.086 15.7676C194.602 15.2689 194.221 14.6603 193.942 13.9416C193.678 13.2229 193.546 12.4089 193.546 11.4996V11.3676C193.546 10.5316 193.685 9.76894 193.964 9.07961C194.257 8.39028 194.653 7.80361 195.152 7.31961C195.651 6.83561 196.23 6.46161 196.89 6.19761C197.565 5.91894 198.283 5.77961 199.046 5.77961C199.985 5.77961 200.791 5.94828 201.466 6.28561C202.141 6.60828 202.698 7.02628 203.138 7.53961C203.578 8.03828 203.901 8.59561 204.106 9.21161C204.311 9.81294 204.414 10.3996 204.414 10.9716V12.4456H196.406ZM199.024 8.28761C198.32 8.28761 197.748 8.47094 197.308 8.83761C196.868 9.18961 196.582 9.60028 196.45 10.0696H201.598C201.51 9.55628 201.231 9.13094 200.762 8.79361C200.307 8.45628 199.728 8.28761 199.024 8.28761Z" fill="white"/>
<path d="M12.48 15.5476H12.876V1.59961H15.78V16.9996H10.104L8.3 3.05161H7.904V16.9996H5V1.59961H10.676L12.48 15.5476Z" stroke="black" stroke-width="2" mask="url(#path-1-outside-1_57002_523)"/>
<path d="M12.48 15.5476H12.876V1.59961H15.78V16.9996H10.104L8.3 3.05161H7.904V16.9996H5V1.59961H10.676L12.48 15.5476Z" stroke="black" stroke-opacity="0.2" stroke-width="2" mask="url(#path-1-outside-1_57002_523)"/>
<path d="M19.0647 1.59961H28.9207V4.37161H21.9687V7.89161H28.7887V10.6636H21.9687V16.9996H19.0647V1.59961Z" stroke="black" stroke-width="2" mask="url(#path-1-outside-1_57002_523)"/>
<path d="M19.0647 1.59961H28.9207V4.37161H21.9687V7.89161H28.7887V10.6636H21.9687V16.9996H19.0647V1.59961Z" stroke="black" stroke-opacity="0.2" stroke-width="2" mask="url(#path-1-outside-1_57002_523)"/>
<path d="M31.7874 1.59961H42.8754V4.37161H38.7834V16.9996H35.8794V4.37161H31.7874V1.59961Z" stroke="black" stroke-width="2" mask="url(#path-1-outside-1_57002_523)"/>
<path d="M31.7874 1.59961H42.8754V4.37161H38.7834V16.9996H35.8794V4.37161H31.7874V1.59961Z" stroke="black" stroke-opacity="0.2" stroke-width="2" mask="url(#path-1-outside-1_57002_523)"/>
<path d="M58.0248 1.59961H63.1288L64.0088 13.1716V15.4156H64.5368V13.1716L65.4168 1.59961H70.5208V16.9996H67.8808V6.70361L68.1448 3.18361H67.6168L66.4728 16.9996H62.1168L60.9288 3.18361H60.4008L60.6648 6.70361V16.9996H58.0248V1.59961Z" stroke="black" stroke-width="2" mask="url(#path-1-outside-1_57002_523)"/>
<path d="M58.0248 1.59961H63.1288L64.0088 13.1716V15.4156H64.5368V13.1716L65.4168 1.59961H70.5208V16.9996H67.8808V6.70361L68.1448 3.18361H67.6168L66.4728 16.9996H62.1168L60.9288 3.18361H60.4008L60.6648 6.70361V16.9996H58.0248V1.59961Z" stroke="black" stroke-opacity="0.2" stroke-width="2" mask="url(#path-1-outside-1_57002_523)"/>
<path d="M79.7895 15.4156C79.4962 16.1049 79.0855 16.5963 78.5575 16.8896C78.0295 17.1683 77.4135 17.3076 76.7095 17.3076C76.0495 17.3076 75.4262 17.1829 74.8395 16.9336C74.2675 16.6843 73.7615 16.3176 73.3215 15.8336C72.8815 15.3496 72.5295 14.7629 72.2655 14.0736C72.0162 13.3843 71.8915 12.5996 71.8915 11.7196V11.3676C71.8915 10.5023 72.0162 9.72494 72.2655 9.03561C72.5148 8.34628 72.8522 7.75961 73.2775 7.27561C73.7028 6.79161 74.1942 6.42494 74.7515 6.17561C75.3235 5.91161 75.9322 5.77961 76.5775 5.77961C77.3548 5.77961 77.9782 5.91161 78.4475 6.17561C78.9315 6.43961 79.3128 6.85028 79.5915 7.40761H79.9875V6.08761H82.7595V13.6996C82.7595 14.1396 82.9575 14.3596 83.3535 14.3596H83.7715V16.9996H81.8795C81.3808 16.9996 80.9702 16.8529 80.6475 16.5596C80.3395 16.2663 80.1855 15.8849 80.1855 15.4156H79.7895ZM77.3255 14.6676C78.1322 14.6676 78.7775 14.4036 79.2615 13.8756C79.7455 13.3329 79.9875 12.5996 79.9875 11.6756V11.4116C79.9875 10.4876 79.7455 9.76161 79.2615 9.23361C78.7775 8.69094 78.1322 8.41961 77.3255 8.41961C76.5188 8.41961 75.8735 8.69094 75.3895 9.23361C74.9055 9.76161 74.6635 10.4876 74.6635 11.4116V11.6756C74.6635 12.5996 74.9055 13.3329 75.3895 13.8756C75.8735 14.4036 76.5188 14.6676 77.3255 14.6676Z" stroke="black" stroke-width="2" mask="url(#path-1-outside-1_57002_523)"/>
<path d="M79.7895 15.4156C79.4962 16.1049 79.0855 16.5963 78.5575 16.8896C78.0295 17.1683 77.4135 17.3076 76.7095 17.3076C76.0495 17.3076 75.4262 17.1829 74.8395 16.9336C74.2675 16.6843 73.7615 16.3176 73.3215 15.8336C72.8815 15.3496 72.5295 14.7629 72.2655 14.0736C72.0162 13.3843 71.8915 12.5996 71.8915 11.7196V11.3676C71.8915 10.5023 72.0162 9.72494 72.2655 9.03561C72.5148 8.34628 72.8522 7.75961 73.2775 7.27561C73.7028 6.79161 74.1942 6.42494 74.7515 6.17561C75.3235 5.91161 75.9322 5.77961 76.5775 5.77961C77.3548 5.77961 77.9782 5.91161 78.4475 6.17561C78.9315 6.43961 79.3128 6.85028 79.5915 7.40761H79.9875V6.08761H82.7595V13.6996C82.7595 14.1396 82.9575 14.3596 83.3535 14.3596H83.7715V16.9996H81.8795C81.3808 16.9996 80.9702 16.8529 80.6475 16.5596C80.3395 16.2663 80.1855 15.8849 80.1855 15.4156H79.7895ZM77.3255 14.6676C78.1322 14.6676 78.7775 14.4036 79.2615 13.8756C79.7455 13.3329 79.9875 12.5996 79.9875 11.6756V11.4116C79.9875 10.4876 79.7455 9.76161 79.2615 9.23361C78.7775 8.69094 78.1322 8.41961 77.3255 8.41961C76.5188 8.41961 75.8735 8.69094 75.3895 9.23361C74.9055 9.76161 74.6635 10.4876 74.6635 11.4116V11.6756C74.6635 12.5996 74.9055 13.3329 75.3895 13.8756C75.8735 14.4036 76.5188 14.6676 77.3255 14.6676Z" stroke="black" stroke-opacity="0.2" stroke-width="2" mask="url(#path-1-outside-1_57002_523)"/>
<path d="M85.6702 6.08761H90.2902V7.67161H90.6862C90.8916 7.07028 91.2362 6.60828 91.7202 6.28561C92.2189 5.94828 92.8129 5.77961 93.5022 5.77961C94.5876 5.77961 95.4602 6.12428 96.1202 6.81361C96.7802 7.48828 97.1102 8.52228 97.1102 9.91561V10.3996L94.2502 10.6636V10.3556C94.2502 9.75428 94.0962 9.27761 93.7882 8.92561C93.4802 8.55894 93.0182 8.37561 92.4022 8.37561C91.7862 8.37561 91.3022 8.58828 90.9502 9.01361C90.5982 9.43894 90.4222 10.0476 90.4222 10.8396V14.3596H92.9302V16.9996H85.4062V14.3596H87.6502V8.72761H85.6702V6.08761Z" stroke="black" stroke-width="2" mask="url(#path-1-outside-1_57002_523)"/>
<path d="M85.6702 6.08761H90.2902V7.67161H90.6862C90.8916 7.07028 91.2362 6.60828 91.7202 6.28561C92.2189 5.94828 92.8129 5.77961 93.5022 5.77961C94.5876 5.77961 95.4602 6.12428 96.1202 6.81361C96.7802 7.48828 97.1102 8.52228 97.1102 9.91561V10.3996L94.2502 10.6636V10.3556C94.2502 9.75428 94.0962 9.27761 93.7882 8.92561C93.4802 8.55894 93.0182 8.37561 92.4022 8.37561C91.7862 8.37561 91.3022 8.58828 90.9502 9.01361C90.5982 9.43894 90.4222 10.0476 90.4222 10.8396V14.3596H92.9302V16.9996H85.4062V14.3596H87.6502V8.72761H85.6702V6.08761Z" stroke="black" stroke-opacity="0.2" stroke-width="2" mask="url(#path-1-outside-1_57002_523)"/>
<path d="M103.321 10.0916H103.849L106.753 6.08761H109.789V6.21961L106.269 11.2136V11.6096L110.141 16.8676V16.9996H106.973L103.849 12.7316H103.321V16.9996H100.549V1.59961H103.321V10.0916Z" stroke="black" stroke-width="2" mask="url(#path-1-outside-1_57002_523)"/>
<path d="M103.321 10.0916H103.849L106.753 6.08761H109.789V6.21961L106.269 11.2136V11.6096L110.141 16.8676V16.9996H106.973L103.849 12.7316H103.321V16.9996H100.549V1.59961H103.321V10.0916Z" stroke="black" stroke-opacity="0.2" stroke-width="2" mask="url(#path-1-outside-1_57002_523)"/>
<path d="M115.582 12.4456C115.596 12.7683 115.67 13.0689 115.802 13.3476C115.948 13.6116 116.139 13.8463 116.374 14.0516C116.623 14.2423 116.902 14.3963 117.21 14.5136C117.532 14.6163 117.87 14.6676 118.222 14.6676C118.911 14.6676 119.439 14.5503 119.806 14.3156C120.172 14.0663 120.436 13.7729 120.598 13.4356L122.974 14.7556C122.842 15.0343 122.658 15.3276 122.424 15.6356C122.189 15.9289 121.881 16.2003 121.5 16.4496C121.133 16.6989 120.678 16.9043 120.136 17.0656C119.608 17.2269 118.984 17.3076 118.266 17.3076C117.444 17.3076 116.696 17.1756 116.022 16.9116C115.347 16.6476 114.76 16.2663 114.262 15.7676C113.778 15.2689 113.396 14.6603 113.118 13.9416C112.854 13.2229 112.722 12.4089 112.722 11.4996V11.3676C112.722 10.5316 112.861 9.76894 113.14 9.07961C113.433 8.39028 113.829 7.80361 114.328 7.31961C114.826 6.83561 115.406 6.46161 116.066 6.19761C116.74 5.91894 117.459 5.77961 118.222 5.77961C119.16 5.77961 119.967 5.94828 120.642 6.28561C121.316 6.60828 121.874 7.02628 122.314 7.53961C122.754 8.03828 123.076 8.59561 123.282 9.21161C123.487 9.81294 123.59 10.3996 123.59 10.9716V12.4456H115.582ZM118.2 8.28761C117.496 8.28761 116.924 8.47094 116.484 8.83761C116.044 9.18961 115.758 9.60028 115.626 10.0696H120.774C120.686 9.55628 120.407 9.13094 119.938 8.79361C119.483 8.45628 118.904 8.28761 118.2 8.28761Z" stroke="black" stroke-width="2" mask="url(#path-1-outside-1_57002_523)"/>
<path d="M115.582 12.4456C115.596 12.7683 115.67 13.0689 115.802 13.3476C115.948 13.6116 116.139 13.8463 116.374 14.0516C116.623 14.2423 116.902 14.3963 117.21 14.5136C117.532 14.6163 117.87 14.6676 118.222 14.6676C118.911 14.6676 119.439 14.5503 119.806 14.3156C120.172 14.0663 120.436 13.7729 120.598 13.4356L122.974 14.7556C122.842 15.0343 122.658 15.3276 122.424 15.6356C122.189 15.9289 121.881 16.2003 121.5 16.4496C121.133 16.6989 120.678 16.9043 120.136 17.0656C119.608 17.2269 118.984 17.3076 118.266 17.3076C117.444 17.3076 116.696 17.1756 116.022 16.9116C115.347 16.6476 114.76 16.2663 114.262 15.7676C113.778 15.2689 113.396 14.6603 113.118 13.9416C112.854 13.2229 112.722 12.4089 112.722 11.4996V11.3676C112.722 10.5316 112.861 9.76894 113.14 9.07961C113.433 8.39028 113.829 7.80361 114.328 7.31961C114.826 6.83561 115.406 6.46161 116.066 6.19761C116.74 5.91894 117.459 5.77961 118.222 5.77961C119.16 5.77961 119.967 5.94828 120.642 6.28561C121.316 6.60828 121.874 7.02628 122.314 7.53961C122.754 8.03828 123.076 8.59561 123.282 9.21161C123.487 9.81294 123.59 10.3996 123.59 10.9716V12.4456H115.582ZM118.2 8.28761C117.496 8.28761 116.924 8.47094 116.484 8.83761C116.044 9.18961 115.758 9.60028 115.626 10.0696H120.774C120.686 9.55628 120.407 9.13094 119.938 8.79361C119.483 8.45628 118.904 8.28761 118.2 8.28761Z" stroke="black" stroke-opacity="0.2" stroke-width="2" mask="url(#path-1-outside-1_57002_523)"/>
<path d="M126.302 6.08761H129.536V1.59961H132.308V6.08761H136.246V8.72761H132.308V13.6996C132.308 14.1396 132.506 14.3596 132.902 14.3596H135.85V16.9996H131.23C130.732 16.9996 130.321 16.8383 129.998 16.5156C129.69 16.1929 129.536 15.7823 129.536 15.2836V8.72761H126.302V6.08761Z" stroke="black" stroke-width="2" mask="url(#path-1-outside-1_57002_523)"/>
<path d="M126.302 6.08761H129.536V1.59961H132.308V6.08761H136.246V8.72761H132.308V13.6996C132.308 14.1396 132.506 14.3596 132.902 14.3596H135.85V16.9996H131.23C130.732 16.9996 130.321 16.8383 129.998 16.5156C129.69 16.1929 129.536 15.7823 129.536 15.2836V8.72761H126.302V6.08761Z" stroke="black" stroke-opacity="0.2" stroke-width="2" mask="url(#path-1-outside-1_57002_523)"/>
<path d="M142.281 21.3996H139.509V6.08761H142.281V7.67161H142.677C142.97 7.07028 143.396 6.60828 143.953 6.28561C144.51 5.94828 145.222 5.77961 146.087 5.77961C146.732 5.77961 147.341 5.90428 147.913 6.15361C148.5 6.40294 149.006 6.76961 149.431 7.25361C149.871 7.72294 150.216 8.30228 150.465 8.99161C150.729 9.68094 150.861 10.4656 150.861 11.3456V11.7416C150.861 12.6363 150.736 13.4283 150.487 14.1176C150.238 14.8069 149.9 15.3936 149.475 15.8776C149.05 16.3469 148.544 16.7063 147.957 16.9556C147.385 17.1903 146.762 17.3076 146.087 17.3076C145.588 17.3076 145.156 17.2563 144.789 17.1536C144.422 17.0509 144.1 16.9116 143.821 16.7356C143.557 16.5596 143.33 16.3616 143.139 16.1416C142.963 15.9069 142.809 15.6649 142.677 15.4156H142.281V21.3996ZM145.185 14.6676C146.05 14.6676 146.747 14.4036 147.275 13.8756C147.818 13.3329 148.089 12.5996 148.089 11.6756V11.4116C148.089 10.4876 147.818 9.76161 147.275 9.23361C146.747 8.69094 146.05 8.41961 145.185 8.41961C144.32 8.41961 143.616 8.69828 143.073 9.25561C142.545 9.79828 142.281 10.5169 142.281 11.4116V11.6756C142.281 12.5703 142.545 13.2963 143.073 13.8536C143.616 14.3963 144.32 14.6676 145.185 14.6676Z" stroke="black" stroke-width="2" mask="url(#path-1-outside-1_57002_523)"/>
<path d="M142.281 21.3996H139.509V6.08761H142.281V7.67161H142.677C142.97 7.07028 143.396 6.60828 143.953 6.28561C144.51 5.94828 145.222 5.77961 146.087 5.77961C146.732 5.77961 147.341 5.90428 147.913 6.15361C148.5 6.40294 149.006 6.76961 149.431 7.25361C149.871 7.72294 150.216 8.30228 150.465 8.99161C150.729 9.68094 150.861 10.4656 150.861 11.3456V11.7416C150.861 12.6363 150.736 13.4283 150.487 14.1176C150.238 14.8069 149.9 15.3936 149.475 15.8776C149.05 16.3469 148.544 16.7063 147.957 16.9556C147.385 17.1903 146.762 17.3076 146.087 17.3076C145.588 17.3076 145.156 17.2563 144.789 17.1536C144.422 17.0509 144.1 16.9116 143.821 16.7356C143.557 16.5596 143.33 16.3616 143.139 16.1416C142.963 15.9069 142.809 15.6649 142.677 15.4156H142.281V21.3996ZM145.185 14.6676C146.05 14.6676 146.747 14.4036 147.275 13.8756C147.818 13.3329 148.089 12.5996 148.089 11.6756V11.4116C148.089 10.4876 147.818 9.76161 147.275 9.23361C146.747 8.69094 146.05 8.41961 145.185 8.41961C144.32 8.41961 143.616 8.69828 143.073 9.25561C142.545 9.79828 142.281 10.5169 142.281 11.4116V11.6756C142.281 12.5703 142.545 13.2963 143.073 13.8536C143.616 14.3963 144.32 14.6676 145.185 14.6676Z" stroke="black" stroke-opacity="0.2" stroke-width="2" mask="url(#path-1-outside-1_57002_523)"/>
<path d="M153.486 14.3596H157.314V4.23961H153.618V1.59961H160.086V14.3596H163.65V16.9996H153.486V14.3596Z" stroke="black" stroke-width="2" mask="url(#path-1-outside-1_57002_523)"/>
<path d="M153.486 14.3596H157.314V4.23961H153.618V1.59961H160.086V14.3596H163.65V16.9996H153.486V14.3596Z" stroke="black" stroke-opacity="0.2" stroke-width="2" mask="url(#path-1-outside-1_57002_523)"/>
<path d="M174.084 15.4156C173.791 16.1049 173.38 16.5963 172.852 16.8896C172.324 17.1683 171.708 17.3076 171.004 17.3076C170.344 17.3076 169.721 17.1829 169.134 16.9336C168.562 16.6843 168.056 16.3176 167.616 15.8336C167.176 15.3496 166.824 14.7629 166.56 14.0736C166.311 13.3843 166.186 12.5996 166.186 11.7196V11.3676C166.186 10.5023 166.311 9.72494 166.56 9.03561C166.81 8.34628 167.147 7.75961 167.572 7.27561C167.998 6.79161 168.489 6.42494 169.046 6.17561C169.618 5.91161 170.227 5.77961 170.872 5.77961C171.65 5.77961 172.273 5.91161 172.742 6.17561C173.226 6.43961 173.608 6.85028 173.886 7.40761H174.282V6.08761H177.054V13.6996C177.054 14.1396 177.252 14.3596 177.648 14.3596H178.066V16.9996H176.174C175.676 16.9996 175.265 16.8529 174.942 16.5596C174.634 16.2663 174.48 15.8849 174.48 15.4156H174.084ZM171.62 14.6676C172.427 14.6676 173.072 14.4036 173.556 13.8756C174.04 13.3329 174.282 12.5996 174.282 11.6756V11.4116C174.282 10.4876 174.04 9.76161 173.556 9.23361C173.072 8.69094 172.427 8.41961 171.62 8.41961C170.814 8.41961 170.168 8.69094 169.684 9.23361C169.2 9.76161 168.958 10.4876 168.958 11.4116V11.6756C168.958 12.5996 169.2 13.3329 169.684 13.8756C170.168 14.4036 170.814 14.6676 171.62 14.6676Z" stroke="black" stroke-width="2" mask="url(#path-1-outside-1_57002_523)"/>
<path d="M174.084 15.4156C173.791 16.1049 173.38 16.5963 172.852 16.8896C172.324 17.1683 171.708 17.3076 171.004 17.3076C170.344 17.3076 169.721 17.1829 169.134 16.9336C168.562 16.6843 168.056 16.3176 167.616 15.8336C167.176 15.3496 166.824 14.7629 166.56 14.0736C166.311 13.3843 166.186 12.5996 166.186 11.7196V11.3676C166.186 10.5023 166.311 9.72494 166.56 9.03561C166.81 8.34628 167.147 7.75961 167.572 7.27561C167.998 6.79161 168.489 6.42494 169.046 6.17561C169.618 5.91161 170.227 5.77961 170.872 5.77961C171.65 5.77961 172.273 5.91161 172.742 6.17561C173.226 6.43961 173.608 6.85028 173.886 7.40761H174.282V6.08761H177.054V13.6996C177.054 14.1396 177.252 14.3596 177.648 14.3596H178.066V16.9996H176.174C175.676 16.9996 175.265 16.8529 174.942 16.5596C174.634 16.2663 174.48 15.8849 174.48 15.4156H174.084ZM171.62 14.6676C172.427 14.6676 173.072 14.4036 173.556 13.8756C174.04 13.3329 174.282 12.5996 174.282 11.6756V11.4116C174.282 10.4876 174.04 9.76161 173.556 9.23361C173.072 8.69094 172.427 8.41961 171.62 8.41961C170.814 8.41961 170.168 8.69094 169.684 9.23361C169.2 9.76161 168.958 10.4876 168.958 11.4116V11.6756C168.958 12.5996 169.2 13.3329 169.684 13.8756C170.168 14.4036 170.814 14.6676 171.62 14.6676Z" stroke="black" stroke-opacity="0.2" stroke-width="2" mask="url(#path-1-outside-1_57002_523)"/>
<path d="M191.141 12.9956C190.892 14.2863 190.298 15.3276 189.359 16.1196C188.435 16.9116 187.196 17.3076 185.641 17.3076C184.834 17.3076 184.079 17.1829 183.375 16.9336C182.686 16.6843 182.084 16.3249 181.571 15.8556C181.058 15.3863 180.654 14.8069 180.361 14.1176C180.068 13.4283 179.921 12.6436 179.921 11.7636V11.4996C179.921 10.6196 180.068 9.82761 180.361 9.12361C180.654 8.41961 181.058 7.81828 181.571 7.31961C182.099 6.82094 182.708 6.43961 183.397 6.17561C184.101 5.91161 184.849 5.77961 185.641 5.77961C187.166 5.77961 188.398 6.17561 189.337 6.96761C190.29 7.75961 190.892 8.80094 191.141 10.0916L188.413 10.7956C188.325 10.1503 188.046 9.59294 187.577 9.12361C187.108 8.65428 186.448 8.41961 185.597 8.41961C185.201 8.41961 184.827 8.49294 184.475 8.63961C184.123 8.78628 183.815 8.99894 183.551 9.27761C183.287 9.54161 183.074 9.87161 182.913 10.2676C182.766 10.6489 182.693 11.0816 182.693 11.5656V11.6976C182.693 12.1816 182.766 12.6143 182.913 12.9956C183.074 13.3623 183.287 13.6703 183.551 13.9196C183.815 14.1689 184.123 14.3596 184.475 14.4916C184.827 14.6089 185.201 14.6676 185.597 14.6676C186.448 14.6676 187.093 14.4549 187.533 14.0296C187.988 13.6043 188.281 13.0323 188.413 12.3136L191.141 12.9956Z" stroke="black" stroke-width="2" mask="url(#path-1-outside-1_57002_523)"/>
<path d="M191.141 12.9956C190.892 14.2863 190.298 15.3276 189.359 16.1196C188.435 16.9116 187.196 17.3076 185.641 17.3076C184.834 17.3076 184.079 17.1829 183.375 16.9336C182.686 16.6843 182.084 16.3249 181.571 15.8556C181.058 15.3863 180.654 14.8069 180.361 14.1176C180.068 13.4283 179.921 12.6436 179.921 11.7636V11.4996C179.921 10.6196 180.068 9.82761 180.361 9.12361C180.654 8.41961 181.058 7.81828 181.571 7.31961C182.099 6.82094 182.708 6.43961 183.397 6.17561C184.101 5.91161 184.849 5.77961 185.641 5.77961C187.166 5.77961 188.398 6.17561 189.337 6.96761C190.29 7.75961 190.892 8.80094 191.141 10.0916L188.413 10.7956C188.325 10.1503 188.046 9.59294 187.577 9.12361C187.108 8.65428 186.448 8.41961 185.597 8.41961C185.201 8.41961 184.827 8.49294 184.475 8.63961C184.123 8.78628 183.815 8.99894 183.551 9.27761C183.287 9.54161 183.074 9.87161 182.913 10.2676C182.766 10.6489 182.693 11.0816 182.693 11.5656V11.6976C182.693 12.1816 182.766 12.6143 182.913 12.9956C183.074 13.3623 183.287 13.6703 183.551 13.9196C183.815 14.1689 184.123 14.3596 184.475 14.4916C184.827 14.6089 185.201 14.6676 185.597 14.6676C186.448 14.6676 187.093 14.4549 187.533 14.0296C187.988 13.6043 188.281 13.0323 188.413 12.3136L191.141 12.9956Z" stroke="black" stroke-opacity="0.2" stroke-width="2" mask="url(#path-1-outside-1_57002_523)"/>
<path d="M196.406 12.4456C196.421 12.7683 196.494 13.0689 196.626 13.3476C196.773 13.6116 196.963 13.8463 197.198 14.0516C197.447 14.2423 197.726 14.3963 198.034 14.5136C198.357 14.6163 198.694 14.6676 199.046 14.6676C199.735 14.6676 200.263 14.5503 200.63 14.3156C200.997 14.0663 201.261 13.7729 201.422 13.4356L203.798 14.7556C203.666 15.0343 203.483 15.3276 203.248 15.6356C203.013 15.9289 202.705 16.2003 202.324 16.4496C201.957 16.6989 201.503 16.9043 200.96 17.0656C200.432 17.2269 199.809 17.3076 199.09 17.3076C198.269 17.3076 197.521 17.1756 196.846 16.9116C196.171 16.6476 195.585 16.2663 195.086 15.7676C194.602 15.2689 194.221 14.6603 193.942 13.9416C193.678 13.2229 193.546 12.4089 193.546 11.4996V11.3676C193.546 10.5316 193.685 9.76894 193.964 9.07961C194.257 8.39028 194.653 7.80361 195.152 7.31961C195.651 6.83561 196.23 6.46161 196.89 6.19761C197.565 5.91894 198.283 5.77961 199.046 5.77961C199.985 5.77961 200.791 5.94828 201.466 6.28561C202.141 6.60828 202.698 7.02628 203.138 7.53961C203.578 8.03828 203.901 8.59561 204.106 9.21161C204.311 9.81294 204.414 10.3996 204.414 10.9716V12.4456H196.406ZM199.024 8.28761C198.32 8.28761 197.748 8.47094 197.308 8.83761C196.868 9.18961 196.582 9.60028 196.45 10.0696H201.598C201.51 9.55628 201.231 9.13094 200.762 8.79361C200.307 8.45628 199.728 8.28761 199.024 8.28761Z" stroke="black" stroke-width="2" mask="url(#path-1-outside-1_57002_523)"/>
<path d="M196.406 12.4456C196.421 12.7683 196.494 13.0689 196.626 13.3476C196.773 13.6116 196.963 13.8463 197.198 14.0516C197.447 14.2423 197.726 14.3963 198.034 14.5136C198.357 14.6163 198.694 14.6676 199.046 14.6676C199.735 14.6676 200.263 14.5503 200.63 14.3156C200.997 14.0663 201.261 13.7729 201.422 13.4356L203.798 14.7556C203.666 15.0343 203.483 15.3276 203.248 15.6356C203.013 15.9289 202.705 16.2003 202.324 16.4496C201.957 16.6989 201.503 16.9043 200.96 17.0656C200.432 17.2269 199.809 17.3076 199.09 17.3076C198.269 17.3076 197.521 17.1756 196.846 16.9116C196.171 16.6476 195.585 16.2663 195.086 15.7676C194.602 15.2689 194.221 14.6603 193.942 13.9416C193.678 13.2229 193.546 12.4089 193.546 11.4996V11.3676C193.546 10.5316 193.685 9.76894 193.964 9.07961C194.257 8.39028 194.653 7.80361 195.152 7.31961C195.651 6.83561 196.23 6.46161 196.89 6.19761C197.565 5.91894 198.283 5.77961 199.046 5.77961C199.985 5.77961 200.791 5.94828 201.466 6.28561C202.141 6.60828 202.698 7.02628 203.138 7.53961C203.578 8.03828 203.901 8.59561 204.106 9.21161C204.311 9.81294 204.414 10.3996 204.414 10.9716V12.4456H196.406ZM199.024 8.28761C198.32 8.28761 197.748 8.47094 197.308 8.83761C196.868 9.18961 196.582 9.60028 196.45 10.0696H201.598C201.51 9.55628 201.231 9.13094 200.762 8.79361C200.307 8.45628 199.728 8.28761 199.024 8.28761Z" stroke="black" stroke-opacity="0.2" stroke-width="2" mask="url(#path-1-outside-1_57002_523)"/>
</g>
<defs>
<filter id="filter0_d_57002_523" x="0" y="0.599609" width="209.414" height="29.7998" filterUnits="userSpaceOnUse" color-interpolation-filters="sRGB">
<feFlood flood-opacity="0" result="BackgroundImageFix"/>
<feColorMatrix in="SourceAlpha" type="matrix" values="0 0 0 0 0 0 0 0 0 0 0 0 0 0 0 0 0 0 127 0" result="hardAlpha"/>
<feOffset dy="4"/>
<feGaussianBlur stdDeviation="2"/>
<feComposite in2="hardAlpha" operator="out"/>
<feColorMatrix type="matrix" values="0 0 0 0 0 0 0 0 0 0 0 0 0 0 0 0 0 0 0.25 0"/>
<feBlend mode="normal" in2="BackgroundImageFix" result="effect1_dropShadow_57002_523"/>
<feBlend mode="normal" in="SourceGraphic" in2="effect1_dropShadow_57002_523" result="shape"/>
</filter>
</defs>
</svg>
