<?xml version="1.0" standalone="no"?>
<!DOCTYPE svg PUBLIC "-//W3C//DTD SVG 1.1//EN" "http://www.w3.org/Graphics/SVG/1.1/DTD/svg11.dtd" >
<svg xmlns="http://www.w3.org/2000/svg" xmlns:xlink="http://www.w3.org/1999/xlink" version="1.1">
<metadata>
Created by FontForge 20201107 at Thu Nov 11 03:08:14 2021
 By 
Copyright (c) 2021 by Whymore.inc. All rights reserved.
</metadata>
<defs>
<font id="Chandra" horiz-adv-x="0" >
  <font-face 
    font-family="Chandra"
    font-weight="400"
    font-stretch="normal"
    units-per-em="1000"
    panose-1="2 0 5 3 0 0 0 2 0 4"
    ascent="750"
    descent="-250"
    x-height="696"
    cap-height="698"
    bbox="-231 -471 1402.17 1025"
    underline-thickness="50"
    underline-position="-100"
    unicode-range="U+000D-FB02"
  />
<missing-glyph horiz-adv-x="289" 
 />
    <glyph glyph-name=".notdef" horiz-adv-x="289" 
 />
    <glyph glyph-name=".null" 
 />
    <glyph glyph-name="nonmarkingreturn" unicode="&#xd;" horiz-adv-x="289" 
 />
    <glyph glyph-name="NULL" 
 />
    <glyph glyph-name="NULL" 
 />
    <glyph glyph-name="space" unicode=" " horiz-adv-x="289" 
 />
    <glyph glyph-name="exclam" unicode="!" horiz-adv-x="138" 
d="M36 698h66l-23 -530h-21zM76 72l29 -29q7 -7 0 -15l-29 -28q-7 -7 -14 0l-29 28q-7 8 0 15l29 29q7 7 14 0z" />
    <glyph glyph-name="quotedbl" unicode="&#x22;" horiz-adv-x="189" 
d="M72 590h-42v132h42v-132zM159 590h-42v132h42v-132z" />
    <glyph glyph-name="numbersign" unicode="#" horiz-adv-x="744" 
d="M264 -27h-17v215h-217v18h217v329h-217v18h217v241h17v-241h216v241h18v-241h216v-18h-216v-329h216v-18h-216v-215h-18v215h-216v-215zM264 535v-329h216v329h-216z" />
    <glyph glyph-name="dollar" unicode="$" horiz-adv-x="520" 
d="M264 733v-35q23 -3 46 -11.5t44 -24.5q15 -11 28 -22t23 -18.5t17.5 -10t10.5 3.5v71h7v-224h-7q0 58 -15.5 98.5t-38.5 67.5q-24 29 -54.5 43.5t-60.5 18.5v-303q43 -20 85.5 -41.5t75.5 -50.5t51 -69t12 -97q-5 -41 -26 -69.5t-51.5 -46.5t-67.5 -26t-74 -8h-5v-33h-8
v33q-20 1 -41.5 4.5t-41.5 11.5q-21 5 -43.5 21t-41 28.5t-30.5 13.5t-12 -25v-45h-7v224h7q0 -59 16 -99t42 -66q32 -32 72.5 -45t79.5 -15v314q-39 17 -79.5 34t-73 42t-53 62.5t-20.5 95.5q0 40 18.5 71t48 52t66 31.5t72.5 10.5h10.5t10.5 -1v34h8zM256 391v300
q-5 1 -10.5 1h-10.5q-38 0 -70 -14.5t-52 -39.5t-24.5 -57.5t13.5 -69.5q19 -41 61.5 -68.5t92.5 -51.5zM264 298v-311q1 -1 5 -1q28 0 53.5 10.5t45 29.5t31 43.5t11.5 53.5q0 38 -12 65t-32 47.5t-46.5 35t-55.5 27.5z" />
    <glyph glyph-name="percent" unicode="%" horiz-adv-x="810" 
d="M199 702q37 0 68 -15.5t53 -41t34.5 -59t12.5 -68.5q0 -36 -12.5 -69t-34.5 -59t-53 -41.5t-68 -15.5q-38 0 -69 15.5t-53 41.5t-34.5 59t-12.5 69q0 35 12.5 68.5t34.5 59t53 41t69 15.5zM612 367q37 0 68 -15.5t53 -41.5t34.5 -59t12.5 -69t-12.5 -69t-34.5 -58.5
t-53 -41t-68 -15.5t-68 15.5t-53.5 41t-35 58.5t-12.5 69t12.5 69t35 59t53.5 41.5t68 15.5zM612 1q34 0 59 17.5t42 44t25.5 58.5t8.5 61t-8.5 61t-25.5 58.5t-42 44t-59 17.5h-2q-33 -1 -58.5 -18.5t-42 -43.5t-25 -58t-8.5 -61t8.5 -60.5t25 -58t42 -44t58.5 -18.5h2z
M199 698h-2q-33 0 -58.5 -17.5t-42 -44t-25 -58t-8.5 -60.5t8.5 -61t25 -58.5t42 -44t58.5 -17.5h2q33 0 58.5 17.5t42.5 44t25.5 58.5t8.5 61t-8.5 60.5t-25.5 58t-42.5 44t-58.5 17.5zM525 698h72l-313 -698h-71zM619 212l26 -26q5 -7 0 -14l-26 -26q-7 -5 -14 0l-26 26
q-5 7 0 14l26 26q7 5 14 0zM205 547l26 -26q7 -7 0 -13l-26 -26q-6 -7 -13 0l-26 26q-7 6 0 13l26 26q7 7 13 0z" />
    <glyph glyph-name="ampersand" unicode="&#x26;" horiz-adv-x="805" 
d="M738 428q-23 0 -44 -12t-38.5 -30t-31 -38t-20.5 -35l-9 -19q-11 -24 -24 -48q-41 -77 -94 -135q30 -36 62 -65.5t65 -46t65.5 -16t62.5 24.5q16 13 25.5 39t9.5 73h8q0 -49 -10.5 -76.5t-28.5 -41.5q-31 -25 -66.5 -28t-73 10t-75 39.5t-72.5 59.5q-63 -60 -131 -89.5
t-127 -25.5q-33 2 -62 13t-50.5 29.5t-34.5 45.5t-13 62q-1 45 17 84.5t48 71t68 55t77 37.5q-14 36 -24 75.5t-12 77t5.5 71.5t28 59t55.5 38t89 9h4v-1q15 -2 23 -4q32 -8 53 -25.5t34 -37.5q14 -20 18.5 -40.5t2.5 -37.5q0 -3 -2 -9q-8 -33 -30 -59t-50 -46
q-30 -20 -62 -34.5t-58 -22.5l7 -17q7 -17 20.5 -44t32 -59.5t42 -68t50.5 -69.5q27 29 51.5 61.5t44.5 67.5q9 18 17.5 36.5t15.5 38.5q8 31 -1.5 51.5t-25.5 31.5q-18 13 -44 20v8h212v-8zM245 358q-31 -14 -53.5 -36.5t-37.5 -50.5t-22.5 -60t-8.5 -64q0 -21 3.5 -47
t13 -50t26 -42t40.5 -24q6 -2 11 -2q45 -5 104.5 25t117.5 85q-32 31 -61.5 65.5t-53.5 67t-41.5 61t-26.5 47.5zM312 390q19 9 40.5 22.5t41.5 32.5q23 22 41.5 49t27.5 61q5 16 7.5 37t-4.5 41q-5 17 -19 30.5t-42 20.5q-7 2 -19 4q-40 0 -64 -14.5t-35.5 -38.5t-13 -55
t4 -64t15 -66t19.5 -60z" />
    <glyph glyph-name="quotesingle" unicode="'" horiz-adv-x="102" 
d="M72 590h-42v132h42v-132z" />
    <glyph glyph-name="parenleft" unicode="(" horiz-adv-x="220" 
d="M190 855v-8h-50q-20 -125 -33.5 -248.5t-13.5 -248.5t13.5 -248.5t33.5 -248.5h50v-8h-114q-19 127 -32.5 252.5t-13.5 252.5t13 252.5t33 252.5h114z" />
    <glyph glyph-name="parenright" unicode=")" horiz-adv-x="220" 
d="M144 855q20 -127 33 -252.5t13 -252.5t-13.5 -252.5t-32.5 -252.5h-114v8h50q20 125 33.5 248.5t13.5 248.5t-13.5 248.5t-33.5 248.5h-50v8h114z" />
    <glyph glyph-name="asterisk" unicode="*" horiz-adv-x="278" 
d="M246 753q3 -9 -1 -17.5t-21 -12.5q-8 -2 -19.5 -3t-24 -2t-23 -1.5t-14.5 -0.5q4 -3 12 -9.5t17.5 -14t18 -15.5t13.5 -14q12 -13 10.5 -22.5t-9.5 -14.5t-17 -4t-18 16q-4 6 -8.5 17l-9 22t-8 21t-5.5 15q-2 -5 -5.5 -15t-8 -21l-9 -22t-8.5 -17q-9 -15 -18.5 -16
t-16.5 4q-8 5 -9.5 14.5t10.5 22.5q5 6 14 14t18 15.5t17.5 14t11.5 9.5q-5 0 -15 0.5t-22.5 1.5t-24.5 2t-19 3q-17 4 -21 12.5t-2 17.5q4 8 12 13t24 -2q7 -3 17.5 -9.5l21 -13t19 -12.5t11.5 -8q-1 3 -3.5 13t-5.5 22.5t-6 24.5t-4 20q-1 17 6 24t16 7t16 -7t5 -24
q-1 -8 -3.5 -20t-5.5 -24.5t-6 -22.5t-4 -13q4 2 12.5 8t19 12.5l21 13t17.5 9.5q16 7 24.5 2t10.5 -13z" />
    <glyph glyph-name="plus" unicode="+" horiz-adv-x="371" 
d="M195 195h-18v146h-147v18h147v147h18v-147h146v-18h-146v-146z" />
    <glyph glyph-name="comma" unicode="," horiz-adv-x="169" 
d="M95 105l40 -39q9 -11 0 -21l-35 -34q-3 -16 -14.5 -30.5t-38.5 -14.5v11q15 0 20 10t5 21l-37 37q-5 5 -5 10.5t5 10.5l39 39q10 10 21 0z" />
    <glyph glyph-name="hyphen" unicode="-" horiz-adv-x="370" 
d="M340 359v-18h-310v18h310z" />
    <glyph glyph-name="period" unicode="." horiz-adv-x="170" 
d="M95 106l40 -41q11 -9 0 -20l-40 -40q-5 -5 -10.5 -5t-9.5 5l-41 40q-9 11 0 20l41 41q9 9 20 0z" />
    <glyph glyph-name="slash" unicode="/" horiz-adv-x="390" 
d="M342 698h18l-313 -698h-17z" />
    <glyph glyph-name="zero" unicode="0" horiz-adv-x="506" 
d="M253 701q40 0 72 -17.5t57 -46t42.5 -65t29 -75.5t17 -77.5t5.5 -70.5q0 -48 -12.5 -109t-39 -115.5t-69 -91.5t-102.5 -37t-102.5 37t-69 91.5t-39 115.5t-12.5 109q0 32 5.5 70.5t17 77.5t29 75.5t42.5 65t57 46t72 17.5zM253 4q35 0 62 29.5t44.5 78t26.5 110.5t9 127
t-9 127t-26.5 110.5t-44.5 78t-62 29.5q-37 0 -64.5 -29.5t-46 -78t-28 -110.5t-9.5 -127t9.5 -127t28 -110.5t46 -78t64.5 -29.5z" />
    <glyph glyph-name="one" unicode="1" horiz-adv-x="242" 
d="M30 537v12l63 72l66 77h11l-16 -18l9 10v-600q1 -15 4.5 -29.5t10 -26.5t15 -19t19.5 -7v-8h-163v8q10 0 18.5 7t15 19t10 26.5t4.5 29.5v439q0 14 -6 21.5t-15.5 9t-20.5 -3.5t-21 -15z" />
    <glyph glyph-name="two" unicode="2" horiz-adv-x="526" 
d="M496 121l-87 -121h-379q32 30 65 66t63 74q35 42 68 87.5t64 90.5q28 42 45 77.5t25 65.5q9 34 7.5 60t-11.5 46q-11 23 -30 37t-42 21q-43 12 -90 3q-48 -9 -83 -38q-21 -17 -33.5 -39.5t-14.5 -50.5h-8q2 57 25 97t58 65q31 22 68 33l12 3h105q28 -7 51.5 -21t39.5 -36
q21 -29 23 -67t-9 -80q-14 -51 -42.5 -102t-61.5 -92q-33 -42 -69.5 -82.5t-73.5 -78.5q-18 -20 -36 -38t-36 -35h231q18 0 39.5 3.5t42 10.5t38 17t26.5 23z" />
    <glyph glyph-name="three" unicode="3" horiz-adv-x="467" 
d="M228 353q34 -1 70.5 -8.5t67.5 -27t51 -55t20 -92.5q0 -44 -18.5 -77.5t-49.5 -57.5q-16 -12 -34 -21t-38 -16q-39 -12 -82 -12h-11q-29 -2 -57 6q-31 8 -59 26t-51 48l6 5q29 -38 71.5 -56.5t89.5 -20.5q23 0 47 8q50 16 82 57q17 21 26.5 49t9.5 62q0 57 -16 91.5
t-40 53t-53 24.5t-56 6h-17t-15 -1q-7 0 -13 -0.5t-13 -0.5h-3v8h5q34 1 62 12t49 30q26 22 42.5 51.5t22.5 61.5q10 47 -1.5 79t-36.5 49q-24 16 -55 21q-32 3 -64 -6q-45 -14 -82.5 -51t-46.5 -100l-8 1q8 49 26 85t44 61q29 29 64.5 43t70.5 14q54 -1 91 -28t54 -68
q14 -35 13 -73q-2 -39 -19 -74q-18 -36 -54 -64.5t-92 -41.5z" />
    <glyph glyph-name="four" unicode="4" horiz-adv-x="536" 
d="M354 616l-269 -394h269v394zM402 700h9h9v-478h86l-52 -66h-34v-67q1 -15 4.5 -29.5t10 -26t15 -19t18.5 -7.5v-7h-162v7q10 0 18.5 7.5t15 19t10 26t4.5 29.5v67h-324q94 137 186 272t186 272z" />
    <glyph glyph-name="five" unicode="5" horiz-adv-x="473" 
d="M385 632h-202l-97 -183h18.5h22.5t20 0.5t11 0.5q8 0 17 0.5t18 0.5h9q34 0 76 -13.5t78.5 -42t61.5 -72.5t25 -105q0 -52 -19.5 -95t-52.5 -73.5t-78 -47.5t-96 -16q-50 1 -93 21t-74 59l6 5q29 -38 71.5 -58t89.5 -19q43 1 76.5 21t56 51.5t34 71t11.5 80.5
q0 57 -17.5 99.5t-44 70t-57.5 41.5t-58 14q-11 0 -21 -0.5t-19 -0.5h-12t-22 -0.5t-24 -0.5h-18h-9l136 257h228z" />
    <glyph glyph-name="six" unicode="6" horiz-adv-x="498" 
d="M463 685h-8q-63 -2 -126 -32.5t-112 -87.5q-28 -32 -49.5 -84.5t-35.5 -114.5q11 9 22 17.5t23 16.5q26 16 55 25.5t61 9.5q60 0 100.5 -37t59.5 -91q15 -42 15 -89q0 -44 -16 -90q-21 -55 -70 -93t-130 -39h-2q-67 0 -113 30.5t-71.5 79t-32 109.5t5 123.5t41 120.5
t74.5 101q34 31 72.5 55.5t78 41.5t78 26t72.5 10h8v-8zM129 351q-11 -60 -12 -121t11.5 -110.5t40 -81.5t73.5 -34h11q49 1 79 38.5t44 91.5q5 21 7.5 42.5t3.5 43.5q0 44 -9 83q-11 48 -34.5 79.5t-58.5 31.5v-1q-31 0 -59 -7.5t-52 -21.5q-13 -7 -24 -15.5t-21 -17.5z
" />
    <glyph glyph-name="seven" unicode="7" horiz-adv-x="504" 
d="M228 0h-70l243 690h-185q-73 0 -113 -35t-65 -113l-8 2l31 103l15 51h398z" />
    <glyph glyph-name="eight" unicode="8" horiz-adv-x="458" 
d="M263 389q59 -35 96 -77t54 -87q19 -51 13.5 -95t-31 -76t-68 -50.5t-96.5 -18.5h-2q-33 0 -68.5 8.5t-64.5 29.5q-23 17 -39.5 42t-22.5 61q-8 41 2.5 73.5t34.5 61.5q17 20 40 39t52 38l-6 3q-44 23 -75.5 59.5t-44 79t-3 87t46.5 82.5q23 23 55 37.5t70 14.5h15
q37 0 69.5 -12t57.5 -32q27 -22 42.5 -50t15.5 -57q0 -31 -9 -53t-26 -39t-42 -32t-57 -33zM229 -7h2q41 0 69 13.5t42 36.5t13.5 54t-16.5 67q-20 44 -60.5 88t-103.5 79q-35 -32 -55 -74q-15 -33 -19 -66.5t4 -62.5q11 -39 23.5 -64.5t28.5 -41.5t34 -22.5t38 -6.5z
M218 693h-12q-40 0 -69 -23.5t-36 -63.5q-6 -34 4.5 -65t31.5 -57t48.5 -47t54.5 -35l13 -7q15 11 28 21.5t23 23.5q17 21 25.5 47.5t8.5 62.5q0 27 -4.5 53t-18.5 46q-13 20 -35.5 32t-58.5 13h-2z" />
    <glyph glyph-name="nine" unicode="9" horiz-adv-x="497" 
d="M34 4h9q63 2 125.5 32.5t112.5 87.5q27 32 49 85t35 114q-10 -9 -21 -17.5t-24 -16.5q-26 -16 -55 -25.5t-60 -9.5q-60 0 -101 37t-59 91q-15 42 -15 89q0 48 16 90q21 55 70 93t130 39h2q67 -1 112.5 -31t71.5 -78.5t32.5 -109.5t-5.5 -123.5t-41.5 -120.5t-74.5 -101
q-33 -32 -71.5 -56t-78 -41t-78 -26t-72.5 -10h-9v8zM368 338q12 60 13 121t-11.5 110.5t-40.5 81.5t-74 34h-10q-49 -1 -79.5 -38.5t-44.5 -91.5q-5 -20 -7.5 -42t-2.5 -43q0 -22 1.5 -43t6.5 -41q11 -48 34.5 -79t59.5 -31q31 0 59 7.5t52 21.5q13 7 23.5 15.5t20.5 17.5z
" />
    <glyph glyph-name="colon" unicode=":" horiz-adv-x="170" 
d="M95 106l40 -41q11 -9 0 -20l-40 -40q-5 -5 -10.5 -5t-9.5 5l-41 40q-9 11 0 20l41 41q9 9 20 0zM95 433l40 -41q11 -9 0 -20l-40 -40q-5 -5 -10.5 -5t-9.5 5l-41 40q-9 11 0 20l41 41q9 9 20 0z" />
    <glyph glyph-name="semicolon" unicode=";" horiz-adv-x="171" 
d="M96 433l40 -41q11 -9 0 -20l-40 -40q-5 -5 -10.5 -5t-9.5 5l-41 40q-9 11 0 20l41 41q9 9 20 0zM140 57v-4q0 -24 -3 -42t-12 -30t-26.5 -17.5t-46.5 -5.5v11q32 0 41.5 12.5t11.5 32.5l-9 -9q-5 -5 -10.5 -5t-10.5 5l-40 40q-11 11 0 20l40 41q10 9 21 0l40 -41
q4 -4 4 -8z" />
    <glyph glyph-name="less" unicode="&#x3c;" horiz-adv-x="574" 
d="M544 66l-514 202v69l514 202v-69l-426 -167l426 -167v-70z" />
    <glyph glyph-name="equal" unicode="=" horiz-adv-x="371" 
d="M341 395v-18h-311v18h311zM341 324v-18h-311v18h311z" />
    <glyph glyph-name="greater" unicode="&#x3e;" horiz-adv-x="574" 
d="M30 136l426 167l-426 167v69l514 -202v-69l-514 -202v70z" />
    <glyph glyph-name="question" unicode="?" horiz-adv-x="481" 
d="M189 175h-7q0 45 1.5 82t8.5 66t21.5 51t41.5 37q55 26 88 57t46.5 62.5t8.5 60.5t-25.5 51.5t-55.5 36t-81 13.5q-36 0 -75.5 -14.5t-69.5 -49.5q-23 -27 -38 -67.5t-15 -98.5h-8v224h8v-71q3 -6 10 -3.5t17.5 10t23.5 18.5t28 22q28 20 59 29t60 9q61 0 106 -19.5
t71.5 -51t34.5 -71.5t-5.5 -80t-49 -76.5t-95.5 -61.5l-1 -1q-57 -22 -82.5 -62t-25.5 -102zM200 72l29 -29q7 -7 0 -15l-29 -28q-7 -7 -14 0l-29 28q-7 8 0 15l29 29q7 7 14 0z" />
    <glyph glyph-name="at" unicode="@" horiz-adv-x="1433" 
d="M1062 618q-37 -80 -70 -156q-15 -32 -30 -66.5t-30 -67t-29 -62t-25 -52.5q-21 -43 -26.5 -72t1 -47t23 -25.5t40.5 -5.5q40 2 87.5 21.5t97.5 62.5t99.5 112t93.5 171q52 121 50.5 218t-43.5 166.5t-117.5 110.5t-170.5 52t-203 -10t-215 -75.5t-206 -144.5t-177 -217
q-81 -133 -109.5 -245.5t-16.5 -203.5t59.5 -159.5t118.5 -113t160 -64t184 -13.5t190.5 39.5t179.5 95.5l7 -16q-80 -62 -176.5 -95t-196 -39t-196 14.5t-175 66.5t-133 117.5t-71.5 167.5t11 215t114 261q62 103 141.5 181t169 133t184 87.5t187 43t178 0t157 -41t124 -80
t78 -117t21 -153t-48.5 -187.5q-35 -80 -77 -139t-87 -101t-90 -69t-85 -42t-73 -21t-53 -6q-31 0 -57 8.5t-38 32t-5 65t42 107.5l10 20q-29 -40 -63 -79.5t-73.5 -72t-84 -54t-92.5 -26.5q-58 -6 -101 10.5t-66 53.5t-22.5 93.5t30.5 130.5q33 80 86 148t115 117.5
t128.5 78t125.5 30.5q19 1 36 0q51 -5 82 -23.5t43 -47.5q20 -46 78 -21zM954 524l3 7q13 30 15 53t-3 40.5t-16 30t-24 20.5q-31 19 -78 24q-36 3 -85.5 -8t-102 -42.5t-102.5 -85t-87 -134.5q-33 -73 -44.5 -140t-0.5 -117t45.5 -77t92.5 -19q42 5 84.5 31.5t83 65.5
t76 85.5t63.5 92.5q22 46 43 91.5t36 80.5z" />
    <glyph glyph-name="A" unicode="A" horiz-adv-x="772" 
d="M400 698l239 -563q26 -61 54.5 -94t48.5 -33v-8h-163v8h4q20 0 19 24t-19 68l-135 316l-270 -204l-43 -94q-24 -53 -23 -81.5t15 -28.5v-8h-97v8q17 0 40.5 18.5t46.5 69.5l240 535q-11 16 -25 29q-12 11 -28.5 20.5t-36.5 9.5v8h133zM445 423l-84 198l-177 -394z
M370 221l52 -52q6 -5 6 -13t-6 -14l-52 -52q-5 -5 -13 -5t-13 5l-52 52q-6 6 -6 14t6 13l52 52q5 5 13 5t13 -5z" />
    <glyph glyph-name="B" unicode="B" horiz-adv-x="581" 
d="M494 534q0 -48 -13 -78t-35.5 -49t-51.5 -30t-60 -19h7q27 0 54 -4.5t52 -15.5t46 -27.5t35 -41.5q32 -56 20 -113.5t-63 -97.5q-20 -16 -43.5 -27t-47 -18t-45.5 -10t-40 -3h-279v8q10 0 19 7t15.5 19t10 26.5t4.5 29.5v135h-1l1 1v382q-1 15 -4.5 29.5t-10 26.5
t-15.5 19t-19 7v8h280q34 -1 69 -12t63 -34t40.5 -54.5t11.5 -63.5zM288 346q-16 -5 -31.5 -10t-30.5 -12q-15 -8 -28.5 -16.5t-24.5 -16.5v-1l-29 -21v-179q1 -15 5 -29.5t10.5 -26.5t15 -19t18.5 -7h116q32 0 65 15t59 42q20 21 32.5 47t16 54t-1.5 55.5t-20 53.5
q-11 20 -27 34t-34 22q-34 17 -80 17q-8 0 -15 -0.5t-15 -1.5h-1zM168 296q0 1 0.5 1t0.5 1q18 16 47.5 31t53.5 21q33 12 61.5 21.5t50 27.5t34 49t12.5 86q1 36 -7.5 69t-25.5 53q-30 34 -86 34h-116q-10 0 -18.5 -7t-15 -19t-10.5 -26.5t-5 -29.5v-329z" />
    <glyph glyph-name="C" unicode="C" horiz-adv-x="703" 
d="M386 4q71 0 134 20t110 44t74.5 44l27.5 20l5 -5l-13 -10t-36 -24.5t-55 -31.5t-71 -31.5t-83.5 -24t-92.5 -9.5q-85 0 -145 26.5t-101 66.5q-33 33 -54.5 70.5t-33.5 73.5t-17 66.5t-5 48.5v3q0 81 28.5 145.5t78 109.5t117.5 68.5t147 23.5h1q40 -3 79 -8
q33 -5 68.5 -14t61.5 -23l7 2l46 -156l-7 -3l-3 10q-15 47 -46.5 82t-68.5 57.5t-74 33.5t-63 11h-1q-72 0 -128.5 -27.5t-95.5 -74t-59.5 -108t-20.5 -129.5v-3q0 -18 4 -48t14 -65t27.5 -72t44.5 -69q32 -39 81 -64.5t118 -25.5zM416 409l52 -52q6 -5 6 -13t-6 -14
l-52 -52q-5 -5 -13 -5t-13 5l-52 52q-6 6 -6 14t6 13l52 52q5 5 13 5t13 -5z" />
    <glyph glyph-name="D" unicode="D" horiz-adv-x="671" 
d="M310 698q70 -2 130.5 -30.5t105 -76.5t70 -110.5t25.5 -131.5q0 -70 -26 -133t-71 -111t-105.5 -76.5t-129.5 -28.5h-279v8q10 0 19 7t15 19t10 26.5t5 29.5v518q-1 15 -5 29.5t-10 26.5t-15 19t-19 7v8h280zM470 437q14 9 23 20q29 29 31 60q1 10 -1 19t-6 19l-22 32
q-1 2 -2 2.5t-3 2.5v1q-33 42 -78.5 68.5t-102.5 28.5h-116q-10 0 -18.5 -7t-15 -19t-10.5 -26.5t-5 -29.5v-461q8 23 24 47q15 20 34 38t41 34zM532 528v-11q-2 -17 -9.5 -33t-24.5 -33q-5 -5 -10.5 -10t-12.5 -10l-228 -171q-21 -15 -39.5 -33t-32.5 -38
q-14 -19 -22 -40.5t-9 -44.5v-14q1 -15 5 -29.5t10.5 -26.5t15 -19t18.5 -7h116q64 0 113 31.5t83 81t51.5 110t17.5 118.5q0 45 -11 91t-31 88z" />
    <glyph glyph-name="E" unicode="E" horiz-adv-x="549" 
d="M400 486v-161h-7v21q-1 11 -5 23.5t-13 21t-24.5 8.5t-40.5 -15l-62 -43q-20 -14 -38 -30.5t-32.5 -36t-23.5 -42t-10 -47.5v-95q1 -15 5 -29.5t10.5 -26.5t15 -19t18.5 -7h140q37 0 64.5 8.5t49 26.5t37 46t28.5 67l7 -2l-30 -103l-15 -51h-444v8q10 0 19 7t15.5 19
t10 26.5t4.5 29.5v518q-1 15 -4.5 29.5t-10 26.5t-15.5 19t-19 7v8h444l15 -51l30 -103l-7 -2q-13 39 -28.5 67t-37 46t-49 26.5t-64.5 8.5h-140q-10 0 -18.5 -7t-15 -19t-10.5 -26.5t-5 -29.5v-380q13 37 40 67t59 52l80 55q19 16 35 32q13 14 24 28t11 24h7z" />
    <glyph glyph-name="F" unicode="F" horiz-adv-x="549" 
d="M400 486v-161h-7v21q-1 11 -4.5 23.5t-12.5 21t-25 8.5t-41 -15l-62 -43q-20 -14 -38 -30.5t-32.5 -36t-23.5 -42t-9 -47.5v-95q1 -15 4.5 -29.5t10 -26.5t15 -19t18.5 -7v-8h-163v8q10 0 19 7t15.5 19t10 26.5t4.5 29.5v518q-1 15 -4.5 29.5t-10 26.5t-15.5 19t-19 7v8
h444l15 -51l30 -103l-7 -2q-13 39 -28.5 67t-37 46t-49 26.5t-64.5 8.5h-140q-10 0 -18.5 -7t-15 -19t-10 -26.5t-4.5 -29.5v-380q12 37 39 67t59 52l80 55q19 16 35 32q13 14 24 28t11 24h7z" />
    <glyph glyph-name="G" unicode="G" horiz-adv-x="719" 
d="M109 257l3 -6q13 -32 38 -40q12 -5 25 -4t27 6q21 7 42 19.5t39 26.5h1l163 123l45 34h13q-17 -13 -9.5 -23.5t27.5 -10.5h132v-194q0 -58 21.5 -70t55.5 14l5 -5q-1 -1 -31 -22.5t-81 -47.5q-48 -23 -109 -42t-130 -19q-85 0 -145 26.5t-101 66.5q-33 33 -54.5 70.5
t-33.5 73.5t-17 66.5t-5 48.5v3q0 81 28.5 145.5t78 109.5t117.5 68.5t147 23.5h1q40 -3 79 -8q33 -5 68.5 -14t61.5 -23l7 2l46 -156l-7 -3l-3 10q-15 47 -46.5 82t-68.5 57.5t-74 33.5t-63 11h-1q-73 0 -129.5 -27.5t-95.5 -74.5t-59 -109t-20 -130q0 -15 2.5 -39t9.5 -53
zM288 253q-19 -15 -40 -27.5t-43 -20.5q-32 -10 -57 -1q-17 4 -30 21q11 -33 27.5 -67.5t41.5 -63.5q32 -39 81 -64.5t118 -25.5q57 0 108.5 13t95.5 32v325h-141z" />
    <glyph glyph-name="H" unicode="H" horiz-adv-x="660" 
d="M467 698h163v-8q-10 0 -18.5 -7t-15 -19t-10 -26.5t-4.5 -29.5v-519q1 -15 4.5 -29.5t10 -26.5t15 -19t18.5 -7v-7h-163v7q10 0 19 7t15.5 19t10 26.5t4.5 29.5v377l-372 -279v-98q1 -15 4.5 -29.5t10 -26.5t15 -19t18.5 -7v-7h-162v7q10 0 18.5 7t15 19t10 26.5
t4.5 29.5v519q-1 15 -4.5 29.5t-10 26.5t-15 19t-18.5 7v8h162v-8q-10 0 -18.5 -7t-15 -19t-10 -26.5t-4.5 -29.5v-412l372 280v132q-1 15 -4.5 29.5t-10 26.5t-15.5 19t-19 7v8z" />
    <glyph glyph-name="I" unicode="I" horiz-adv-x="223" 
d="M30 698h163v-8q-11 0 -19.5 -7t-15 -19t-10 -26.5t-4.5 -29.5v-519q1 -15 4.5 -29.5t10 -26.5t15 -19t19.5 -7v-7h-163v7q10 0 18.5 7t15 19t10 26.5t4.5 29.5v519q-1 15 -4.5 29.5t-10 26.5t-15 19t-18.5 7v8z" />
    <glyph glyph-name="J" unicode="J" horiz-adv-x="365" 
d="M286 266q-1 -90 -25.5 -146t-62.5 -89t-82.5 -48t-84.5 -23l-1 8q39 8 73.5 22t60.5 46t41 86.5t15 143.5v342q-1 15 -4.5 29.5t-10 26.5t-15 19t-18.5 7v8h163v-8q-11 0 -19.5 -7t-15 -19t-10 -26.5t-4.5 -29.5v-342z" />
    <glyph glyph-name="K" unicode="K" horiz-adv-x="660" 
d="M452 698h163v-8q-73 0 -167 -70l-109 -81l182 -397q13 -29 27.5 -53.5t29 -42.5t27.5 -28.5t25 -10.5v-7h-163v7q17 0 19 25.5t-22 77.5l-178 389l-142 -107v-303q1 -15 4.5 -29.5t10 -26.5t15 -19t19.5 -7v-7h-163v7q10 0 18.5 7t15 19t10 26.5t4.5 29.5v519
q-1 15 -4.5 29.5t-10 26.5t-15 19t-18.5 7v8h163v-8q-11 0 -19.5 -7t-15 -19t-10 -26.5t-4.5 -29.5v-206l299 224q11 8 23 19t17 21t-0.5 17t-30.5 7v8z" />
    <glyph glyph-name="L" unicode="L" horiz-adv-x="549" 
d="M333 7q73 0 113 35.5t65 113.5l8 -2l-31 -103l-15 -51h-443v7q10 0 18.5 7t15 19t10 26.5t4.5 29.5v519q-1 15 -4.5 29.5t-10 26.5t-15 19t-18.5 7v8h163v-8q-11 0 -19.5 -7t-15 -19t-10 -26.5t-4.5 -29.5v-519q1 -15 4.5 -29.5t10 -26.5t15 -19t19.5 -7h140z" />
    <glyph glyph-name="M" unicode="M" horiz-adv-x="824" 
d="M136 700l285 -616l248 595q-6 14 -21 14v7h146v-7q-11 0 -19.5 -7.5t-15 -19t-10 -26.5t-4.5 -30v-520q1 -15 4.5 -30t10 -26.5t15 -19t19.5 -7.5v-7h-164v7q10 0 19 7.5t15.5 19t10 26.5t4.5 30v511q0 18 -0.5 36t-5.5 32l-248 -594l35 -75h-66l-1 -2l-3 2h-3v1h-1v1
l-303 658v-577q2 -29 13 -52.5t31 -23.5v-7h-97v7q20 0 31.5 23.5t13.5 52.5v594l-11 23h72z" />
    <glyph glyph-name="N" unicode="N" horiz-adv-x="694" 
d="M588 96l76 -96h-84l-464 589v-506q2 -29 13 -52.5t31 -23.5v-7h-97v7q20 0 31.5 23.5t13.5 52.5v516l-78 99h86v-3l464 -589v508q-2 29 -13 52.5t-31 23.5v8h96v-8q-20 0 -31 -23.5t-13 -52.5v-518z" />
    <glyph glyph-name="O" unicode="O" horiz-adv-x="734" 
d="M367 -20q-75 0 -137 31t-106.5 82.5t-69 118.5t-24.5 138t24.5 137.5t69 118t106.5 82.5t137 31t137 -31t106.5 -82.5t69 -118t24.5 -137.5t-24.5 -138t-69 -118.5t-106.5 -82.5t-137 -31zM367 711h-4q-66 -1 -116 -36t-83.5 -88t-50.5 -116t-17 -121t17 -121.5
t50.5 -116.5t83.5 -88t116 -36h4q67 0 118 34.5t85 88t51 117t17 122.5q0 58 -17 121.5t-51 117t-85 88t-118 34.5zM380 409l52 -52q6 -6 6 -14t-6 -13l-52 -52q-5 -5 -13 -5t-13 5l-52 52q-5 5 -5 13t5 14l52 52q5 5 13 5t13 -5z" />
    <glyph glyph-name="P" unicode="P" horiz-adv-x="524" 
d="M493 533q0 -53 -16.5 -85t-43 -50.5t-61 -28.5t-70 -19.5t-69.5 -22.5t-61 -37l-28 -21v-180q1 -15 4.5 -29.5t10 -26.5t15 -19t19.5 -7v-7h-163v7q10 0 18.5 7t15 19t10 26.5t4.5 29.5v519q-1 15 -4.5 29.5t-10 26.5t-15 19t-18.5 7v8h280q33 -1 68.5 -12.5t62.5 -34.5
q28 -23 41 -54t11 -64zM167 296q32 25 63.5 38.5t60.5 23t54 19.5t43.5 28t29 48t10.5 80v1q1 35 -7.5 68t-25.5 53q-29 33 -86 35h-116q-11 0 -19.5 -7t-15 -19t-10 -26.5t-4.5 -29.5v-330z" />
    <glyph glyph-name="Q" unicode="Q" horiz-adv-x="734" 
d="M704 350q0 -71 -24.5 -138t-69 -118.5t-106.5 -82.5t-137 -31q-5 0 -9.5 0.5t-9.5 0.5h-30q-42 0 -72 -8.5t-49.5 -21t-29.5 -28.5t-10 -31q-1 -32 17.5 -43.5t45 -11.5t54.5 8t45 14q14 5 28.5 10.5t30.5 12.5q91 40 148 50.5t86 2.5q33 -9 31 -35q-3 -24 -35 -47
q-10 -7 -22 -13.5t-27 -11.5q-26 -15 -75.5 -18.5t-123.5 16.5l2 7q60 -16 108.5 -13.5t84.5 15.5l4 2q23 14 23 34q-2 18 -25 28q-23 11 -67 7.5t-109 -31.5l-54 -22q-16 -6 -39 -13t-49 -12.5t-52 -7.5t-47.5 4.5t-35.5 22.5t-15 45q-2 30 20 48.5t54.5 29t68.5 14.5t63 5
q-60 14 -108.5 48.5t-83.5 83.5t-54 108t-19 121q0 71 25 137.5t69.5 118t106.5 82.5t136 31q75 0 137 -31t106.5 -82.5t69 -118t24.5 -137.5zM367 712h-4q-66 -2 -116 -37t-83.5 -88t-50.5 -116t-17 -121q0 -57 16 -119t48.5 -114.5t80.5 -88t112 -39.5q5 -1 9 -1h9h3
q66 2 115.5 37.5t82.5 88t49.5 115.5t16.5 121q0 39 -7.5 81t-22.5 82t-38 76.5t-53 63.5t-67.5 43t-82.5 16zM380 409l53 -52q12 -14 0 -27l-53 -52q-5 -5 -13 -5t-13 5l-52 52q-12 13 0 27l52 52q5 5 13 5t13 -5z" />
    <glyph glyph-name="R" unicode="R" horiz-adv-x="570" 
d="M494 534q0 -48 -13 -78.5t-35.5 -49.5t-51.5 -30t-61 -19l99 -215q13 -29 27 -53.5t28.5 -42.5t27.5 -28.5t25 -10.5v-7h-163v7q18 0 19.5 25.5t-22.5 77.5l-105 230q-26 -8 -51 -19.5t-45 -30.5l-28 -21v-179q1 -15 4.5 -30t10 -26.5t15 -19t18.5 -7.5v-7h-163v7
q10 0 19 7.5t15.5 19t10 26.5t4.5 30v518q-1 15 -4.5 29.5t-10 26.5t-15.5 19t-19 7v8h281q33 -1 68 -12t63 -34t41 -54.5t11 -63.5zM168 296q33 26 65.5 39.5t61.5 23.5q28 9 52.5 19t42.5 28t28 48t10 80h1q1 35 -8 68.5t-26 53.5q-14 17 -35.5 25t-49.5 9h-117
q-10 0 -18.5 -7t-15 -19t-10 -26.5t-4.5 -29.5v-329z" />
    <glyph glyph-name="S" unicode="S" horiz-adv-x="519" 
d="M432 698h8v-224h-8q0 57 -15 98t-38 68q-30 35 -69.5 49.5t-75.5 14.5q-38 0 -69.5 -14.5t-51.5 -39.5t-24.5 -57.5t12.5 -69.5q18 -38 55.5 -64t82.5 -48.5t92 -44.5t84 -51.5t58 -71.5t14 -103q-4 -41 -25 -69.5t-51.5 -46.5t-67.5 -26t-74 -8q-23 0 -48 4t-49 12
q-21 5 -43.5 21.5t-40.5 29t-30 13.5t-12 -25v-45h-8v224h8q0 -60 15.5 -100t41.5 -66q35 -35 79.5 -47.5t86.5 -12.5q28 0 53 10.5t44.5 29t31 43.5t11.5 53q0 60 -28 95t-70 58t-91.5 41t-91.5 43.5t-70 66t-28 108.5q0 40 18.5 71t48 52t66 32t71.5 11q29 0 60 -9t59 -29
q15 -11 28 -22t23.5 -18.5t17.5 -10t10 3.5v71z" />
    <glyph glyph-name="T" unicode="T" horiz-adv-x="671" 
d="M176 690q-49 0 -83.5 -28t-51.5 -79l-3 -11l-8 2q10 31 19 61.5t18 62.5h535q11 -32 20 -62t19 -62l-7 -2l-4 11q-17 51 -51.5 79t-83.5 28h-78q-10 0 -18.5 -7t-15 -19t-10.5 -26.5t-5 -29.5v-518q1 -15 5 -30t10.5 -26.5t15 -19t18.5 -7.5v-7h-163v7q10 0 19 7.5
t15.5 19t10 26.5t4.5 30v518q-1 15 -4.5 29.5t-10 26.5t-15.5 19t-19 7h-78z" />
    <glyph glyph-name="U" unicode="U" horiz-adv-x="657" 
d="M583 355q0 -58 -7 -122t-30 -118.5t-67 -90.5t-118 -37q-78 -2 -132 30.5t-87 85.5t-48 119.5t-15 132.5v253q-1 15 -5 29.5t-10.5 26.5t-15 19t-18.5 7v8h163v-8q-11 0 -19.5 -7t-14.5 -19t-10 -26.5t-5 -29.5v-253q0 -38 3 -79.5t11 -81.5t23.5 -76t41 -62.5t62 -42
t87.5 -13.5q66 2 106 37t61.5 86.5t28.5 113.5t7 118v259q-2 29 -13 52.5t-31 23.5v8h96v-8q-20 0 -31 -23.5t-13 -52.5v-259z" />
    <glyph glyph-name="V" unicode="V" horiz-adv-x="770" 
d="M133 563q-16 35 -34 63q-15 23 -33 43t-36 20v7h163v-7h-4q-20 0 -19 -24.5t19 -67.5l221 -521l225 502q24 54 23 82.5t-14 28.5v7h96v-7q-17 0 -40 -18.5t-46 -69.5q-68 -152 -135 -301t-135 -300h-8z" />
    <glyph glyph-name="W" unicode="W" horiz-adv-x="934" 
d="M593 0l-128 375l-137 -375h-8l-197 576q-12 34 -23 56t-22 35t-23 18t-25 5v8h163v-8h-3q-10 0 -16 -4t-6.5 -14t3.5 -28.5t14 -46.5l171 -499l105 288l-65 190q-12 34 -23 56t-22 35t-23 18t-25 5v8h163v-8h-3q-10 0 -16 -4t-6.5 -14t3.5 -28.5t14 -46.5l39 -113l35 96
q22 64 20 87t-18 23v8h97v-8q-20 0 -37.5 -11t-31.5 -37l-61 -169l128 -375l176 482q22 64 20 87t-18 23v8h97v-8q-20 0 -37 -11t-31 -37l-235 -642h-8z" />
    <glyph glyph-name="X" unicode="X" horiz-adv-x="686" 
d="M30 8q29 0 52.5 25t49.5 60l2 3l180 242l-190 288q-24 37 -45.5 51t-43.5 14v8h163v-8q-11 0 -15 -5t-3 -13t6.5 -19t13.5 -23l155 -237l171 230q25 35 27.5 51t-26.5 16v8h97v-8q-29 0 -53 -25t-50 -60l-161 -218l206 -315q24 -37 46 -51t44 -14v-7h-163v7q22 0 18 18
t-20 42l-173 263l-190 -256q-26 -34 -28 -50.5t27 -16.5v-8h-97v8z" />
    <glyph glyph-name="Y" unicode="Y" horiz-adv-x="732" 
d="M442 7v-7h-163v7q10 0 19 7.5t15 19t10 26.5t5 30v219l-208 316q-24 37 -46 51t-44 14v8h163v-8q-22 0 -18 -18t20 -42l133 -202l61 -94l214 289q26 35 28.5 51t-26.5 16v8h97v-8q-29 0 -53 -25t-50 -60l-206 -278v-237q1 -15 5 -30t10.5 -26.5t15 -19t18.5 -7.5z" />
    <glyph glyph-name="Z" unicode="Z" horiz-adv-x="630" 
d="M388 7q37 0 65 8.5t49 27t37 46.5t28 67l7 -2l-30 -103l-15 -51h-499l484 690h-255q-37 0 -64.5 -8.5t-49 -26.5t-37 -46t-28.5 -67l-7 2l30 103l15 51h482l-485 -691h273z" />
    <glyph glyph-name="bracketleft" unicode="[" horiz-adv-x="174" 
d="M30 855h114v-8h-48v-994h48v-8h-114v1010z" />
    <glyph glyph-name="backslash" unicode="\" horiz-adv-x="390" 
d="M360 0h-17l-313 698h18z" />
    <glyph glyph-name="bracketright" unicode="]" horiz-adv-x="174" 
d="M144 -155h-114v8h48v994h-48v8h114v-1010z" />
    <glyph glyph-name="asciicircum" unicode="^" horiz-adv-x="219" 
d="M189 652l-1 -10l-78 125l-78 -125l-2 10l80 194z" />
    <glyph glyph-name="underscore" unicode="_" horiz-adv-x="686" 
d="M656 -60v-18h-626v18h626z" />
    <glyph glyph-name="grave" unicode="`" horiz-adv-x="234" 
d="M204 669l-3 -5l-171 118l21 43z" />
    <glyph glyph-name="a" unicode="a" horiz-adv-x="772" 
d="M400 698l239 -563q26 -61 54.5 -94t48.5 -33v-8h-163v8h4q20 0 19 24t-19 68l-135 316l-270 -204l-43 -94q-24 -53 -23 -81.5t15 -28.5v-8h-97v8q17 0 40.5 18.5t46.5 69.5l240 535q-11 16 -25 29q-12 11 -28.5 20.5t-36.5 9.5v8h133zM445 423l-84 198l-177 -394z
M370 221l52 -52q6 -5 6 -13t-6 -14l-52 -52q-5 -5 -13 -5t-13 5l-52 52q-6 6 -6 14t6 13l52 52q5 5 13 5t13 -5z" />
    <glyph glyph-name="b" unicode="b" horiz-adv-x="581" 
d="M494 534q0 -48 -13 -78t-35.5 -49t-51.5 -30t-60 -19h7q27 0 54 -4.5t52 -15.5t46 -27.5t35 -41.5q32 -56 20 -113.5t-63 -97.5q-20 -16 -43.5 -27t-47 -18t-45.5 -10t-40 -3h-279v8q10 0 19 7t15.5 19t10 26.5t4.5 29.5v135h-1l1 1v382q-1 15 -4.5 29.5t-10 26.5
t-15.5 19t-19 7v8h280q34 -1 69 -12t63 -34t40.5 -54.5t11.5 -63.5zM288 346q-16 -5 -31.5 -10t-30.5 -12q-15 -8 -28.5 -16.5t-24.5 -16.5v-1l-29 -21v-179q1 -15 5 -29.5t10.5 -26.5t15 -19t18.5 -7h116q32 0 65 15t59 42q20 21 32.5 47t16 54t-1.5 55.5t-20 53.5
q-11 20 -27 34t-34 22q-34 17 -80 17q-8 0 -15 -0.5t-15 -1.5h-1zM168 296q0 1 0.5 1t0.5 1q18 16 47.5 31t53.5 21q33 12 61.5 21.5t50 27.5t34 49t12.5 86q1 36 -7.5 69t-25.5 53q-30 34 -86 34h-116q-10 0 -18.5 -7t-15 -19t-10.5 -26.5t-5 -29.5v-329z" />
    <glyph glyph-name="c" unicode="c" horiz-adv-x="703" 
d="M386 4q71 0 134 20t110 44t74.5 44l27.5 20l5 -5l-13 -10t-36 -24.5t-55 -31.5t-71 -31.5t-83.5 -24t-92.5 -9.5q-85 0 -145 26.5t-101 66.5q-33 33 -54.5 70.5t-33.5 73.5t-17 66.5t-5 48.5v3q0 81 28.5 145.5t78 109.5t117.5 68.5t147 23.5h1q40 -3 79 -8
q33 -5 68.5 -14t61.5 -23l7 2l46 -156l-7 -3l-3 10q-15 47 -46.5 82t-68.5 57.5t-74 33.5t-63 11h-1q-72 0 -128.5 -27.5t-95.5 -74t-59.5 -108t-20.5 -129.5v-3q0 -18 4 -48t14 -65t27.5 -72t44.5 -69q32 -39 81 -64.5t118 -25.5zM416 409l52 -52q6 -5 6 -13t-6 -14
l-52 -52q-5 -5 -13 -5t-13 5l-52 52q-6 6 -6 14t6 13l52 52q5 5 13 5t13 -5z" />
    <glyph glyph-name="d" unicode="d" horiz-adv-x="671" 
d="M310 698q70 -2 130.5 -30.5t105 -76.5t70 -110.5t25.5 -131.5q0 -70 -26 -133t-71 -111t-105.5 -76.5t-129.5 -28.5h-279v8q10 0 19 7t15 19t10 26.5t5 29.5v518q-1 15 -5 29.5t-10 26.5t-15 19t-19 7v8h280zM470 437q14 9 23 20q29 29 31 60q1 10 -1 19t-6 19l-22 32
q-1 2 -2 2.5t-3 2.5v1q-33 42 -78.5 68.5t-102.5 28.5h-116q-10 0 -18.5 -7t-15 -19t-10.5 -26.5t-5 -29.5v-461q8 23 24 47q15 20 34 38t41 34zM532 528v-11q-2 -17 -9.5 -33t-24.5 -33q-5 -5 -10.5 -10t-12.5 -10l-228 -171q-21 -15 -39.5 -33t-32.5 -38
q-14 -19 -22 -40.5t-9 -44.5v-14q1 -15 5 -29.5t10.5 -26.5t15 -19t18.5 -7h116q64 0 113 31.5t83 81t51.5 110t17.5 118.5q0 45 -11 91t-31 88z" />
    <glyph glyph-name="e" unicode="e" horiz-adv-x="549" 
d="M400 486v-161h-7v21q-1 11 -5 23.5t-13 21t-24.5 8.5t-40.5 -15l-62 -43q-20 -14 -38 -30.5t-32.5 -36t-23.5 -42t-10 -47.5v-95q1 -15 5 -29.5t10.5 -26.5t15 -19t18.5 -7h140q37 0 64.5 8.5t49 26.5t37 46t28.5 67l7 -2l-30 -103l-15 -51h-444v8q10 0 19 7t15.5 19
t10 26.5t4.5 29.5v518q-1 15 -4.5 29.5t-10 26.5t-15.5 19t-19 7v8h444l15 -51l30 -103l-7 -2q-13 39 -28.5 67t-37 46t-49 26.5t-64.5 8.5h-140q-10 0 -18.5 -7t-15 -19t-10.5 -26.5t-5 -29.5v-380q13 37 40 67t59 52l80 55q19 16 35 32q13 14 24 28t11 24h7z" />
    <glyph glyph-name="f" unicode="f" horiz-adv-x="549" 
d="M400 486v-161h-7v21q-1 11 -4.5 23.5t-12.5 21t-25 8.5t-41 -15l-62 -43q-20 -14 -38 -30.5t-32.5 -36t-23.5 -42t-9 -47.5v-95q1 -15 4.5 -29.5t10 -26.5t15 -19t18.5 -7v-8h-163v8q10 0 19 7t15.5 19t10 26.5t4.5 29.5v518q-1 15 -4.5 29.5t-10 26.5t-15.5 19t-19 7v8
h444l15 -51l30 -103l-7 -2q-13 39 -28.5 67t-37 46t-49 26.5t-64.5 8.5h-140q-10 0 -18.5 -7t-15 -19t-10 -26.5t-4.5 -29.5v-380q12 37 39 67t59 52l80 55q19 16 35 32q13 14 24 28t11 24h7z" />
    <glyph glyph-name="g" unicode="g" horiz-adv-x="719" 
d="M109 257l3 -6q13 -32 38 -40q12 -5 25 -4t27 6q21 7 42 19.5t39 26.5h1l163 123l45 34h13q-17 -13 -9.5 -23.5t27.5 -10.5h132v-194q0 -58 21.5 -70t55.5 14l5 -5q-1 -1 -31 -22.5t-81 -47.5q-48 -23 -109 -42t-130 -19q-85 0 -145 26.5t-101 66.5q-33 33 -54.5 70.5
t-33.5 73.5t-17 66.5t-5 48.5v3q0 81 28.5 145.5t78 109.5t117.5 68.5t147 23.5h1q40 -3 79 -8q33 -5 68.5 -14t61.5 -23l7 2l46 -156l-7 -3l-3 10q-15 47 -46.5 82t-68.5 57.5t-74 33.5t-63 11h-1q-73 0 -129.5 -27.5t-95.5 -74.5t-59 -109t-20 -130q0 -15 2.5 -39t9.5 -53
zM288 253q-19 -15 -40 -27.5t-43 -20.5q-32 -10 -57 -1q-17 4 -30 21q11 -33 27.5 -67.5t41.5 -63.5q32 -39 81 -64.5t118 -25.5q57 0 108.5 13t95.5 32v325h-141z" />
    <glyph glyph-name="h" unicode="h" horiz-adv-x="660" 
d="M467 698h163v-8q-10 0 -18.5 -7t-15 -19t-10 -26.5t-4.5 -29.5v-519q1 -15 4.5 -29.5t10 -26.5t15 -19t18.5 -7v-7h-163v7q10 0 19 7t15.5 19t10 26.5t4.5 29.5v377l-372 -279v-98q1 -15 4.5 -29.5t10 -26.5t15 -19t18.5 -7v-7h-162v7q10 0 18.5 7t15 19t10 26.5
t4.5 29.5v519q-1 15 -4.5 29.5t-10 26.5t-15 19t-18.5 7v8h162v-8q-10 0 -18.5 -7t-15 -19t-10 -26.5t-4.5 -29.5v-412l372 280v132q-1 15 -4.5 29.5t-10 26.5t-15.5 19t-19 7v8z" />
    <glyph glyph-name="i" unicode="i" horiz-adv-x="223" 
d="M30 698h163v-8q-11 0 -19.5 -7t-15 -19t-10 -26.5t-4.5 -29.5v-519q1 -15 4.5 -29.5t10 -26.5t15 -19t19.5 -7v-7h-163v7q10 0 18.5 7t15 19t10 26.5t4.5 29.5v519q-1 15 -4.5 29.5t-10 26.5t-15 19t-18.5 7v8z" />
    <glyph glyph-name="j" unicode="j" horiz-adv-x="365" 
d="M286 266q-1 -90 -25.5 -146t-62.5 -89t-82.5 -48t-84.5 -23l-1 8q39 8 73.5 22t60.5 46t41 86.5t15 143.5v342q-1 15 -4.5 29.5t-10 26.5t-15 19t-18.5 7v8h163v-8q-11 0 -19.5 -7t-15 -19t-10 -26.5t-4.5 -29.5v-342z" />
    <glyph glyph-name="k" unicode="k" horiz-adv-x="660" 
d="M452 698h163v-8q-73 0 -167 -70l-109 -81l182 -397q13 -29 27.5 -53.5t29 -42.5t27.5 -28.5t25 -10.5v-7h-163v7q17 0 19 25.5t-22 77.5l-178 389l-142 -107v-303q1 -15 4.5 -29.5t10 -26.5t15 -19t19.5 -7v-7h-163v7q10 0 18.5 7t15 19t10 26.5t4.5 29.5v519
q-1 15 -4.5 29.5t-10 26.5t-15 19t-18.5 7v8h163v-8q-11 0 -19.5 -7t-15 -19t-10 -26.5t-4.5 -29.5v-206l299 224q11 8 23 19t17 21t-0.5 17t-30.5 7v8z" />
    <glyph glyph-name="l" unicode="l" horiz-adv-x="549" 
d="M333 7q73 0 113 35.5t65 113.5l8 -2l-31 -103l-15 -51h-443v7q10 0 18.5 7t15 19t10 26.5t4.5 29.5v519q-1 15 -4.5 29.5t-10 26.5t-15 19t-18.5 7v8h163v-8q-11 0 -19.5 -7t-15 -19t-10 -26.5t-4.5 -29.5v-519q1 -15 4.5 -29.5t10 -26.5t15 -19t19.5 -7h140z" />
    <glyph glyph-name="m" unicode="m" horiz-adv-x="824" 
d="M136 700l285 -616l248 595q-6 14 -21 14v7h146v-7q-11 0 -19.5 -7.5t-15 -19t-10 -26.5t-4.5 -30v-520q1 -15 4.5 -30t10 -26.5t15 -19t19.5 -7.5v-7h-164v7q10 0 19 7.5t15.5 19t10 26.5t4.5 30v511q0 18 -0.5 36t-5.5 32l-248 -594l35 -75h-66l-1 -2l-3 2h-3v1h-1v1
l-303 658v-577q2 -29 13 -52.5t31 -23.5v-7h-97v7q20 0 31.5 23.5t13.5 52.5v594l-11 23h72z" />
    <glyph glyph-name="n" unicode="n" horiz-adv-x="694" 
d="M588 96l76 -96h-84l-464 589v-506q2 -29 13 -52.5t31 -23.5v-7h-97v7q20 0 31.5 23.5t13.5 52.5v516l-78 99h86v-3l464 -589v508q-2 29 -13 52.5t-31 23.5v8h96v-8q-20 0 -31 -23.5t-13 -52.5v-518z" />
    <glyph glyph-name="o" unicode="o" horiz-adv-x="734" 
d="M367 -20q-75 0 -137 31t-106.5 82.5t-69 118.5t-24.5 138t24.5 137.5t69 118t106.5 82.5t137 31t137 -31t106.5 -82.5t69 -118t24.5 -137.5t-24.5 -138t-69 -118.5t-106.5 -82.5t-137 -31zM367 711h-4q-66 -1 -116 -36t-83.5 -88t-50.5 -116t-17 -121t17 -121.5
t50.5 -116.5t83.5 -88t116 -36h4q67 0 118 34.5t85 88t51 117t17 122.5q0 58 -17 121.5t-51 117t-85 88t-118 34.5zM380 409l52 -52q6 -6 6 -14t-6 -13l-52 -52q-5 -5 -13 -5t-13 5l-52 52q-5 5 -5 13t5 14l52 52q5 5 13 5t13 -5z" />
    <glyph glyph-name="p" unicode="p" horiz-adv-x="524" 
d="M493 533q0 -53 -16.5 -85t-43 -50.5t-61 -28.5t-70 -19.5t-69.5 -22.5t-61 -37l-28 -21v-180q1 -15 4.5 -29.5t10 -26.5t15 -19t19.5 -7v-7h-163v7q10 0 18.5 7t15 19t10 26.5t4.5 29.5v519q-1 15 -4.5 29.5t-10 26.5t-15 19t-18.5 7v8h280q33 -1 68.5 -12.5t62.5 -34.5
q28 -23 41 -54t11 -64zM167 296q32 25 63.5 38.5t60.5 23t54 19.5t43.5 28t29 48t10.5 80v1q1 35 -7.5 68t-25.5 53q-29 33 -86 35h-116q-11 0 -19.5 -7t-15 -19t-10 -26.5t-4.5 -29.5v-330z" />
    <glyph glyph-name="q" unicode="q" horiz-adv-x="734" 
d="M704 350q0 -71 -24.5 -138t-69 -118.5t-106.5 -82.5t-137 -31q-5 0 -9.5 0.5t-9.5 0.5h-30q-42 0 -72 -8.5t-49.5 -21t-29.5 -28.5t-10 -31q-1 -32 17.5 -43.5t45 -11.5t54.5 8t45 14q14 5 28.5 10.5t30.5 12.5q91 40 148 50.5t86 2.5q33 -9 31 -35q-3 -24 -35 -47
q-10 -7 -22 -13.5t-27 -11.5q-26 -15 -75.5 -18.5t-123.5 16.5l2 7q60 -16 108.5 -13.5t84.5 15.5l4 2q23 14 23 34q-2 18 -25 28q-23 11 -67 7.5t-109 -31.5l-54 -22q-16 -6 -39 -13t-49 -12.5t-52 -7.5t-47.5 4.5t-35.5 22.5t-15 45q-2 30 20 48.5t54.5 29t68.5 14.5t63 5
q-60 14 -108.5 48.5t-83.5 83.5t-54 108t-19 121q0 71 25 137.5t69.5 118t106.5 82.5t136 31q75 0 137 -31t106.5 -82.5t69 -118t24.5 -137.5zM367 712h-4q-66 -2 -116 -37t-83.5 -88t-50.5 -116t-17 -121q0 -57 16 -119t48.5 -114.5t80.5 -88t112 -39.5q5 -1 9 -1h9h3
q66 2 115.5 37.5t82.5 88t49.5 115.5t16.5 121q0 39 -7.5 81t-22.5 82t-38 76.5t-53 63.5t-67.5 43t-82.5 16zM380 409l53 -52q12 -14 0 -27l-53 -52q-5 -5 -13 -5t-13 5l-52 52q-12 13 0 27l52 52q5 5 13 5t13 -5z" />
    <glyph glyph-name="r" unicode="r" horiz-adv-x="570" 
d="M494 534q0 -48 -13 -78.5t-35.5 -49.5t-51.5 -30t-61 -19l99 -215q13 -29 27 -53.5t28.5 -42.5t27.5 -28.5t25 -10.5v-7h-163v7q18 0 19.5 25.5t-22.5 77.5l-105 230q-26 -8 -51 -19.5t-45 -30.5l-28 -21v-179q1 -15 4.5 -30t10 -26.5t15 -19t18.5 -7.5v-7h-163v7
q10 0 19 7.5t15.5 19t10 26.5t4.5 30v518q-1 15 -4.5 29.5t-10 26.5t-15.5 19t-19 7v8h281q33 -1 68 -12t63 -34t41 -54.5t11 -63.5zM168 296q33 26 65.5 39.5t61.5 23.5q28 9 52.5 19t42.5 28t28 48t10 80h1q1 35 -8 68.5t-26 53.5q-14 17 -35.5 25t-49.5 9h-117
q-10 0 -18.5 -7t-15 -19t-10 -26.5t-4.5 -29.5v-329z" />
    <glyph glyph-name="s" unicode="s" horiz-adv-x="519" 
d="M432 698h8v-224h-8q0 57 -15 98t-38 68q-30 35 -69.5 49.5t-75.5 14.5q-38 0 -69.5 -14.5t-51.5 -39.5t-24.5 -57.5t12.5 -69.5q18 -38 55.5 -64t82.5 -48.5t92 -44.5t84 -51.5t58 -71.5t14 -103q-4 -41 -25 -69.5t-51.5 -46.5t-67.5 -26t-74 -8q-23 0 -48 4t-49 12
q-21 5 -43.5 21.5t-40.5 29t-30 13.5t-12 -25v-45h-8v224h8q0 -60 15.5 -100t41.5 -66q35 -35 79.5 -47.5t86.5 -12.5q28 0 53 10.5t44.5 29t31 43.5t11.5 53q0 60 -28 95t-70 58t-91.5 41t-91.5 43.5t-70 66t-28 108.5q0 40 18.5 71t48 52t66 32t71.5 11q29 0 60 -9t59 -29
q15 -11 28 -22t23.5 -18.5t17.5 -10t10 3.5v71z" />
    <glyph glyph-name="t" unicode="t" horiz-adv-x="671" 
d="M176 690q-49 0 -83.5 -28t-51.5 -79l-3 -11l-8 2q10 31 19 61.5t18 62.5h535q11 -32 20 -62t19 -62l-7 -2l-4 11q-17 51 -51.5 79t-83.5 28h-78q-10 0 -18.5 -7t-15 -19t-10.5 -26.5t-5 -29.5v-518q1 -15 5 -30t10.5 -26.5t15 -19t18.5 -7.5v-7h-163v7q10 0 19 7.5
t15.5 19t10 26.5t4.5 30v518q-1 15 -4.5 29.5t-10 26.5t-15.5 19t-19 7h-78z" />
    <glyph glyph-name="u" unicode="u" horiz-adv-x="657" 
d="M583 355q0 -58 -7 -122t-30 -118.5t-67 -90.5t-118 -37q-78 -2 -132 30.5t-87 85.5t-48 119.5t-15 132.5v253q-1 15 -5 29.5t-10.5 26.5t-15 19t-18.5 7v8h163v-8q-11 0 -19.5 -7t-14.5 -19t-10 -26.5t-5 -29.5v-253q0 -38 3 -79.5t11 -81.5t23.5 -76t41 -62.5t62 -42
t87.5 -13.5q66 2 106 37t61.5 86.5t28.5 113.5t7 118v259q-2 29 -13 52.5t-31 23.5v8h96v-8q-20 0 -31 -23.5t-13 -52.5v-259z" />
    <glyph glyph-name="v" unicode="v" horiz-adv-x="770" 
d="M133 563q-16 35 -34 63q-15 23 -33 43t-36 20v7h163v-7h-4q-20 0 -19 -24.5t19 -67.5l221 -521l225 502q24 54 23 82.5t-14 28.5v7h96v-7q-17 0 -40 -18.5t-46 -69.5q-68 -152 -135 -301t-135 -300h-8z" />
    <glyph glyph-name="w" unicode="w" horiz-adv-x="934" 
d="M593 0l-128 375l-137 -375h-8l-197 576q-12 34 -23 56t-22 35t-23 18t-25 5v8h163v-8h-3q-10 0 -16 -4t-6.5 -14t3.5 -28.5t14 -46.5l171 -499l105 288l-65 190q-12 34 -23 56t-22 35t-23 18t-25 5v8h163v-8h-3q-10 0 -16 -4t-6.5 -14t3.5 -28.5t14 -46.5l39 -113l35 96
q22 64 20 87t-18 23v8h97v-8q-20 0 -37.5 -11t-31.5 -37l-61 -169l128 -375l176 482q22 64 20 87t-18 23v8h97v-8q-20 0 -37 -11t-31 -37l-235 -642h-8z" />
    <glyph glyph-name="x" unicode="x" horiz-adv-x="686" 
d="M30 8q29 0 52.5 25t49.5 60l2 3l180 242l-190 288q-24 37 -45.5 51t-43.5 14v8h163v-8q-11 0 -15 -5t-3 -13t6.5 -19t13.5 -23l155 -237l171 230q25 35 27.5 51t-26.5 16v8h97v-8q-29 0 -53 -25t-50 -60l-161 -218l206 -315q24 -37 46 -51t44 -14v-7h-163v7q22 0 18 18
t-20 42l-173 263l-190 -256q-26 -34 -28 -50.5t27 -16.5v-8h-97v8z" />
    <glyph glyph-name="y" unicode="y" horiz-adv-x="732" 
d="M442 7v-7h-163v7q10 0 19 7.5t15 19t10 26.5t5 30v219l-208 316q-24 37 -46 51t-44 14v8h163v-8q-22 0 -18 -18t20 -42l133 -202l61 -94l214 289q26 35 28.5 51t-26.5 16v8h97v-8q-29 0 -53 -25t-50 -60l-206 -278v-237q1 -15 5 -30t10.5 -26.5t15 -19t18.5 -7.5z" />
    <glyph glyph-name="z" unicode="z" horiz-adv-x="630" 
d="M388 7q37 0 65 8.5t49 27t37 46.5t28 67l7 -2l-30 -103l-15 -51h-499l484 690h-255q-37 0 -64.5 -8.5t-49 -26.5t-37 -46t-28.5 -67l-7 2l30 103l15 51h482l-485 -691h273z" />
    <glyph glyph-name="braceleft" unicode="{" horiz-adv-x="354" 
d="M324 855v-8h-50q-11 -71 -20.5 -141t-16.5 -141q-12 -90 -33.5 -145.5t-67.5 -69.5q46 -14 69 -69t32 -146q0 -1 2.5 -21t6.5 -49t8.5 -63.5t8.5 -65.5t7 -54t4 -29h50v-8h-115q-11 72 -18 144.5t-18 144.5q-2 16 -3.5 50.5t-7.5 70t-18.5 63t-37.5 28.5h-76v8h76
q12 0 20.5 3.5t16 23.5t14.5 62.5t16 121.5q6 72 15.5 144.5t20.5 145.5h115z" />
    <glyph glyph-name="bar" unicode="|" horiz-adv-x="78" 
d="M48 -120h-18v843h18v-843z" />
    <glyph glyph-name="braceright" unicode="}" horiz-adv-x="354" 
d="M145 855q11 -73 20.5 -145.5t15.5 -144.5q9 -79 16 -121.5t14.5 -62.5t16 -23.5t20.5 -3.5h76v-8h-76q-25 -1 -37.5 -28.5t-18.5 -63t-7.5 -70t-3.5 -50.5q-11 -72 -18 -144.5t-18 -144.5h-115v8h50q1 6 4 29t7 54t8.5 65.5t8.5 63.5t6.5 49t2.5 21q9 91 32 146t69 69
q-46 14 -67.5 69.5t-33.5 145.5q-7 71 -16.5 141t-20.5 141h-50v8h115z" />
    <glyph glyph-name="asciitilde" unicode="~" horiz-adv-x="355" 
d="M113 384q11 0 21 -2t19 -5q10 -4 19 -7.5t17 -8.5q9 -5 18 -8.5t18 -7.5q9 -3 18 -5t19 -2q18 0 32 8q13 7 21 27l10 -3q-3 -29 -27 -46q-25 -17 -55 -17q-11 0 -21 2t-20 5q-9 4 -18 7.5t-18 8.5q-8 5 -17 8.5t-18 7.5q-19 7 -38 7q-17 0 -31 -8q-13 -7 -22 -27l-10 3
q4 30 28 46q25 17 55 17z" />
    <glyph glyph-name="uni00A0" unicode="&#xa0;" 
 />
    <glyph glyph-name="exclamdown" unicode="&#xa1;" horiz-adv-x="138" 
d="M58 530h21l23 -530h-66zM76 626q-7 -7 -14 0l-29 29q-7 7 0 15l29 28q7 7 14 0l29 -28q7 -8 0 -15z" />
    <glyph glyph-name="cent" unicode="&#xa2;" horiz-adv-x="767" 
d="M407 733v-39q10 -1 34.5 -3t54.5 -7t61 -13.5t54 -21.5l7 2l46 -157l-7 -2l-3 10q-15 46 -45.5 80t-66.5 56.5t-72 34t-63 12.5v-275q7 -2 9 -5l52 -52q13 -14 0 -27l-52 -52q-2 -3 -9 -5v-269q45 2 86.5 12.5t77.5 24.5t65.5 30t50.5 29.5t33 22.5l12 9l5 -6l-26 -19
t-70.5 -42.5t-104.5 -44.5t-129 -24v-46h-8v46h-13q-85 0 -145 26t-101 67q-33 32 -54.5 69.5t-33.5 73.5t-17 67t-5 49v3q0 81 28.5 145t78 109t116.5 69t146 24v39h8zM399 0v269q-7 2 -9 5l-52 52q-6 6 -6 13.5t6 13.5l52 52q2 3 9 5v275q-72 0 -128 -27.5t-95 -74
t-59 -108t-20 -129.5v-2q0 -18 4 -48t14 -65t27.5 -72t44.5 -69q32 -39 81 -64.5t118 -25.5h13z" />
    <glyph glyph-name="sterling" unicode="&#xa3;" horiz-adv-x="605" 
d="M575 147q-9 -23 -24 -48t-34 -45.5t-40.5 -34t-43.5 -13.5q-17 0 -38.5 6.5t-45 14t-48 14.5t-47.5 9q-24 1 -45 0t-42 -6.5t-43.5 -16t-49.5 -27.5l-7 6q66 59 95 125t7 143q-5 16 -9 31.5t-9 29.5h-121v15h113q-11 31 -19 57t-12.5 50.5t-4.5 49t7 54.5q7 32 21.5 53.5
t37.5 37.5l11 7q11 7 24 14t30.5 12.5t41.5 9t58 3.5q29 0 60 -9t59 -29q15 -11 28 -22t23 -18.5t17.5 -10.5t10.5 3v72h8v-224h-8q0 57 -15 98t-38 68q-30 35 -69.5 49.5t-75.5 14.5q-33 0 -56.5 -3.5t-40.5 -8.5t-29.5 -12t-23.5 -13l-11 -7q-37 -26 -34 -95
q1 -20 10.5 -43.5t22.5 -49.5t25.5 -53.5t19.5 -54.5h220v-15h-215q4 -17 6 -34.5t4 -34.5q3 -37 -6.5 -69.5t-27 -61t-39.5 -52t-44 -42.5q49 30 92.5 37.5t82.5 4t73.5 -12t66.5 -9.5q41 -2 79.5 19.5t57.5 67.5z" />
    <glyph glyph-name="currency" unicode="&#xa4;" horiz-adv-x="554" 
d="M100 475l-70 69l58 59l70 -70q53 36 119 36t119 -36l70 70l58 -59l-70 -69q36 -55 36 -118q0 -64 -36 -119l70 -68l-58 -60l-70 70q-53 -36 -119 -36t-119 36l-70 -70l-58 60l70 68q-36 55 -36 119q0 63 36 118zM146 357q0 -54 38.5 -92.5t91.5 -38.5q54 0 92 38.5
t38 92.5q0 53 -38 91.5t-92 38.5q-53 0 -91.5 -38.5t-38.5 -91.5z" />
    <glyph glyph-name="yen" unicode="&#xa5;" horiz-adv-x="732" 
d="M202 196h126v113l-208 316q-24 37 -46 51t-44 14v8h163v-8q-22 0 -18 -18t20 -42l133 -202l62 -94l214 289q26 35 28 51t-27 16v8h97v-8q-29 0 -52.5 -25t-49.5 -60l-206 -278v-131h126v-8h-126v-44h126v-8h-126v-47q1 -15 4.5 -29.5t10 -26t15 -19t18.5 -7.5v-7h-163v7
q10 0 19 7.5t15.5 19t10 26t4.5 29.5v47h-126v8h126v44h-126v8z" />
    <glyph glyph-name="brokenbar" unicode="&#xa6;" horiz-adv-x="78" 
d="M48 367h-18v356h18v-356zM48 -66h-18v356h18v-356z" />
    <glyph glyph-name="section" unicode="&#xa7;" horiz-adv-x="520" 
d="M224 486q-36 15 -71 32t-62 41.5t-44 59.5t-17 87q0 40 18.5 71t48 52t66 32t72.5 11q29 0 59.5 -9t58.5 -29q15 -11 28 -22t23.5 -18.5t18 -10t10.5 3.5v71h7v-224h-7q0 57 -15.5 98t-38.5 68q-30 35 -69.5 49.5t-74.5 14.5q-38 0 -70 -14.5t-52 -39.5t-24.5 -57.5
t12.5 -69.5q18 -38 55.5 -64t82.5 -48t92 -44.5t84 -52t58 -71t15 -102.5q-4 -36 -20.5 -62.5t-41 -44.5t-55.5 -28t-63 -13q37 -18 72 -39t60.5 -48.5t39 -64t8.5 -86.5q-5 -41 -26 -69.5t-51.5 -46.5t-67.5 -26t-74 -8q-23 0 -48 3.5t-49 12.5q-21 5 -43.5 21.5t-40.5 29
t-30 13t-12 -25.5v-45h-7v224h7q0 -59 16 -99t42 -66q34 -35 78.5 -47.5t86.5 -12.5q28 0 53 10.5t44.5 29t31 43t11.5 53.5q0 45 -16.5 75t-43 51.5t-60.5 37t-69.5 30t-69.5 31t-60.5 41.5t-43 60t-16.5 86q0 39 17.5 69t45 51t62 32t69.5 13zM292 160q24 4 45.5 16t37 30
t25 40.5t9.5 48.5q0 41 -14 69.5t-37 49.5t-53 36t-62 29h-8q-38 0 -70 -14.5t-52 -39.5t-24.5 -58t12.5 -70q12 -24 32 -43.5t45.5 -35.5t54.5 -30t59 -28z" />
    <glyph glyph-name="dieresis" unicode="&#xa8;" horiz-adv-x="331" 
d="M95 704l40 -41q11 -9 0 -20l-40 -40q-5 -5 -10.5 -5t-9.5 5l-41 40q-9 11 0 20l41 41q9 9 20 0zM256 704l40 -41q11 -9 0 -20l-40 -40q-5 -5 -10.5 -5t-9.5 5l-41 40q-9 11 0 20l41 41q9 9 20 0z" />
    <glyph glyph-name="copyright" unicode="&#xa9;" horiz-adv-x="623" 
d="M312 631q58 0 109 -22t89.5 -60.5t60.5 -90t22 -109.5t-22 -109t-60.5 -89.5t-89.5 -60.5t-109 -22q-59 0 -110 22t-89.5 60.5t-60.5 89.5t-22 109t22 109.5t60.5 90t89.5 60.5t110 22zM348 353q5 -5 0 -11l-22 -21q-6 -6 -11 0l-21 21q-5 6 0 11l21 22q5 5 11 0z
M320 491q-30 0 -53.5 -11.5t-39.5 -30.5t-24.5 -44.5t-8.5 -53.5v-1q0 -8 1.5 -20t6 -26.5t11.5 -30t18 -28.5q14 -17 34 -27.5t49 -10.5t55 8.5t45.5 18.5t31 18.5l11.5 8.5l2 -3l-12 -8.5t-31.5 -18.5t-45.5 -18.5t-56 -8.5q-35 0 -60 11t-42 28q-14 13 -22.5 28.5
t-14 30.5t-7.5 27.5t-2 20.5v1q1 67 44.5 105t109.5 38q17 -1 33 -3q14 -2 28.5 -5.5t25.5 -9.5l3 1l19 -65l-3 -1l-2 4q-6 19 -19 33.5t-28 24t-30.5 14t-26.5 4.5zM312 599q-52 0 -97.5 -19.5t-79.5 -53.5t-53.5 -79.5t-19.5 -97.5q0 -51 19.5 -96.5t53.5 -79.5
t79.5 -53.5t97.5 -19.5q51 0 96.5 19.5t79.5 53.5t53.5 79.5t19.5 96.5q0 52 -19.5 97.5t-53.5 79.5t-79.5 53.5t-96.5 19.5z" />
    <glyph glyph-name="ordfeminine" unicode="&#xaa;" horiz-adv-x="772" 
d="M400 698l239 -563q26 -61 54.5 -94t48.5 -33v-8h-163v8h4q20 0 19 24t-19 68l-135 316l-270 -204l-43 -94q-24 -53 -23 -81.5t15 -28.5v-8h-97v8q17 0 40.5 18.5t46.5 69.5l240 535q-11 16 -25 29q-12 11 -28.5 20.5t-36.5 9.5v8h133zM445 423l-84 198l-177 -394z
M370 221l52 -52q6 -5 6 -13t-6 -14l-52 -52q-5 -5 -13 -5t-13 5l-52 52q-6 6 -6 14t6 13l52 52q5 5 13 5t13 -5z" />
    <glyph glyph-name="guillemotleft" unicode="&#xab;" horiz-adv-x="391" 
d="M244 337l117 -166l-9 -3l-187 169l187 168l9 -3zM108 337l117 -166l-9 -3l-186 169l186 168l9 -3z" />
    <glyph glyph-name="logicalnot" unicode="&#xac;" horiz-adv-x="370" 
d="M340 253h-18v103h-292v18h310v-121z" />
    <glyph glyph-name="registered" unicode="&#xae;" horiz-adv-x="624" 
d="M312 632q58 0 109.5 -22t90 -60.5t60.5 -90t22 -109.5t-22 -109.5t-60.5 -89.5t-90 -60.5t-109.5 -22.5q-59 0 -110 22.5t-89.5 60.5t-60.5 89.5t-22 109.5t22 109.5t60.5 90t89.5 60.5t110 22zM395 426q0 15 -3.5 28.5t-10.5 21.5q-11 13 -35 15v-1h-48
q-8 0 -13.5 -10.5t-6.5 -22.5v-136l9 7h1q13 11 26 16.5t26 9.5q12 4 21.5 8t17 11.5t11.5 20t4 32.5h1zM231 494h115q14 -1 28.5 -5.5t25.5 -13.5q11 -10 16.5 -22.5t5.5 -26.5q0 -20 -5.5 -32t-15 -20t-21.5 -12.5t-25 -7.5l41 -89q11 -23 23 -39t21 -16v-4h-67v4
q8 0 8.5 10t-9.5 32l-43 94q-24 -6 -40 -20l-11 -9v-74q1 -12 6.5 -22.5t13.5 -10.5v-4h-67v4q8 0 13.5 10.5t6.5 22.5v214q-1 12 -6.5 22.5t-13.5 10.5v4zM312 599q-52 0 -97.5 -19.5t-79 -53.5t-53 -79t-19.5 -97t19.5 -97.5t53 -79t79 -53t97.5 -19.5t97 19.5t79 53
t53.5 79t19.5 97.5t-19.5 97t-53.5 79t-79 53.5t-97 19.5z" />
    <glyph glyph-name="macron" unicode="&#xaf;" horiz-adv-x="833" 
 />
    <glyph glyph-name="degree" unicode="&#xb0;" horiz-adv-x="277" 
d="M138 701q30 0 50.5 -10.5t33.5 -26t19 -33t6 -30.5q0 -14 -6 -31t-19 -32t-33.5 -25.5t-50.5 -10.5q-29 0 -49.5 10.5t-33.5 25.5t-19 32t-6 31q0 13 6 30.5t19 33t33.5 26t49.5 10.5zM138 503q23 0 38.5 14.5t23.5 36.5t8 47.5t-8 47.5t-23.5 36.5t-38.5 14.5
q-24 0 -39.5 -14.5t-23.5 -36.5t-8 -47.5t8 -47.5t23.5 -36.5t39.5 -14.5z" />
    <glyph glyph-name="plusminus" unicode="&#xb1;" horiz-adv-x="371" 
d="M194 191h-18v147h-146v18h146v146h18v-146h147v-18h-147v-147zM341 154v-18h-311v18h311z" />
    <glyph glyph-name="twosuperior" unicode="&#xb2;" horiz-adv-x="526" 
d="M496 121l-87 -121h-379q32 30 65 66t63 74q35 42 68 87.5t64 90.5q28 42 45 77.5t25 65.5q9 34 7.5 60t-11.5 46q-11 23 -30 37t-42 21q-43 12 -90 3q-48 -9 -83 -38q-21 -17 -33.5 -39.5t-14.5 -50.5h-8q2 57 25 97t58 65q31 22 68 33l12 3h105q28 -7 51.5 -21t39.5 -36
q21 -29 23 -67t-9 -80q-14 -51 -42.5 -102t-61.5 -92q-33 -42 -69.5 -82.5t-73.5 -78.5q-18 -20 -36 -38t-36 -35h231q18 0 39.5 3.5t42 10.5t38 17t26.5 23z" />
    <glyph glyph-name="threesuperior" unicode="&#xb3;" horiz-adv-x="467" 
d="M228 353q34 -1 70.5 -8.5t67.5 -27t51 -55t20 -92.5q0 -44 -18.5 -77.5t-49.5 -57.5q-16 -12 -34 -21t-38 -16q-39 -12 -82 -12h-11q-29 -2 -57 6q-31 8 -59 26t-51 48l6 5q29 -38 71.5 -56.5t89.5 -20.5q23 0 47 8q50 16 82 57q17 21 26.5 49t9.5 62q0 57 -16 91.5
t-40 53t-53 24.5t-56 6h-17t-15 -1q-7 0 -13 -0.5t-13 -0.5h-3v8h5q34 1 62 12t49 30q26 22 42.5 51.5t22.5 61.5q10 47 -1.5 79t-36.5 49q-24 16 -55 21q-32 3 -64 -6q-45 -14 -82.5 -51t-46.5 -100l-8 1q8 49 26 85t44 61q29 29 64.5 43t70.5 14q54 -1 91 -28t54 -68
q14 -35 13 -73q-2 -39 -19 -74q-18 -36 -54 -64.5t-92 -41.5z" />
    <glyph glyph-name="acute" unicode="&#xb4;" horiz-adv-x="234" 
d="M183 825l21 -43l-171 -118l-3 5z" />
    <glyph glyph-name="mu" unicode="&#xb5;" horiz-adv-x="594" 
d="M102 -131h-72v786h72v-282q0 -111 33 -186t82.5 -113t107 -38.5t107 36.5t82.5 112t33 189v282h17v-594h-17v166q-26 -95 -81 -145.5t-120.5 -60t-131 19t-112.5 92.5v-264z" />
    <glyph glyph-name="paragraph" unicode="&#xb6;" horiz-adv-x="619" 
d="M589 780v-1251h-16v1235h-229v-1235h-16v780h-63q-49 0 -91.5 18.5t-74.5 50.5t-50.5 75t-18.5 92t18.5 91.5t50.5 74.5t74.5 50.5t91.5 18.5h324z" />
    <glyph glyph-name="periodcentered" unicode="&#xb7;" horiz-adv-x="170" 
d="M95 411l40 -41q11 -9 0 -20l-40 -40q-5 -5 -10.5 -5t-9.5 5l-41 40q-9 11 0 20l41 41q9 9 20 0z" />
    <glyph glyph-name="cedilla" unicode="&#xb8;" horiz-adv-x="186" 
d="M156 -85q0 -25 -13.5 -36t-33 -13.5t-41.5 1t-38 9.5l4 39q10 -5 28.5 -12.5t37.5 -11.5t33 0t14 22q0 8 -8 13.5t-19 8.5t-22 4.5t-17 1.5l17 59h11l-11 -36q58 -6 58 -49z" />
    <glyph glyph-name="onesuperior" unicode="&#xb9;" horiz-adv-x="242" 
d="M30 537v12l63 72l66 77h11l-16 -18l9 10v-600q1 -15 4.5 -29.5t10 -26.5t15 -19t19.5 -7v-8h-163v8q10 0 18.5 7t15 19t10 26.5t4.5 29.5v439q0 14 -6 21.5t-15.5 9t-20.5 -3.5t-21 -15z" />
    <glyph glyph-name="ordmasculine" unicode="&#xba;" horiz-adv-x="277" 
d="M138 701q30 0 50.5 -10.5t33.5 -26t19 -33t6 -30.5q0 -14 -6 -31t-19 -32t-33.5 -25.5t-50.5 -10.5q-29 0 -49.5 10.5t-33.5 25.5t-19 32t-6 31q0 13 6 30.5t19 33t33.5 26t49.5 10.5zM138 503q23 0 38.5 14.5t23.5 36.5t8 47.5t-8 47.5t-23.5 36.5t-38.5 14.5
q-24 0 -39.5 -14.5t-23.5 -36.5t-8 -47.5t8 -47.5t23.5 -36.5t39.5 -14.5z" />
    <glyph glyph-name="guillemotright" unicode="&#xbb;" horiz-adv-x="392" 
d="M30 502l10 3l186 -168l-186 -169l-10 3l117 166zM166 502l9 3l187 -168l-187 -169l-9 3l117 166z" />
    <glyph glyph-name="onequarter" unicode="&#xbc;" horiz-adv-x="950" 
d="M30 537v12l63 72l66 77h11l-16 -18l9 10v-600q1 -15 4.5 -29.5t10 -26.5t15 -19t19.5 -7v-8h-163v8q10 0 18.5 7t15 19t10 26.5t4.5 29.5v439q0 14 -6 21.5t-15.5 9t-20.5 -3.5t-21 -15zM580 698h18l-313 -698h-17zM768 616l-269 -394h269v394zM816 700h9h9v-478h86
l-52 -66h-34v-67q1 -15 4.5 -29.5t10 -26t15 -19t18.5 -7.5v-7h-162v7q10 0 18.5 7.5t15 19t10 26t4.5 29.5v67h-324q94 137 186 272t186 272z" />
    <glyph glyph-name="onehalf" unicode="&#xbd;" horiz-adv-x="1058" 
d="M30 537v12l63 72l66 77h11l-16 -18l9 10v-600q1 -15 4.5 -29.5t10 -26.5t15 -19t19.5 -7v-8h-163v8q10 0 18.5 7t15 19t10 26.5t4.5 29.5v439q0 14 -6 21.5t-15.5 9t-20.5 -3.5t-21 -15zM567 698h18l-313 -698h-17zM1028 121l-87 -121h-379q32 30 65 66t63 74
q35 42 68 87.5t64 90.5q28 42 45 77.5t25 65.5q9 34 7.5 60t-11.5 46q-11 23 -30 37t-42 21q-43 12 -90 3q-48 -9 -83 -38q-21 -17 -33.5 -39.5t-14.5 -50.5h-8q2 57 25 97t58 65q31 22 68 33l12 3h105q28 -7 51.5 -21t39.5 -36q21 -29 23 -67t-9 -80q-14 -51 -42.5 -102
t-61.5 -92q-33 -42 -69.5 -82.5t-73.5 -78.5q-18 -20 -36 -38t-36 -35h231q18 0 39.5 3.5t42 10.5t38 17t26.5 23z" />
    <glyph glyph-name="threequarters" unicode="&#xbe;" horiz-adv-x="1101" 
d="M228 353q34 -1 70.5 -8.5t67.5 -27t51 -55t20 -92.5q0 -44 -18.5 -77.5t-49.5 -57.5q-16 -12 -34 -21t-38 -16q-39 -12 -82 -12h-11q-29 -2 -57 6q-31 8 -59 26t-51 48l6 5q29 -38 71.5 -56.5t89.5 -20.5q23 0 47 8q50 16 82 57q17 21 26.5 49t9.5 62q0 57 -16 91.5
t-40 53t-53 24.5t-56 6h-17t-15 -1q-7 0 -13 -0.5t-13 -0.5h-3v8h5q34 1 62 12t49 30q26 22 42.5 51.5t22.5 61.5q10 47 -1.5 79t-36.5 49q-24 16 -55 21q-32 3 -64 -6q-45 -14 -82.5 -51t-46.5 -100l-8 1q8 49 26 85t44 61q29 29 64.5 43t70.5 14q54 -1 91 -28t54 -68
q14 -35 13 -73q-2 -39 -19 -74q-18 -36 -54 -64.5t-92 -41.5zM746 698h18l-313 -698h-17zM919 616l-269 -394h269v394zM967 700h9h9v-478h86l-52 -66h-34v-67q1 -15 4.5 -29.5t10 -26t15 -19t18.5 -7.5v-7h-162v7q10 0 18.5 7.5t15 19t10 26t4.5 29.5v67h-324
q94 137 186 272t186 272z" />
    <glyph glyph-name="questiondown" unicode="&#xbf;" horiz-adv-x="481" 
d="M292 525h7q0 -45 -1.5 -82t-8.5 -66t-21.5 -51t-41.5 -37q-55 -26 -88 -57t-46.5 -62.5t-8.5 -60.5t25.5 -51.5t55.5 -36t81 -13.5q36 0 75.5 14.5t69.5 49.5q23 27 38 67.5t15 98.5h8v-224h-8v71q-3 6 -10 3.5t-17.5 -10t-23.5 -19t-28 -21.5q-28 -20 -59 -29t-60 -9
q-61 0 -106 19.5t-71.5 51t-34.5 71.5t5.5 80t49 76.5t95.5 61.5l1 1q57 22 82.5 62t25.5 102zM281 628l-29 29q-7 7 0 15l29 28q7 7 14 0l29 -28q7 -8 0 -15l-29 -29q-7 -7 -14 0z" />
    <glyph glyph-name="Agrave" unicode="&#xc0;" horiz-adv-x="772" 
d="M400 698l239 -563q26 -61 54.5 -94t48.5 -33v-8h-163v8h4q20 0 19 24t-19 68l-135 316l-270 -204l-43 -94q-24 -53 -23 -81.5t15 -28.5v-8h-97v8q17 0 40.5 18.5t46.5 69.5l240 535q-11 16 -25 29q-12 11 -28.5 20.5t-36.5 9.5v8h133zM445 423l-84 198l-177 -394z
M370 221l52 -52q6 -5 6 -13t-6 -14l-52 -52q-5 -5 -13 -5t-13 5l-52 52q-6 6 -6 14t6 13l52 52q5 5 13 5t13 -5zM473 869l-3 -5l-171 118l21 43z" />
    <glyph glyph-name="Aacute" unicode="&#xc1;" horiz-adv-x="772" 
d="M400 698l239 -563q26 -61 54.5 -94t48.5 -33v-8h-163v8h4q20 0 19 24t-19 68l-135 316l-270 -204l-43 -94q-24 -53 -23 -81.5t15 -28.5v-8h-97v8q17 0 40.5 18.5t46.5 69.5l240 535q-11 16 -25 29q-12 11 -28.5 20.5t-36.5 9.5v8h133zM445 423l-84 198l-177 -394z
M370 221l52 -52q6 -5 6 -13t-6 -14l-52 -52q-5 -5 -13 -5t-13 5l-52 52q-6 6 -6 14t6 13l52 52q5 5 13 5t13 -5zM452 1025l21 -43l-171 -118l-3 5z" />
    <glyph glyph-name="Acircumflex" unicode="&#xc2;" horiz-adv-x="772" 
d="M400 698l239 -563q26 -61 54.5 -94t48.5 -33v-8h-163v8h4q20 0 19 24t-19 68l-135 316l-270 -204l-43 -94q-24 -53 -23 -81.5t15 -28.5v-8h-97v8q17 0 40.5 18.5t46.5 69.5l240 535q-11 16 -25 29q-12 11 -28.5 20.5t-36.5 9.5v8h133zM445 423l-84 198l-177 -394z
M370 221l52 -52q6 -5 6 -13t-6 -14l-52 -52q-5 -5 -13 -5t-13 5l-52 52q-6 6 -6 14t6 13l52 52q5 5 13 5t13 -5zM579 847l-4 -8l-188 103l-189 -103l-5 8l194 161z" />
    <glyph glyph-name="Atilde" unicode="&#xc3;" horiz-adv-x="772" 
d="M400 698l239 -563q26 -61 54.5 -94t48.5 -33v-8h-163v8h4q20 0 19 24t-19 68l-135 316l-270 -204l-43 -94q-24 -53 -23 -81.5t15 -28.5v-8h-97v8q17 0 40.5 18.5t46.5 69.5l240 535q-11 16 -25 29q-12 11 -28.5 20.5t-36.5 9.5v8h133zM445 423l-84 198l-177 -394z
M370 221l52 -52q6 -5 6 -13t-6 -14l-52 -52q-5 -5 -13 -5t-13 5l-52 52q-6 6 -6 14t6 13l52 52q5 5 13 5t13 -5zM342 898q13 0 27 -7q7 -4 13 -7t11 -8q6 -5 12 -8.5t12 -7.5l12 -4t13 -2q11 0 22 7q9 8 14 26l7 -2q-3 -29 -19 -45t-37 -16q-8 0 -14 2t-13 5q-12 6 -24 15
t-24 15q-12 7 -26 7q-10 0 -20 -8q-8 -5 -15 -25l-7 2q3 29 19 45q18 16 37 16z" />
    <glyph glyph-name="Adieresis" unicode="&#xc4;" horiz-adv-x="772" 
d="M400 698l239 -563q26 -61 54.5 -94t48.5 -33v-8h-163v8h4q20 0 19 24t-19 68l-135 316l-270 -204l-43 -94q-24 -53 -23 -81.5t15 -28.5v-8h-97v8q17 0 40.5 18.5t46.5 69.5l240 535q-11 16 -25 29q-12 11 -28.5 20.5t-36.5 9.5v8h133zM445 423l-84 198l-177 -394z
M370 221l52 -52q6 -5 6 -13t-6 -14l-52 -52q-5 -5 -13 -5t-13 5l-52 52q-6 6 -6 14t6 13l52 52q5 5 13 5t13 -5zM315 904l40 -41q11 -9 0 -20l-40 -40q-5 -5 -10.5 -5t-9.5 5l-41 40q-9 11 0 20l41 41q9 9 20 0zM476 904l40 -41q11 -9 0 -20l-40 -40q-5 -5 -10.5 -5t-9.5 5
l-41 40q-9 11 0 20l41 41q9 9 20 0z" />
    <glyph glyph-name="Aring" unicode="&#xc5;" horiz-adv-x="772" 
d="M400 698l239 -563q26 -61 54.5 -94t48.5 -33v-8h-163v8h4q20 0 19 24t-19 68l-135 316l-270 -204l-43 -94q-24 -53 -23 -81.5t15 -28.5v-8h-97v8q17 0 40.5 18.5t46.5 69.5l240 535q-11 16 -25 29q-12 11 -28.5 20.5t-36.5 9.5v8h133zM445 423l-84 198l-177 -394z
M370 221l52 -52q6 -5 6 -13t-6 -14l-52 -52q-5 -5 -13 -5t-13 5l-52 52q-6 6 -6 14t6 13l52 52q5 5 13 5t13 -5zM386 930q20 0 38.5 -7t33 -20t23.5 -30.5t9 -39.5t-9 -40t-23.5 -30.5t-33 -19.5t-38.5 -7t-39 7t-33.5 19.5t-23.5 30.5t-9 40t9 39.5t23.5 30.5t33.5 20t39 7
zM386 742q29 0 47 24.5t18 66.5t-18 66.5t-47 24.5t-47 -24.5t-18 -66.5t18 -66.5t47 -24.5z" />
    <glyph glyph-name="AE" unicode="&#xc6;" horiz-adv-x="786" 
d="M637 486v-161h-8v20q-1 11 -4.5 24t-12.5 21t-24.5 8t-40.5 -15l-63 -43q-19 -14 -37.5 -30.5t-32.5 -36t-23 -42t-10 -47.5v-95q1 -15 5 -29.5t10.5 -26t15 -19t18.5 -7.5h140q36 0 64 8.5t49 27t37 46.5t29 67l7 -2l-30 -103l-16 -51h-443v7q10 0 19 7.5t15 19t10 26
t5 29.5v227l-138 -104l-43 -94q-23 -54 -22.5 -82.5t14.5 -28.5v-7h-97v7q17 0 40.5 19t46.5 70l199 442v70q-1 15 -5 29.5t-10 26.5t-15 19t-19 7v8h443l16 -52l30 -103l-7 -2q-13 39 -29 67t-37 46.5t-49 27t-64 8.5h-140q-10 0 -18.5 -7t-15 -19t-10.5 -26.5t-5 -29.5
v-380q13 37 40 66.5t59 51.5l80 56q19 16 34 32q13 14 24 28t11 24h8zM316 325v194l-132 -293z" />
    <glyph glyph-name="Ccedilla" unicode="&#xc7;" horiz-adv-x="703" 
d="M386 4q71 0 134 20t110 44t74.5 44l27.5 20l5 -5l-13 -10t-36 -24.5t-55 -31.5t-71 -31.5t-83.5 -24t-92.5 -9.5q-85 0 -145 26.5t-101 66.5q-33 33 -54.5 70.5t-33.5 73.5t-17 66.5t-5 48.5v3q0 81 28.5 145.5t78 109.5t117.5 68.5t147 23.5h1q40 -3 79 -8
q33 -5 68.5 -14t61.5 -23l7 2l46 -156l-7 -3l-3 10q-15 47 -46.5 82t-68.5 57.5t-74 33.5t-63 11h-1q-72 0 -128.5 -27.5t-95.5 -74t-59.5 -108t-20.5 -129.5v-3q0 -18 4 -48t14 -65t27.5 -72t44.5 -69q32 -39 81 -64.5t118 -25.5zM416 409l52 -52q6 -5 6 -13t-6 -14
l-52 -52q-5 -5 -13 -5t-13 5l-52 52q-6 6 -6 14t6 13l52 52q5 5 13 5t13 -5zM414 -85q0 -25 -13.5 -36t-33 -13.5t-41.5 1t-38 9.5l4 39q10 -5 28.5 -12.5t37.5 -11.5t33 0t14 22q0 8 -8 13.5t-19 8.5t-22 4.5t-17 1.5l17 59h11l-11 -36q58 -6 58 -49z" />
    <glyph glyph-name="Egrave" unicode="&#xc8;" horiz-adv-x="549" 
d="M400 486v-161h-7v21q-1 11 -5 23.5t-13 21t-24.5 8.5t-40.5 -15l-62 -43q-20 -14 -38 -30.5t-32.5 -36t-23.5 -42t-10 -47.5v-95q1 -15 5 -29.5t10.5 -26.5t15 -19t18.5 -7h140q37 0 64.5 8.5t49 26.5t37 46t28.5 67l7 -2l-30 -103l-15 -51h-444v8q10 0 19 7t15.5 19
t10 26.5t4.5 29.5v518q-1 15 -4.5 29.5t-10 26.5t-15.5 19t-19 7v8h444l15 -51l30 -103l-7 -2q-13 39 -28.5 67t-37 46t-49 26.5t-64.5 8.5h-140q-10 0 -18.5 -7t-15 -19t-10.5 -26.5t-5 -29.5v-380q13 37 40 67t59 52l80 55q19 16 35 32q13 14 24 28t11 24h7zM361 869
l-3 -5l-171 118l21 43z" />
    <glyph glyph-name="Eacute" unicode="&#xc9;" horiz-adv-x="549" 
d="M400 486v-161h-7v21q-1 11 -5 23.5t-13 21t-24.5 8.5t-40.5 -15l-62 -43q-20 -14 -38 -30.5t-32.5 -36t-23.5 -42t-10 -47.5v-95q1 -15 5 -29.5t10.5 -26.5t15 -19t18.5 -7h140q37 0 64.5 8.5t49 26.5t37 46t28.5 67l7 -2l-30 -103l-15 -51h-444v8q10 0 19 7t15.5 19
t10 26.5t4.5 29.5v518q-1 15 -4.5 29.5t-10 26.5t-15.5 19t-19 7v8h444l15 -51l30 -103l-7 -2q-13 39 -28.5 67t-37 46t-49 26.5t-64.5 8.5h-140q-10 0 -18.5 -7t-15 -19t-10.5 -26.5t-5 -29.5v-380q13 37 40 67t59 52l80 55q19 16 35 32q13 14 24 28t11 24h7zM340 1025
l21 -43l-171 -118l-3 5z" />
    <glyph glyph-name="Ecircumflex" unicode="&#xca;" horiz-adv-x="549" 
d="M400 486v-161h-7v21q-1 11 -5 23.5t-13 21t-24.5 8.5t-40.5 -15l-62 -43q-20 -14 -38 -30.5t-32.5 -36t-23.5 -42t-10 -47.5v-95q1 -15 5 -29.5t10.5 -26.5t15 -19t18.5 -7h140q37 0 64.5 8.5t49 26.5t37 46t28.5 67l7 -2l-30 -103l-15 -51h-444v8q10 0 19 7t15.5 19
t10 26.5t4.5 29.5v518q-1 15 -4.5 29.5t-10 26.5t-15.5 19t-19 7v8h444l15 -51l30 -103l-7 -2q-13 39 -28.5 67t-37 46t-49 26.5t-64.5 8.5h-140q-10 0 -18.5 -7t-15 -19t-10.5 -26.5t-5 -29.5v-380q13 37 40 67t59 52l80 55q19 16 35 32q13 14 24 28t11 24h7zM467 847
l-4 -8l-188 103l-189 -103l-5 8l194 161z" />
    <glyph glyph-name="Edieresis" unicode="&#xcb;" horiz-adv-x="549" 
d="M400 486v-161h-7v21q-1 11 -5 23.5t-13 21t-24.5 8.5t-40.5 -15l-62 -43q-20 -14 -38 -30.5t-32.5 -36t-23.5 -42t-10 -47.5v-95q1 -15 5 -29.5t10.5 -26.5t15 -19t18.5 -7h140q37 0 64.5 8.5t49 26.5t37 46t28.5 67l7 -2l-30 -103l-15 -51h-444v8q10 0 19 7t15.5 19
t10 26.5t4.5 29.5v518q-1 15 -4.5 29.5t-10 26.5t-15.5 19t-19 7v8h444l15 -51l30 -103l-7 -2q-13 39 -28.5 67t-37 46t-49 26.5t-64.5 8.5h-140q-10 0 -18.5 -7t-15 -19t-10.5 -26.5t-5 -29.5v-380q13 37 40 67t59 52l80 55q19 16 35 32q13 14 24 28t11 24h7zM204 904
l40 -41q11 -9 0 -20l-40 -40q-5 -5 -10.5 -5t-9.5 5l-41 40q-9 11 0 20l41 41q9 9 20 0zM365 904l40 -41q11 -9 0 -20l-40 -40q-5 -5 -10.5 -5t-9.5 5l-41 40q-9 11 0 20l41 41q9 9 20 0z" />
    <glyph glyph-name="Igrave" unicode="&#xcc;" horiz-adv-x="223" 
d="M30 698h163v-8q-11 0 -19.5 -7t-15 -19t-10 -26.5t-4.5 -29.5v-519q1 -15 4.5 -29.5t10 -26.5t15 -19t19.5 -7v-7h-163v7q10 0 18.5 7t15 19t10 26.5t4.5 29.5v519q-1 15 -4.5 29.5t-10 26.5t-15 19t-18.5 7v8zM199 869l-3 -5l-171 118l21 43z" />
    <glyph glyph-name="Iacute" unicode="&#xcd;" horiz-adv-x="223" 
d="M30 698h163v-8q-11 0 -19.5 -7t-15 -19t-10 -26.5t-4.5 -29.5v-519q1 -15 4.5 -29.5t10 -26.5t15 -19t19.5 -7v-7h-163v7q10 0 18.5 7t15 19t10 26.5t4.5 29.5v519q-1 15 -4.5 29.5t-10 26.5t-15 19t-18.5 7v8zM178 1025l21 -43l-171 -118l-3 5z" />
    <glyph glyph-name="Icircumflex" unicode="&#xce;" horiz-adv-x="223" 
d="M30 698h163v-8q-11 0 -19.5 -7t-15 -19t-10 -26.5t-4.5 -29.5v-519q1 -15 4.5 -29.5t10 -26.5t15 -19t19.5 -7v-7h-163v7q10 0 18.5 7t15 19t10 26.5t4.5 29.5v519q-1 15 -4.5 29.5t-10 26.5t-15 19t-18.5 7v8zM305 847l-4 -8l-188 103l-189 -103l-5 8l194 161z" />
    <glyph glyph-name="Idieresis" unicode="&#xcf;" horiz-adv-x="223" 
d="M30 698h163v-8q-11 0 -19.5 -7t-15 -19t-10 -26.5t-4.5 -29.5v-519q1 -15 4.5 -29.5t10 -26.5t15 -19t19.5 -7v-7h-163v7q10 0 18.5 7t15 19t10 26.5t4.5 29.5v519q-1 15 -4.5 29.5t-10 26.5t-15 19t-18.5 7v8zM41 904l40 -41q11 -9 0 -20l-40 -40q-5 -5 -10.5 -5t-9.5 5
l-41 40q-9 11 0 20l41 41q9 9 20 0zM202 904l40 -41q11 -9 0 -20l-40 -40q-5 -5 -10.5 -5t-9.5 5l-41 40q-9 11 0 20l41 41q9 9 20 0z" />
    <glyph glyph-name="Eth" unicode="&#xd0;" horiz-adv-x="671" 
d="M310 698q70 -2 130.5 -30.5t105 -76.5t70 -110.5t25.5 -131.5q0 -70 -26 -133t-71 -111t-105.5 -76.5t-129.5 -28.5h-279v8q10 0 19 7t15 19t10 26.5t5 29.5v518q-1 15 -5 29.5t-10 26.5t-15 19t-19 7v8h280zM470 437q14 9 23 20q29 29 31 60q1 10 -1 19t-6 19l-22 32
q-1 2 -2 2.5t-3 2.5v1q-33 42 -78.5 68.5t-102.5 28.5h-116q-10 0 -18.5 -7t-15 -19t-10.5 -26.5t-5 -29.5v-461q8 23 24 47q15 20 34 38t41 34zM532 528v-11q-2 -17 -9.5 -33t-24.5 -33q-5 -5 -10.5 -10t-12.5 -10l-228 -171q-21 -15 -39.5 -33t-32.5 -38
q-14 -19 -22 -40.5t-9 -44.5v-14q1 -15 5 -29.5t10.5 -26.5t15 -19t18.5 -7h116q64 0 113 31.5t83 81t51.5 110t17.5 118.5q0 45 -11 91t-31 88zM257 343v-18h-257v18h257z" />
    <glyph glyph-name="Ntilde" unicode="&#xd1;" horiz-adv-x="694" 
d="M588 96l76 -96h-84l-464 589v-506q2 -29 13 -52.5t31 -23.5v-7h-97v7q20 0 31.5 23.5t13.5 52.5v516l-78 99h86v-3l464 -589v508q-2 29 -13 52.5t-31 23.5v8h96v-8q-20 0 -31 -23.5t-13 -52.5v-518zM303 898q13 0 27 -7q7 -4 13 -7t11 -8q6 -5 12 -8.5t12 -7.5l12 -4
t13 -2q11 0 22 7q9 8 14 26l7 -2q-3 -29 -19 -45t-37 -16q-8 0 -14 2t-13 5q-12 6 -24 15t-24 15q-12 7 -26 7q-10 0 -20 -8q-8 -5 -15 -25l-7 2q3 29 19 45q18 16 37 16z" />
    <glyph glyph-name="Ograve" unicode="&#xd2;" horiz-adv-x="734" 
d="M367 -20q-75 0 -137 31t-106.5 82.5t-69 118.5t-24.5 138t24.5 137.5t69 118t106.5 82.5t137 31t137 -31t106.5 -82.5t69 -118t24.5 -137.5t-24.5 -138t-69 -118.5t-106.5 -82.5t-137 -31zM367 711h-4q-66 -1 -116 -36t-83.5 -88t-50.5 -116t-17 -121t17 -121.5
t50.5 -116.5t83.5 -88t116 -36h4q67 0 118 34.5t85 88t51 117t17 122.5q0 58 -17 121.5t-51 117t-85 88t-118 34.5zM380 409l52 -52q6 -6 6 -14t-6 -13l-52 -52q-5 -5 -13 -5t-13 5l-52 52q-5 5 -5 13t5 14l52 52q5 5 13 5t13 -5zM454 869l-3 -5l-171 118l21 43z" />
    <glyph glyph-name="Oacute" unicode="&#xd3;" horiz-adv-x="734" 
d="M367 -20q-75 0 -137 31t-106.5 82.5t-69 118.5t-24.5 138t24.5 137.5t69 118t106.5 82.5t137 31t137 -31t106.5 -82.5t69 -118t24.5 -137.5t-24.5 -138t-69 -118.5t-106.5 -82.5t-137 -31zM367 711h-4q-66 -1 -116 -36t-83.5 -88t-50.5 -116t-17 -121t17 -121.5
t50.5 -116.5t83.5 -88t116 -36h4q67 0 118 34.5t85 88t51 117t17 122.5q0 58 -17 121.5t-51 117t-85 88t-118 34.5zM380 409l52 -52q6 -6 6 -14t-6 -13l-52 -52q-5 -5 -13 -5t-13 5l-52 52q-5 5 -5 13t5 14l52 52q5 5 13 5t13 -5zM433 1025l21 -43l-171 -118l-3 5z" />
    <glyph glyph-name="Ocircumflex" unicode="&#xd4;" horiz-adv-x="734" 
d="M367 -20q-75 0 -137 31t-106.5 82.5t-69 118.5t-24.5 138t24.5 137.5t69 118t106.5 82.5t137 31t137 -31t106.5 -82.5t69 -118t24.5 -137.5t-24.5 -138t-69 -118.5t-106.5 -82.5t-137 -31zM367 711h-4q-66 -1 -116 -36t-83.5 -88t-50.5 -116t-17 -121t17 -121.5
t50.5 -116.5t83.5 -88t116 -36h4q67 0 118 34.5t85 88t51 117t17 122.5q0 58 -17 121.5t-51 117t-85 88t-118 34.5zM380 409l52 -52q6 -6 6 -14t-6 -13l-52 -52q-5 -5 -13 -5t-13 5l-52 52q-5 5 -5 13t5 14l52 52q5 5 13 5t13 -5zM560 847l-4 -8l-188 103l-189 -103l-5 8
l194 161z" />
    <glyph glyph-name="Otilde" unicode="&#xd5;" horiz-adv-x="734" 
d="M367 -20q-75 0 -137 31t-106.5 82.5t-69 118.5t-24.5 138t24.5 137.5t69 118t106.5 82.5t137 31t137 -31t106.5 -82.5t69 -118t24.5 -137.5t-24.5 -138t-69 -118.5t-106.5 -82.5t-137 -31zM367 711h-4q-66 -1 -116 -36t-83.5 -88t-50.5 -116t-17 -121t17 -121.5
t50.5 -116.5t83.5 -88t116 -36h4q67 0 118 34.5t85 88t51 117t17 122.5q0 58 -17 121.5t-51 117t-85 88t-118 34.5zM380 409l52 -52q6 -6 6 -14t-6 -13l-52 -52q-5 -5 -13 -5t-13 5l-52 52q-5 5 -5 13t5 14l52 52q5 5 13 5t13 -5zM323 898q13 0 27 -7q7 -4 13 -7t11 -8
q6 -5 12 -8.5t12 -7.5l12 -4t13 -2q11 0 22 7q9 8 14 26l7 -2q-3 -29 -19 -45t-37 -16q-8 0 -14 2t-13 5q-12 6 -24 15t-24 15q-12 7 -26 7q-10 0 -20 -8q-8 -5 -15 -25l-7 2q3 29 19 45q18 16 37 16z" />
    <glyph glyph-name="Odieresis" unicode="&#xd6;" horiz-adv-x="734" 
d="M367 -20q-75 0 -137 31t-106.5 82.5t-69 118.5t-24.5 138t24.5 137.5t69 118t106.5 82.5t137 31t137 -31t106.5 -82.5t69 -118t24.5 -137.5t-24.5 -138t-69 -118.5t-106.5 -82.5t-137 -31zM367 711h-4q-66 -1 -116 -36t-83.5 -88t-50.5 -116t-17 -121t17 -121.5
t50.5 -116.5t83.5 -88t116 -36h4q67 0 118 34.5t85 88t51 117t17 122.5q0 58 -17 121.5t-51 117t-85 88t-118 34.5zM380 409l52 -52q6 -6 6 -14t-6 -13l-52 -52q-5 -5 -13 -5t-13 5l-52 52q-5 5 -5 13t5 14l52 52q5 5 13 5t13 -5zM296 904l40 -41q11 -9 0 -20l-40 -40
q-5 -5 -10.5 -5t-9.5 5l-41 40q-9 11 0 20l41 41q9 9 20 0zM457 904l40 -41q11 -9 0 -20l-40 -40q-5 -5 -10.5 -5t-9.5 5l-41 40q-9 11 0 20l41 41q9 9 20 0z" />
    <glyph glyph-name="multiply" unicode="&#xd7;" horiz-adv-x="293" 
d="M43 233l-12 13l103 103l-104 104l13 13l104 -104l104 104l12 -13l-104 -104l104 -103l-13 -13l-103 104z" />
    <glyph glyph-name="Oslash" unicode="&#xd8;" horiz-adv-x="734" 
d="M367 -20q-75 0 -137 31t-106.5 82.5t-69 118.5t-24.5 138t24.5 137.5t69 118t106.5 82.5t137 31t137 -31t106.5 -82.5t69 -118t24.5 -137.5t-24.5 -138t-69 -118.5t-106.5 -82.5t-137 -31zM367 711h-4q-66 -1 -116 -36t-83.5 -88t-50.5 -116t-17 -121t17 -121.5
t50.5 -116.5t83.5 -88t116 -36h4q67 0 118 34.5t85 88t51 117t17 122.5q0 58 -17 121.5t-51 117t-85 88t-118 34.5zM380 409l52 -52q6 -6 6 -14t-6 -13l-52 -52q-5 -5 -13 -5t-13 5l-52 52q-5 5 -5 13t5 14l52 52q5 5 13 5t13 -5zM514 698h18l-313 -698h-17z" />
    <glyph glyph-name="Ugrave" unicode="&#xd9;" horiz-adv-x="657" 
d="M583 355q0 -58 -7 -122t-30 -118.5t-67 -90.5t-118 -37q-78 -2 -132 30.5t-87 85.5t-48 119.5t-15 132.5v253q-1 15 -5 29.5t-10.5 26.5t-15 19t-18.5 7v8h163v-8q-11 0 -19.5 -7t-14.5 -19t-10 -26.5t-5 -29.5v-253q0 -38 3 -79.5t11 -81.5t23.5 -76t41 -62.5t62 -42
t87.5 -13.5q66 2 106 37t61.5 86.5t28.5 113.5t7 118v259q-2 29 -13 52.5t-31 23.5v8h96v-8q-20 0 -31 -23.5t-13 -52.5v-259zM415 869l-3 -5l-171 118l21 43z" />
    <glyph glyph-name="Uacute" unicode="&#xda;" horiz-adv-x="657" 
d="M583 355q0 -58 -7 -122t-30 -118.5t-67 -90.5t-118 -37q-78 -2 -132 30.5t-87 85.5t-48 119.5t-15 132.5v253q-1 15 -5 29.5t-10.5 26.5t-15 19t-18.5 7v8h163v-8q-11 0 -19.5 -7t-14.5 -19t-10 -26.5t-5 -29.5v-253q0 -38 3 -79.5t11 -81.5t23.5 -76t41 -62.5t62 -42
t87.5 -13.5q66 2 106 37t61.5 86.5t28.5 113.5t7 118v259q-2 29 -13 52.5t-31 23.5v8h96v-8q-20 0 -31 -23.5t-13 -52.5v-259zM394 1025l21 -43l-171 -118l-3 5z" />
    <glyph glyph-name="Ucircumflex" unicode="&#xdb;" horiz-adv-x="657" 
d="M583 355q0 -58 -7 -122t-30 -118.5t-67 -90.5t-118 -37q-78 -2 -132 30.5t-87 85.5t-48 119.5t-15 132.5v253q-1 15 -5 29.5t-10.5 26.5t-15 19t-18.5 7v8h163v-8q-11 0 -19.5 -7t-14.5 -19t-10 -26.5t-5 -29.5v-253q0 -38 3 -79.5t11 -81.5t23.5 -76t41 -62.5t62 -42
t87.5 -13.5q66 2 106 37t61.5 86.5t28.5 113.5t7 118v259q-2 29 -13 52.5t-31 23.5v8h96v-8q-20 0 -31 -23.5t-13 -52.5v-259zM521 847l-4 -8l-188 103l-189 -103l-5 8l194 161z" />
    <glyph glyph-name="Udieresis" unicode="&#xdc;" horiz-adv-x="657" 
d="M583 355q0 -58 -7 -122t-30 -118.5t-67 -90.5t-118 -37q-78 -2 -132 30.5t-87 85.5t-48 119.5t-15 132.5v253q-1 15 -5 29.5t-10.5 26.5t-15 19t-18.5 7v8h163v-8q-11 0 -19.5 -7t-14.5 -19t-10 -26.5t-5 -29.5v-253q0 -38 3 -79.5t11 -81.5t23.5 -76t41 -62.5t62 -42
t87.5 -13.5q66 2 106 37t61.5 86.5t28.5 113.5t7 118v259q-2 29 -13 52.5t-31 23.5v8h96v-8q-20 0 -31 -23.5t-13 -52.5v-259zM258 904l40 -41q11 -9 0 -20l-40 -40q-5 -5 -10.5 -5t-9.5 5l-41 40q-9 11 0 20l41 41q9 9 20 0zM419 904l40 -41q11 -9 0 -20l-40 -40
q-5 -5 -10.5 -5t-9.5 5l-41 40q-9 11 0 20l41 41q9 9 20 0z" />
    <glyph glyph-name="Yacute" unicode="&#xdd;" horiz-adv-x="732" 
d="M442 7v-7h-163v7q10 0 19 7.5t15 19t10 26.5t5 30v219l-208 316q-24 37 -46 51t-44 14v8h163v-8q-22 0 -18 -18t20 -42l133 -202l61 -94l214 289q26 35 28.5 51t-26.5 16v8h97v-8q-29 0 -53 -25t-50 -60l-206 -278v-237q1 -15 5 -30t10.5 -26.5t15 -19t18.5 -7.5z
M432 1025l21 -43l-171 -118l-3 5z" />
    <glyph glyph-name="germandbls" unicode="&#xdf;" horiz-adv-x="533" 
d="M96 471v-471h-66v471q0 80 21 125.5t51.5 68t65.5 28t62 5.5h16q40 -1 77 -9.5t70 -36.5q28 -24 41 -55t11 -63q0 -48 -13 -78.5t-35.5 -49.5t-51.5 -30t-60 -19h8q27 0 54 -4t52 -15t46 -27.5t35 -41.5q32 -56 19.5 -113.5t-63.5 -97.5q-20 -16 -43 -27t-46.5 -18
t-45.5 -10t-40 -3h-83v7h83q32 0 65 15t59 43q41 43 48.5 100.5t-22.5 109.5q-23 39 -61 56q-34 17 -79 17q-8 0 -15 -0.5t-15 -1.5q-1 0 -1 -1q-34 -8 -62 -21q-30 -14 -53 -34h-1l-4 6l1 1q17 16 47 31t53 22q33 12 62 21.5t50.5 27.5t34 49t12.5 86q1 35 -7.5 68
t-25.5 53q-22 25 -47.5 30t-53.5 5q-10 0 -15 1q-22 0 -46 -6t-43.5 -28t-32.5 -66t-13 -120z" />
    <glyph glyph-name="agrave" unicode="&#xe0;" horiz-adv-x="772" 
d="M400 698l239 -563q26 -61 54.5 -94t48.5 -33v-8h-163v8h4q20 0 19 24t-19 68l-135 316l-270 -204l-43 -94q-24 -53 -23 -81.5t15 -28.5v-8h-97v8q17 0 40.5 18.5t46.5 69.5l240 535q-11 16 -25 29q-12 11 -28.5 20.5t-36.5 9.5v8h133zM445 423l-84 198l-177 -394z
M370 221l52 -52q6 -5 6 -13t-6 -14l-52 -52q-5 -5 -13 -5t-13 5l-52 52q-6 6 -6 14t6 13l52 52q5 5 13 5t13 -5zM473 869l-3 -5l-171 118l21 43z" />
    <glyph glyph-name="aacute" unicode="&#xe1;" horiz-adv-x="772" 
d="M400 698l239 -563q26 -61 54.5 -94t48.5 -33v-8h-163v8h4q20 0 19 24t-19 68l-135 316l-270 -204l-43 -94q-24 -53 -23 -81.5t15 -28.5v-8h-97v8q17 0 40.5 18.5t46.5 69.5l240 535q-11 16 -25 29q-12 11 -28.5 20.5t-36.5 9.5v8h133zM445 423l-84 198l-177 -394z
M370 221l52 -52q6 -5 6 -13t-6 -14l-52 -52q-5 -5 -13 -5t-13 5l-52 52q-6 6 -6 14t6 13l52 52q5 5 13 5t13 -5zM452 1025l21 -43l-171 -118l-3 5z" />
    <glyph glyph-name="acircumflex" unicode="&#xe2;" horiz-adv-x="772" 
d="M400 698l239 -563q26 -61 54.5 -94t48.5 -33v-8h-163v8h4q20 0 19 24t-19 68l-135 316l-270 -204l-43 -94q-24 -53 -23 -81.5t15 -28.5v-8h-97v8q17 0 40.5 18.5t46.5 69.5l240 535q-11 16 -25 29q-12 11 -28.5 20.5t-36.5 9.5v8h133zM445 423l-84 198l-177 -394z
M370 221l52 -52q6 -5 6 -13t-6 -14l-52 -52q-5 -5 -13 -5t-13 5l-52 52q-6 6 -6 14t6 13l52 52q5 5 13 5t13 -5zM579 847l-4 -8l-188 103l-189 -103l-5 8l194 161z" />
    <glyph glyph-name="atilde" unicode="&#xe3;" horiz-adv-x="772" 
d="M400 698l239 -563q26 -61 54.5 -94t48.5 -33v-8h-163v8h4q20 0 19 24t-19 68l-135 316l-270 -204l-43 -94q-24 -53 -23 -81.5t15 -28.5v-8h-97v8q17 0 40.5 18.5t46.5 69.5l240 535q-11 16 -25 29q-12 11 -28.5 20.5t-36.5 9.5v8h133zM445 423l-84 198l-177 -394z
M370 221l52 -52q6 -5 6 -13t-6 -14l-52 -52q-5 -5 -13 -5t-13 5l-52 52q-6 6 -6 14t6 13l52 52q5 5 13 5t13 -5zM342 898q13 0 27 -7q7 -4 13 -7t11 -8q6 -5 12 -8.5t12 -7.5l12 -4t13 -2q11 0 22 7q9 8 14 26l7 -2q-3 -29 -19 -45t-37 -16q-8 0 -14 2t-13 5q-12 6 -24 15
t-24 15q-12 7 -26 7q-10 0 -20 -8q-8 -5 -15 -25l-7 2q3 29 19 45q18 16 37 16z" />
    <glyph glyph-name="adieresis" unicode="&#xe4;" horiz-adv-x="772" 
d="M400 698l239 -563q26 -61 54.5 -94t48.5 -33v-8h-163v8h4q20 0 19 24t-19 68l-135 316l-270 -204l-43 -94q-24 -53 -23 -81.5t15 -28.5v-8h-97v8q17 0 40.5 18.5t46.5 69.5l240 535q-11 16 -25 29q-12 11 -28.5 20.5t-36.5 9.5v8h133zM445 423l-84 198l-177 -394z
M370 221l52 -52q6 -5 6 -13t-6 -14l-52 -52q-5 -5 -13 -5t-13 5l-52 52q-6 6 -6 14t6 13l52 52q5 5 13 5t13 -5zM315 904l40 -41q11 -9 0 -20l-40 -40q-5 -5 -10.5 -5t-9.5 5l-41 40q-9 11 0 20l41 41q9 9 20 0zM476 904l40 -41q11 -9 0 -20l-40 -40q-5 -5 -10.5 -5t-9.5 5
l-41 40q-9 11 0 20l41 41q9 9 20 0z" />
    <glyph glyph-name="aring" unicode="&#xe5;" horiz-adv-x="772" 
d="M400 698l239 -563q26 -61 54.5 -94t48.5 -33v-8h-163v8h4q20 0 19 24t-19 68l-135 316l-270 -204l-43 -94q-24 -53 -23 -81.5t15 -28.5v-8h-97v8q17 0 40.5 18.5t46.5 69.5l240 535q-11 16 -25 29q-12 11 -28.5 20.5t-36.5 9.5v8h133zM445 423l-84 198l-177 -394z
M370 221l52 -52q6 -5 6 -13t-6 -14l-52 -52q-5 -5 -13 -5t-13 5l-52 52q-6 6 -6 14t6 13l52 52q5 5 13 5t13 -5zM386 930q20 0 38.5 -7t33 -20t23.5 -30.5t9 -39.5t-9 -40t-23.5 -30.5t-33 -19.5t-38.5 -7t-39 7t-33.5 19.5t-23.5 30.5t-9 40t9 39.5t23.5 30.5t33.5 20t39 7
zM386 742q29 0 47 24.5t18 66.5t-18 66.5t-47 24.5t-47 -24.5t-18 -66.5t18 -66.5t47 -24.5z" />
    <glyph glyph-name="ae" unicode="&#xe6;" horiz-adv-x="786" 
d="M637 486v-161h-8v20q-1 11 -4.5 24t-12.5 21t-24.5 8t-40.5 -15l-63 -43q-19 -14 -37.5 -30.5t-32.5 -36t-23 -42t-10 -47.5v-95q1 -15 5 -29.5t10.5 -26t15 -19t18.5 -7.5h140q36 0 64 8.5t49 27t37 46.5t29 67l7 -2l-30 -103l-16 -51h-443v7q10 0 19 7.5t15 19t10 26
t5 29.5v227l-138 -104l-43 -94q-23 -54 -22.5 -82.5t14.5 -28.5v-7h-97v7q17 0 40.5 19t46.5 70l199 442v70q-1 15 -5 29.5t-10 26.5t-15 19t-19 7v8h443l16 -52l30 -103l-7 -2q-13 39 -29 67t-37 46.5t-49 27t-64 8.5h-140q-10 0 -18.5 -7t-15 -19t-10.5 -26.5t-5 -29.5
v-380q13 37 40 66.5t59 51.5l80 56q19 16 34 32q13 14 24 28t11 24h8zM316 325v194l-132 -293z" />
    <glyph glyph-name="ccedilla" unicode="&#xe7;" horiz-adv-x="703" 
d="M386 4q71 0 134 20t110 44t74.5 44l27.5 20l5 -5l-13 -10t-36 -24.5t-55 -31.5t-71 -31.5t-83.5 -24t-92.5 -9.5q-85 0 -145 26.5t-101 66.5q-33 33 -54.5 70.5t-33.5 73.5t-17 66.5t-5 48.5v3q0 81 28.5 145.5t78 109.5t117.5 68.5t147 23.5h1q40 -3 79 -8
q33 -5 68.5 -14t61.5 -23l7 2l46 -156l-7 -3l-3 10q-15 47 -46.5 82t-68.5 57.5t-74 33.5t-63 11h-1q-72 0 -128.5 -27.5t-95.5 -74t-59.5 -108t-20.5 -129.5v-3q0 -18 4 -48t14 -65t27.5 -72t44.5 -69q32 -39 81 -64.5t118 -25.5zM416 409l52 -52q6 -5 6 -13t-6 -14
l-52 -52q-5 -5 -13 -5t-13 5l-52 52q-6 6 -6 14t6 13l52 52q5 5 13 5t13 -5zM414 -85q0 -25 -13.5 -36t-33 -13.5t-41.5 1t-38 9.5l4 39q10 -5 28.5 -12.5t37.5 -11.5t33 0t14 22q0 8 -8 13.5t-19 8.5t-22 4.5t-17 1.5l17 59h11l-11 -36q58 -6 58 -49z" />
    <glyph glyph-name="egrave" unicode="&#xe8;" horiz-adv-x="549" 
d="M400 486v-161h-7v21q-1 11 -5 23.5t-13 21t-24.5 8.5t-40.5 -15l-62 -43q-20 -14 -38 -30.5t-32.5 -36t-23.5 -42t-10 -47.5v-95q1 -15 5 -29.5t10.5 -26.5t15 -19t18.5 -7h140q37 0 64.5 8.5t49 26.5t37 46t28.5 67l7 -2l-30 -103l-15 -51h-444v8q10 0 19 7t15.5 19
t10 26.5t4.5 29.5v518q-1 15 -4.5 29.5t-10 26.5t-15.5 19t-19 7v8h444l15 -51l30 -103l-7 -2q-13 39 -28.5 67t-37 46t-49 26.5t-64.5 8.5h-140q-10 0 -18.5 -7t-15 -19t-10.5 -26.5t-5 -29.5v-380q13 37 40 67t59 52l80 55q19 16 35 32q13 14 24 28t11 24h7zM361 869
l-3 -5l-171 118l21 43z" />
    <glyph glyph-name="eacute" unicode="&#xe9;" horiz-adv-x="549" 
d="M400 486v-161h-7v21q-1 11 -5 23.5t-13 21t-24.5 8.5t-40.5 -15l-62 -43q-20 -14 -38 -30.5t-32.5 -36t-23.5 -42t-10 -47.5v-95q1 -15 5 -29.5t10.5 -26.5t15 -19t18.5 -7h140q37 0 64.5 8.5t49 26.5t37 46t28.5 67l7 -2l-30 -103l-15 -51h-444v8q10 0 19 7t15.5 19
t10 26.5t4.5 29.5v518q-1 15 -4.5 29.5t-10 26.5t-15.5 19t-19 7v8h444l15 -51l30 -103l-7 -2q-13 39 -28.5 67t-37 46t-49 26.5t-64.5 8.5h-140q-10 0 -18.5 -7t-15 -19t-10.5 -26.5t-5 -29.5v-380q13 37 40 67t59 52l80 55q19 16 35 32q13 14 24 28t11 24h7zM340 1025
l21 -43l-171 -118l-3 5z" />
    <glyph glyph-name="ecircumflex" unicode="&#xea;" horiz-adv-x="549" 
d="M400 486v-161h-7v21q-1 11 -5 23.5t-13 21t-24.5 8.5t-40.5 -15l-62 -43q-20 -14 -38 -30.5t-32.5 -36t-23.5 -42t-10 -47.5v-95q1 -15 5 -29.5t10.5 -26.5t15 -19t18.5 -7h140q37 0 64.5 8.5t49 26.5t37 46t28.5 67l7 -2l-30 -103l-15 -51h-444v8q10 0 19 7t15.5 19
t10 26.5t4.5 29.5v518q-1 15 -4.5 29.5t-10 26.5t-15.5 19t-19 7v8h444l15 -51l30 -103l-7 -2q-13 39 -28.5 67t-37 46t-49 26.5t-64.5 8.5h-140q-10 0 -18.5 -7t-15 -19t-10.5 -26.5t-5 -29.5v-380q13 37 40 67t59 52l80 55q19 16 35 32q13 14 24 28t11 24h7zM467 847
l-4 -8l-188 103l-189 -103l-5 8l194 161z" />
    <glyph glyph-name="edieresis" unicode="&#xeb;" horiz-adv-x="549" 
d="M400 486v-161h-7v21q-1 11 -5 23.5t-13 21t-24.5 8.5t-40.5 -15l-62 -43q-20 -14 -38 -30.5t-32.5 -36t-23.5 -42t-10 -47.5v-95q1 -15 5 -29.5t10.5 -26.5t15 -19t18.5 -7h140q37 0 64.5 8.5t49 26.5t37 46t28.5 67l7 -2l-30 -103l-15 -51h-444v8q10 0 19 7t15.5 19
t10 26.5t4.5 29.5v518q-1 15 -4.5 29.5t-10 26.5t-15.5 19t-19 7v8h444l15 -51l30 -103l-7 -2q-13 39 -28.5 67t-37 46t-49 26.5t-64.5 8.5h-140q-10 0 -18.5 -7t-15 -19t-10.5 -26.5t-5 -29.5v-380q13 37 40 67t59 52l80 55q19 16 35 32q13 14 24 28t11 24h7zM204 904
l40 -41q11 -9 0 -20l-40 -40q-5 -5 -10.5 -5t-9.5 5l-41 40q-9 11 0 20l41 41q9 9 20 0zM365 904l40 -41q11 -9 0 -20l-40 -40q-5 -5 -10.5 -5t-9.5 5l-41 40q-9 11 0 20l41 41q9 9 20 0z" />
    <glyph glyph-name="igrave" unicode="&#xec;" horiz-adv-x="223" 
d="M30 698h163v-8q-11 0 -19.5 -7t-15 -19t-10 -26.5t-4.5 -29.5v-519q1 -15 4.5 -29.5t10 -26.5t15 -19t19.5 -7v-7h-163v7q10 0 18.5 7t15 19t10 26.5t4.5 29.5v519q-1 15 -4.5 29.5t-10 26.5t-15 19t-18.5 7v8zM199 869l-3 -5l-171 118l21 43z" />
    <glyph glyph-name="iacute" unicode="&#xed;" horiz-adv-x="223" 
d="M30 698h163v-8q-11 0 -19.5 -7t-15 -19t-10 -26.5t-4.5 -29.5v-519q1 -15 4.5 -29.5t10 -26.5t15 -19t19.5 -7v-7h-163v7q10 0 18.5 7t15 19t10 26.5t4.5 29.5v519q-1 15 -4.5 29.5t-10 26.5t-15 19t-18.5 7v8zM178 1025l21 -43l-171 -118l-3 5z" />
    <glyph glyph-name="icircumflex" unicode="&#xee;" horiz-adv-x="223" 
d="M30 698h163v-8q-11 0 -19.5 -7t-15 -19t-10 -26.5t-4.5 -29.5v-519q1 -15 4.5 -29.5t10 -26.5t15 -19t19.5 -7v-7h-163v7q10 0 18.5 7t15 19t10 26.5t4.5 29.5v519q-1 15 -4.5 29.5t-10 26.5t-15 19t-18.5 7v8zM305 847l-4 -8l-188 103l-189 -103l-5 8l194 161z" />
    <glyph glyph-name="idieresis" unicode="&#xef;" horiz-adv-x="223" 
d="M30 698h163v-8q-11 0 -19.5 -7t-15 -19t-10 -26.5t-4.5 -29.5v-519q1 -15 4.5 -29.5t10 -26.5t15 -19t19.5 -7v-7h-163v7q10 0 18.5 7t15 19t10 26.5t4.5 29.5v519q-1 15 -4.5 29.5t-10 26.5t-15 19t-18.5 7v8zM41 904l40 -41q11 -9 0 -20l-40 -40q-5 -5 -10.5 -5t-9.5 5
l-41 40q-9 11 0 20l41 41q9 9 20 0zM202 904l40 -41q11 -9 0 -20l-40 -40q-5 -5 -10.5 -5t-9.5 5l-41 40q-9 11 0 20l41 41q9 9 20 0z" />
    <glyph glyph-name="eth" unicode="&#xf0;" horiz-adv-x="497" 
d="M34 4h9q63 2 125.5 32.5t112.5 87.5q27 32 49 85t35 114q-10 -9 -21 -17.5t-24 -16.5q-26 -16 -55 -25.5t-60 -9.5q-60 0 -101 37t-59 91q-15 42 -15 89q0 48 16 90q21 55 70 93t130 39h2q67 -1 112.5 -31t71.5 -78.5t32.5 -109.5t-5.5 -123.5t-41.5 -120.5t-74.5 -101
q-33 -32 -71.5 -56t-78 -41t-78 -26t-72.5 -10h-9v8zM368 338q12 60 13 121t-11.5 110.5t-40.5 81.5t-74 34h-10q-49 -1 -79.5 -38.5t-44.5 -91.5q-5 -20 -7.5 -42t-2.5 -43q0 -22 1.5 -43t6.5 -41q11 -48 34.5 -79t59.5 -31q31 0 59 7.5t52 21.5q13 7 23.5 15.5t20.5 17.5z
" />
    <glyph glyph-name="ntilde" unicode="&#xf1;" horiz-adv-x="694" 
d="M588 96l76 -96h-84l-464 589v-506q2 -29 13 -52.5t31 -23.5v-7h-97v7q20 0 31.5 23.5t13.5 52.5v516l-78 99h86v-3l464 -589v508q-2 29 -13 52.5t-31 23.5v8h96v-8q-20 0 -31 -23.5t-13 -52.5v-518zM303 898q13 0 27 -7q7 -4 13 -7t11 -8q6 -5 12 -8.5t12 -7.5l12 -4
t13 -2q11 0 22 7q9 8 14 26l7 -2q-3 -29 -19 -45t-37 -16q-8 0 -14 2t-13 5q-12 6 -24 15t-24 15q-12 7 -26 7q-10 0 -20 -8q-8 -5 -15 -25l-7 2q3 29 19 45q18 16 37 16z" />
    <glyph glyph-name="ograve" unicode="&#xf2;" horiz-adv-x="734" 
d="M367 -20q-75 0 -137 31t-106.5 82.5t-69 118.5t-24.5 138t24.5 137.5t69 118t106.5 82.5t137 31t137 -31t106.5 -82.5t69 -118t24.5 -137.5t-24.5 -138t-69 -118.5t-106.5 -82.5t-137 -31zM367 711h-4q-66 -1 -116 -36t-83.5 -88t-50.5 -116t-17 -121t17 -121.5
t50.5 -116.5t83.5 -88t116 -36h4q67 0 118 34.5t85 88t51 117t17 122.5q0 58 -17 121.5t-51 117t-85 88t-118 34.5zM380 409l52 -52q6 -6 6 -14t-6 -13l-52 -52q-5 -5 -13 -5t-13 5l-52 52q-5 5 -5 13t5 14l52 52q5 5 13 5t13 -5zM454 869l-3 -5l-171 118l21 43z" />
    <glyph glyph-name="oacute" unicode="&#xf3;" horiz-adv-x="734" 
d="M367 -20q-75 0 -137 31t-106.5 82.5t-69 118.5t-24.5 138t24.5 137.5t69 118t106.5 82.5t137 31t137 -31t106.5 -82.5t69 -118t24.5 -137.5t-24.5 -138t-69 -118.5t-106.5 -82.5t-137 -31zM367 711h-4q-66 -1 -116 -36t-83.5 -88t-50.5 -116t-17 -121t17 -121.5
t50.5 -116.5t83.5 -88t116 -36h4q67 0 118 34.5t85 88t51 117t17 122.5q0 58 -17 121.5t-51 117t-85 88t-118 34.5zM380 409l52 -52q6 -6 6 -14t-6 -13l-52 -52q-5 -5 -13 -5t-13 5l-52 52q-5 5 -5 13t5 14l52 52q5 5 13 5t13 -5zM433 1025l21 -43l-171 -118l-3 5z" />
    <glyph glyph-name="ocircumflex" unicode="&#xf4;" horiz-adv-x="734" 
d="M367 -20q-75 0 -137 31t-106.5 82.5t-69 118.5t-24.5 138t24.5 137.5t69 118t106.5 82.5t137 31t137 -31t106.5 -82.5t69 -118t24.5 -137.5t-24.5 -138t-69 -118.5t-106.5 -82.5t-137 -31zM367 711h-4q-66 -1 -116 -36t-83.5 -88t-50.5 -116t-17 -121t17 -121.5
t50.5 -116.5t83.5 -88t116 -36h4q67 0 118 34.5t85 88t51 117t17 122.5q0 58 -17 121.5t-51 117t-85 88t-118 34.5zM380 409l52 -52q6 -6 6 -14t-6 -13l-52 -52q-5 -5 -13 -5t-13 5l-52 52q-5 5 -5 13t5 14l52 52q5 5 13 5t13 -5zM560 847l-4 -8l-188 103l-189 -103l-5 8
l194 161z" />
    <glyph glyph-name="otilde" unicode="&#xf5;" horiz-adv-x="734" 
d="M367 -20q-75 0 -137 31t-106.5 82.5t-69 118.5t-24.5 138t24.5 137.5t69 118t106.5 82.5t137 31t137 -31t106.5 -82.5t69 -118t24.5 -137.5t-24.5 -138t-69 -118.5t-106.5 -82.5t-137 -31zM367 711h-4q-66 -1 -116 -36t-83.5 -88t-50.5 -116t-17 -121t17 -121.5
t50.5 -116.5t83.5 -88t116 -36h4q67 0 118 34.5t85 88t51 117t17 122.5q0 58 -17 121.5t-51 117t-85 88t-118 34.5zM380 409l52 -52q6 -6 6 -14t-6 -13l-52 -52q-5 -5 -13 -5t-13 5l-52 52q-5 5 -5 13t5 14l52 52q5 5 13 5t13 -5zM323 898q13 0 27 -7q7 -4 13 -7t11 -8
q6 -5 12 -8.5t12 -7.5l12 -4t13 -2q11 0 22 7q9 8 14 26l7 -2q-3 -29 -19 -45t-37 -16q-8 0 -14 2t-13 5q-12 6 -24 15t-24 15q-12 7 -26 7q-10 0 -20 -8q-8 -5 -15 -25l-7 2q3 29 19 45q18 16 37 16z" />
    <glyph glyph-name="odieresis" unicode="&#xf6;" horiz-adv-x="734" 
d="M367 -20q-75 0 -137 31t-106.5 82.5t-69 118.5t-24.5 138t24.5 137.5t69 118t106.5 82.5t137 31t137 -31t106.5 -82.5t69 -118t24.5 -137.5t-24.5 -138t-69 -118.5t-106.5 -82.5t-137 -31zM367 711h-4q-66 -1 -116 -36t-83.5 -88t-50.5 -116t-17 -121t17 -121.5
t50.5 -116.5t83.5 -88t116 -36h4q67 0 118 34.5t85 88t51 117t17 122.5q0 58 -17 121.5t-51 117t-85 88t-118 34.5zM380 409l52 -52q6 -6 6 -14t-6 -13l-52 -52q-5 -5 -13 -5t-13 5l-52 52q-5 5 -5 13t5 14l52 52q5 5 13 5t13 -5zM296 904l40 -41q11 -9 0 -20l-40 -40
q-5 -5 -10.5 -5t-9.5 5l-41 40q-9 11 0 20l41 41q9 9 20 0zM457 904l40 -41q11 -9 0 -20l-40 -40q-5 -5 -10.5 -5t-9.5 5l-41 40q-9 11 0 20l41 41q9 9 20 0z" />
    <glyph glyph-name="divide" unicode="&#xf7;" horiz-adv-x="371" 
d="M341 359v-18h-311v18h311zM192 494l29 -28q7 -8 0 -15l-29 -29q-7 -7 -14 0l-29 29q-3 3 -3 7.5t3 7.5l29 28q7 7 14 0zM192 268l29 -29q7 -7 0 -15l-29 -28q-7 -7 -14 0l-29 28q-7 8 0 15l29 29q7 7 14 0z" />
    <glyph glyph-name="oslash" unicode="&#xf8;" horiz-adv-x="734" 
d="M367 -20q-75 0 -137 31t-106.5 82.5t-69 118.5t-24.5 138t24.5 137.5t69 118t106.5 82.5t137 31t137 -31t106.5 -82.5t69 -118t24.5 -137.5t-24.5 -138t-69 -118.5t-106.5 -82.5t-137 -31zM367 711h-4q-66 -1 -116 -36t-83.5 -88t-50.5 -116t-17 -121t17 -121.5
t50.5 -116.5t83.5 -88t116 -36h4q67 0 118 34.5t85 88t51 117t17 122.5q0 58 -17 121.5t-51 117t-85 88t-118 34.5zM380 409l52 -52q6 -6 6 -14t-6 -13l-52 -52q-5 -5 -13 -5t-13 5l-52 52q-5 5 -5 13t5 14l52 52q5 5 13 5t13 -5zM514 698h18l-313 -698h-17z" />
    <glyph glyph-name="ugrave" unicode="&#xf9;" horiz-adv-x="657" 
d="M583 355q0 -58 -7 -122t-30 -118.5t-67 -90.5t-118 -37q-78 -2 -132 30.5t-87 85.5t-48 119.5t-15 132.5v253q-1 15 -5 29.5t-10.5 26.5t-15 19t-18.5 7v8h163v-8q-11 0 -19.5 -7t-14.5 -19t-10 -26.5t-5 -29.5v-253q0 -38 3 -79.5t11 -81.5t23.5 -76t41 -62.5t62 -42
t87.5 -13.5q66 2 106 37t61.5 86.5t28.5 113.5t7 118v259q-2 29 -13 52.5t-31 23.5v8h96v-8q-20 0 -31 -23.5t-13 -52.5v-259zM415 869l-3 -5l-171 118l21 43z" />
    <glyph glyph-name="uacute" unicode="&#xfa;" horiz-adv-x="657" 
d="M583 355q0 -58 -7 -122t-30 -118.5t-67 -90.5t-118 -37q-78 -2 -132 30.5t-87 85.5t-48 119.5t-15 132.5v253q-1 15 -5 29.5t-10.5 26.5t-15 19t-18.5 7v8h163v-8q-11 0 -19.5 -7t-14.5 -19t-10 -26.5t-5 -29.5v-253q0 -38 3 -79.5t11 -81.5t23.5 -76t41 -62.5t62 -42
t87.5 -13.5q66 2 106 37t61.5 86.5t28.5 113.5t7 118v259q-2 29 -13 52.5t-31 23.5v8h96v-8q-20 0 -31 -23.5t-13 -52.5v-259zM394 1025l21 -43l-171 -118l-3 5z" />
    <glyph glyph-name="ucircumflex" unicode="&#xfb;" horiz-adv-x="657" 
d="M583 355q0 -58 -7 -122t-30 -118.5t-67 -90.5t-118 -37q-78 -2 -132 30.5t-87 85.5t-48 119.5t-15 132.5v253q-1 15 -5 29.5t-10.5 26.5t-15 19t-18.5 7v8h163v-8q-11 0 -19.5 -7t-14.5 -19t-10 -26.5t-5 -29.5v-253q0 -38 3 -79.5t11 -81.5t23.5 -76t41 -62.5t62 -42
t87.5 -13.5q66 2 106 37t61.5 86.5t28.5 113.5t7 118v259q-2 29 -13 52.5t-31 23.5v8h96v-8q-20 0 -31 -23.5t-13 -52.5v-259zM521 847l-4 -8l-188 103l-189 -103l-5 8l194 161z" />
    <glyph glyph-name="udieresis" unicode="&#xfc;" horiz-adv-x="657" 
d="M583 355q0 -58 -7 -122t-30 -118.5t-67 -90.5t-118 -37q-78 -2 -132 30.5t-87 85.5t-48 119.5t-15 132.5v253q-1 15 -5 29.5t-10.5 26.5t-15 19t-18.5 7v8h163v-8q-11 0 -19.5 -7t-14.5 -19t-10 -26.5t-5 -29.5v-253q0 -38 3 -79.5t11 -81.5t23.5 -76t41 -62.5t62 -42
t87.5 -13.5q66 2 106 37t61.5 86.5t28.5 113.5t7 118v259q-2 29 -13 52.5t-31 23.5v8h96v-8q-20 0 -31 -23.5t-13 -52.5v-259zM258 904l40 -41q11 -9 0 -20l-40 -40q-5 -5 -10.5 -5t-9.5 5l-41 40q-9 11 0 20l41 41q9 9 20 0zM419 904l40 -41q11 -9 0 -20l-40 -40
q-5 -5 -10.5 -5t-9.5 5l-41 40q-9 11 0 20l41 41q9 9 20 0z" />
    <glyph glyph-name="yacute" unicode="&#xfd;" horiz-adv-x="732" 
d="M442 7v-7h-163v7q10 0 19 7.5t15 19t10 26.5t5 30v219l-208 316q-24 37 -46 51t-44 14v8h163v-8q-22 0 -18 -18t20 -42l133 -202l61 -94l214 289q26 35 28.5 51t-26.5 16v8h97v-8q-29 0 -53 -25t-50 -60l-206 -278v-237q1 -15 5 -30t10.5 -26.5t15 -19t18.5 -7.5z
M432 1025l21 -43l-171 -118l-3 5z" />
    <glyph glyph-name="thorn" unicode="&#xfe;" horiz-adv-x="78" 
d="M48 -120h-18v843h18v-843zM233 534q0 -48 -13 -78t-35.5 -49t-51.5 -30t-60 -19h7q27 0 54 -4.5t52 -15.5t46 -27.5t35 -41.5q32 -56 20 -113.5t-63 -97.5q-20 -16 -43.5 -27t-47 -18t-45.5 -10t-40 -3h-279v8q10 0 19 7t15.5 19t10 26.5t4.5 29.5v135h-1l1 1v382
q-1 15 -4.5 29.5t-10 26.5t-15.5 19t-19 7v8h280q34 -1 69 -12t63 -34t40.5 -54.5t11.5 -63.5zM27 346q-16 -5 -31.5 -10t-30.5 -12q-15 -8 -28.5 -16.5t-24.5 -16.5v-1l-29 -21v-179q1 -15 5 -29.5t10.5 -26.5t15 -19t18.5 -7h116q32 0 65 15t59 42q20 21 32.5 47t16 54
t-1.5 55.5t-20 53.5q-11 20 -27 34t-34 22q-34 17 -80 17q-8 0 -15 -0.5t-15 -1.5h-1zM-93 296q0 1 0.5 1t0.5 1q18 16 47.5 31t53.5 21q33 12 61.5 21.5t50 27.5t34 49t12.5 86q1 36 -7.5 69t-25.5 53q-30 34 -86 34h-116q-10 0 -18.5 -7t-15 -19t-10.5 -26.5t-5 -29.5
v-329z" />
    <glyph glyph-name="ydieresis" unicode="&#xff;" horiz-adv-x="732" 
d="M442 7v-7h-163v7q10 0 19 7.5t15 19t10 26.5t5 30v219l-208 316q-24 37 -46 51t-44 14v8h163v-8q-22 0 -18 -18t20 -42l133 -202l61 -94l214 289q26 35 28.5 51t-26.5 16v8h97v-8q-29 0 -53 -25t-50 -60l-206 -278v-237q1 -15 5 -30t10.5 -26.5t15 -19t18.5 -7.5z
M295 904l40 -41q11 -9 0 -20l-40 -40q-5 -5 -10.5 -5t-9.5 5l-41 40q-9 11 0 20l41 41q9 9 20 0zM456 904l40 -41q11 -9 0 -20l-40 -40q-5 -5 -10.5 -5t-9.5 5l-41 40q-9 11 0 20l41 41q9 9 20 0z" />
    <glyph glyph-name="dotlessi" unicode="&#x131;" horiz-adv-x="223" 
d="M30 698h163v-8q-11 0 -19.5 -7t-15 -19t-10 -26.5t-4.5 -29.5v-519q1 -15 4.5 -29.5t10 -26.5t15 -19t19.5 -7v-7h-163v7q10 0 18.5 7t15 19t10 26.5t4.5 29.5v519q-1 15 -4.5 29.5t-10 26.5t-15 19t-18.5 7v8z" />
    <glyph glyph-name="Lslash" unicode="&#x141;" horiz-adv-x="549" 
d="M333 7q73 0 113 35.5t65 113.5l8 -2l-31 -103l-15 -51h-443v7q10 0 18.5 7t15 19t10 26.5t4.5 29.5v519q-1 15 -4.5 29.5t-10 26.5t-15 19t-18.5 7v8h163v-8q-11 0 -19.5 -7t-15 -19t-10 -26.5t-4.5 -29.5v-519q1 -15 4.5 -29.5t10 -26.5t15 -19t19.5 -7h140zM430 374
v-18h-311v18h311z" />
    <glyph glyph-name="lslash" unicode="&#x142;" horiz-adv-x="549" 
d="M333 7q73 0 113 35.5t65 113.5l8 -2l-31 -103l-15 -51h-443v7q10 0 18.5 7t15 19t10 26.5t4.5 29.5v519q-1 15 -4.5 29.5t-10 26.5t-15 19t-18.5 7v8h163v-8q-11 0 -19.5 -7t-15 -19t-10 -26.5t-4.5 -29.5v-519q1 -15 4.5 -29.5t10 -26.5t15 -19t19.5 -7h140zM430 374
v-18h-311v18h311z" />
    <glyph glyph-name="OE" unicode="&#x152;" horiz-adv-x="1108" 
d="M959 486v-36v-125h-7v20q-1 11 -4.5 24t-12.5 21t-25 8t-41 -15l-62 -43q-20 -14 -38 -30.5t-32.5 -36t-23.5 -42t-9 -47.5v-79v-16q1 -15 4.5 -29.5t10 -26t15 -19t18.5 -7.5h140q37 0 64.5 8.5t49 27t37 46.5t28.5 67l7 -2l-30 -103l-15 -51h-444v7q10 0 19 7.5
t15.5 19t10 26t4.5 29.5v16v29q-45 -67 -114 -109t-157 -42v8q67 0 118 34.5t85 88t51 117t17 122.5q0 39 -7.5 81t-23 82t-38 76.5t-52.5 63.5t-67.5 43t-82.5 16v7q88 0 157 -41.5t114 -108.5v20v16q-1 15 -4.5 29.5t-10 26.5t-15.5 19t-19 7v8h444l15 -52l30 -103l-7 -2
q-13 39 -28.5 67t-37 46.5t-49 27t-64.5 8.5h-140q-10 0 -18.5 -7t-15 -19t-10 -26.5t-4.5 -29.5v-16v-230v-9v-10v-115q12 37 39 66.5t59 51.5l80 56q19 16 35 32q13 14 24 28t11 24h7zM380 412l52 -52q5 -5 5 -13t-5 -14l-52 -52q-5 -5 -13 -5t-14 5l-52 52q-5 6 -5 14
t5 13l52 52q6 5 14 5t13 -5zM367 715h-4q-67 -2 -117 -37t-83.5 -88t-50 -116t-16.5 -121q0 -39 7.5 -80.5t22 -81.5t37 -76t52 -63t67 -43.5t81.5 -17.5h4v-8q-75 0 -137 31t-106.5 82.5t-69 118.5t-24.5 138t24.5 137.5t69 118t106.5 82.5t137 31v-7z" />
    <glyph glyph-name="oe" unicode="&#x153;" horiz-adv-x="1108" 
d="M959 486v-36v-125h-7v20q-1 11 -4.5 24t-12.5 21t-25 8t-41 -15l-62 -43q-20 -14 -38 -30.5t-32.5 -36t-23.5 -42t-9 -47.5v-79v-16q1 -15 4.5 -29.5t10 -26t15 -19t18.5 -7.5h140q37 0 64.5 8.5t49 27t37 46.5t28.5 67l7 -2l-30 -103l-15 -51h-444v7q10 0 19 7.5
t15.5 19t10 26t4.5 29.5v16v29q-45 -67 -114 -109t-157 -42v8q67 0 118 34.5t85 88t51 117t17 122.5q0 39 -7.5 81t-23 82t-38 76.5t-52.5 63.5t-67.5 43t-82.5 16v7q88 0 157 -41.5t114 -108.5v20v16q-1 15 -4.5 29.5t-10 26.5t-15.5 19t-19 7v8h444l15 -52l30 -103l-7 -2
q-13 39 -28.5 67t-37 46.5t-49 27t-64.5 8.5h-140q-10 0 -18.5 -7t-15 -19t-10 -26.5t-4.5 -29.5v-16v-230v-9v-10v-115q12 37 39 66.5t59 51.5l80 56q19 16 35 32q13 14 24 28t11 24h7zM380 412l52 -52q5 -5 5 -13t-5 -14l-52 -52q-5 -5 -13 -5t-14 5l-52 52q-5 6 -5 14
t5 13l52 52q6 5 14 5t13 -5zM367 715h-4q-67 -2 -117 -37t-83.5 -88t-50 -116t-16.5 -121q0 -39 7.5 -80.5t22 -81.5t37 -76t52 -63t67 -43.5t81.5 -17.5h4v-8q-75 0 -137 31t-106.5 82.5t-69 118.5t-24.5 138t24.5 137.5t69 118t106.5 82.5t137 31v-7z" />
    <glyph glyph-name="Scaron" unicode="&#x160;" horiz-adv-x="519" 
d="M432 698h8v-224h-8q0 57 -15 98t-38 68q-30 35 -69.5 49.5t-75.5 14.5q-38 0 -69.5 -14.5t-51.5 -39.5t-24.5 -57.5t12.5 -69.5q18 -38 55.5 -64t82.5 -48.5t92 -44.5t84 -51.5t58 -71.5t14 -103q-4 -41 -25 -69.5t-51.5 -46.5t-67.5 -26t-74 -8q-23 0 -48 4t-49 12
q-21 5 -43.5 21.5t-40.5 29t-30 13.5t-12 -25v-45h-8v224h8q0 -60 15.5 -100t41.5 -66q35 -35 79.5 -47.5t86.5 -12.5q28 0 53 10.5t44.5 29t31 43.5t11.5 53q0 60 -28 95t-70 58t-91.5 41t-91.5 43.5t-70 66t-28 108.5q0 40 18.5 71t48 52t66 32t71.5 11q29 0 60 -9t59 -29
q15 -11 28 -22t23.5 -18.5t17.5 -10t10 3.5v71zM453 996l-194 -161l-193 161l4 8l189 -103l189 103z" />
    <glyph glyph-name="scaron" unicode="&#x161;" horiz-adv-x="519" 
d="M432 698h8v-224h-8q0 57 -15 98t-38 68q-30 35 -69.5 49.5t-75.5 14.5q-38 0 -69.5 -14.5t-51.5 -39.5t-24.5 -57.5t12.5 -69.5q18 -38 55.5 -64t82.5 -48.5t92 -44.5t84 -51.5t58 -71.5t14 -103q-4 -41 -25 -69.5t-51.5 -46.5t-67.5 -26t-74 -8q-23 0 -48 4t-49 12
q-21 5 -43.5 21.5t-40.5 29t-30 13.5t-12 -25v-45h-8v224h8q0 -60 15.5 -100t41.5 -66q35 -35 79.5 -47.5t86.5 -12.5q28 0 53 10.5t44.5 29t31 43.5t11.5 53q0 60 -28 95t-70 58t-91.5 41t-91.5 43.5t-70 66t-28 108.5q0 40 18.5 71t48 52t66 32t71.5 11q29 0 60 -9t59 -29
q15 -11 28 -22t23.5 -18.5t17.5 -10t10 3.5v71zM453 996l-194 -161l-193 161l4 8l189 -103l189 103z" />
    <glyph glyph-name="Ydieresis" unicode="&#x178;" horiz-adv-x="732" 
d="M442 7v-7h-163v7q10 0 19 7.5t15 19t10 26.5t5 30v219l-208 316q-24 37 -46 51t-44 14v8h163v-8q-22 0 -18 -18t20 -42l133 -202l61 -94l214 289q26 35 28.5 51t-26.5 16v8h97v-8q-29 0 -53 -25t-50 -60l-206 -278v-237q1 -15 5 -30t10.5 -26.5t15 -19t18.5 -7.5z
M295 904l40 -41q11 -9 0 -20l-40 -40q-5 -5 -10.5 -5t-9.5 5l-41 40q-9 11 0 20l41 41q9 9 20 0zM456 904l40 -41q11 -9 0 -20l-40 -40q-5 -5 -10.5 -5t-9.5 5l-41 40q-9 11 0 20l41 41q9 9 20 0z" />
    <glyph glyph-name="Zcaron" unicode="&#x17d;" horiz-adv-x="630" 
d="M388 7q37 0 65 8.5t49 27t37 46.5t28 67l7 -2l-30 -103l-15 -51h-499l484 690h-255q-37 0 -64.5 -8.5t-49 -26.5t-37 -46t-28.5 -67l-7 2l30 103l15 51h482l-485 -691h273zM508 996l-194 -161l-193 161l4 8l189 -103l189 103z" />
    <glyph glyph-name="zcaron" unicode="&#x17e;" horiz-adv-x="630" 
d="M388 7q37 0 65 8.5t49 27t37 46.5t28 67l7 -2l-30 -103l-15 -51h-499l484 690h-255q-37 0 -64.5 -8.5t-49 -26.5t-37 -46t-28.5 -67l-7 2l30 103l15 51h482l-485 -691h273zM508 996l-194 -161l-193 161l4 8l189 -103l189 103z" />
    <glyph glyph-name="florin" unicode="&#x192;" horiz-adv-x="549" 
d="M400 486v-161h-7v21q-1 11 -4.5 23.5t-12.5 21t-25 8.5t-41 -15l-62 -43q-20 -14 -38 -30.5t-32.5 -36t-23.5 -42t-9 -47.5v-95q1 -15 4.5 -29.5t10 -26.5t15 -19t18.5 -7v-8h-163v8q10 0 19 7t15.5 19t10 26.5t4.5 29.5v518q-1 15 -4.5 29.5t-10 26.5t-15.5 19t-19 7v8
h444l15 -51l30 -103l-7 -2q-13 39 -28.5 67t-37 46t-49 26.5t-64.5 8.5h-140q-10 0 -18.5 -7t-15 -19t-10 -26.5t-4.5 -29.5v-380q12 37 39 67t59 52l80 55q19 16 35 32q13 14 24 28t11 24h7z" />
    <glyph glyph-name="circumflex" unicode="&#x2c6;" horiz-adv-x="446" 
d="M416 647l-4 -8l-188 103l-189 -103l-5 8l194 161z" />
    <glyph glyph-name="caron" unicode="&#x2c7;" horiz-adv-x="447" 
d="M417 796l-194 -161l-193 161l4 8l189 -103l189 103z" />
    <glyph glyph-name="breve" unicode="&#x2d8;" horiz-adv-x="364" 
d="M183 600q-29 0 -56.5 10t-49 28t-34.5 43.5t-13 56.5h59q0 -59 26 -93.5t68 -34.5t68 34.5t26 93.5h57q0 -31 -12.5 -56.5t-33.5 -43.5t-48.5 -28t-56.5 -10z" />
    <glyph glyph-name="dotaccent" unicode="&#x2d9;" horiz-adv-x="170" 
d="M95 710l40 -41q11 -9 0 -20l-40 -40q-5 -5 -10.5 -5t-9.5 5l-41 40q-9 11 0 20l41 41q9 9 20 0z" />
    <glyph glyph-name="ring" unicode="&#x2da;" horiz-adv-x="269" 
d="M135 730q20 0 38.5 -7t33 -20t23.5 -30.5t9 -39.5t-9 -40t-23.5 -30.5t-33 -19.5t-38.5 -7t-39 7t-33.5 19.5t-23.5 30.5t-9 40t9 39.5t23.5 30.5t33.5 20t39 7zM135 542q29 0 47 24.5t18 66.5t-18 66.5t-47 24.5t-47 -24.5t-18 -66.5t18 -66.5t47 -24.5z" />
    <glyph glyph-name="ogonek" unicode="&#x2db;" horiz-adv-x="174" 
d="M87 0q-10 -6 -20 -19t-16 -28.5t-6.5 -30.5t9.5 -25q7 -8 20 -7t26.5 6t25.5 11l18 9v-41q-23 -11 -50 -15t-46 15q-15 14 -17 31.5t4 34.5t17.5 32.5t24.5 26.5h10z" />
    <glyph glyph-name="tilde" unicode="&#x2dc;" horiz-adv-x="259" 
d="M86 698q13 0 27 -7q7 -4 13 -7t11 -8q6 -5 12 -8.5t12 -7.5l12 -4t13 -2q11 0 22 7q9 8 14 26l7 -2q-3 -29 -19 -45t-37 -16q-8 0 -14 2t-13 5q-12 6 -24 15t-24 15q-12 7 -26 7q-10 0 -20 -8q-8 -5 -15 -25l-7 2q3 29 19 45q18 16 37 16z" />
    <glyph glyph-name="hungarumlaut" unicode="&#x2dd;" horiz-adv-x="381" 
d="M183 825l21 -43l-171 -118l-3 5zM330 825l21 -43l-171 -118l-3 5z" />
    <glyph glyph-name="endash" unicode="&#x2013;" horiz-adv-x="371" 
d="M341 374v-18h-311v18h311z" />
    <glyph glyph-name="emdash" unicode="&#x2014;" horiz-adv-x="287" 
d="M257 374v-18h-227v18h227z" />
    <glyph glyph-name="quoteleft" unicode="&#x2018;" horiz-adv-x="169" 
d="M74 608l-40 39q-9 10 0 21l35 34q3 16 14.5 30.5t38.5 14.5v-11q-15 0 -20 -10t-5 -21l37 -37q10 -11 0 -21l-39 -39q-5 -5 -10.5 -5t-10.5 5z" />
    <glyph glyph-name="quoteright" unicode="&#x2019;" horiz-adv-x="169" 
d="M95 705l40 -39q9 -11 0 -21l-35 -34q-3 -16 -14.5 -30.5t-38.5 -14.5v11q15 0 20 10t5 21l-37 37q-5 5 -5 10.5t5 10.5l39 39q10 10 21 0z" />
    <glyph glyph-name="quotesinglbase" unicode="&#x201a;" horiz-adv-x="169" 
d="M95 105l40 -39q9 -11 0 -21l-35 -34q-3 -16 -14.5 -30.5t-38.5 -14.5v11q15 0 20 10t5 21l-37 37q-5 5 -5 10.5t5 10.5l39 39q10 10 21 0z" />
    <glyph glyph-name="quotedblleft" unicode="&#x201c;" horiz-adv-x="299" 
d="M204 608l-40 39q-9 10 0 21l35 34q3 16 14.5 30.5t38.5 14.5v-11q-15 0 -20 -10t-5 -21l37 -37q10 -11 0 -21l-39 -39q-5 -5 -10.5 -5t-10.5 5zM74 608l-40 39q-9 10 0 21l35 34q3 16 14.5 30.5t38.5 14.5v-11q-15 0 -20 -10t-5 -21l37 -37q10 -11 0 -21l-39 -39
q-5 -5 -10.5 -5t-10.5 5z" />
    <glyph glyph-name="quotedblright" unicode="&#x201d;" horiz-adv-x="299" 
d="M95 705l40 -39q9 -11 0 -21l-35 -34q-3 -16 -14.5 -30.5t-38.5 -14.5v11q15 0 20 10t5 21l-37 37q-5 5 -5 10.5t5 10.5l39 39q10 10 21 0zM225 705l40 -39q9 -11 0 -21l-35 -34q-3 -16 -14.5 -30.5t-38.5 -14.5v11q15 0 20 10t5 21l-37 37q-5 5 -5 10.5t5 10.5l39 39
q10 10 21 0z" />
    <glyph glyph-name="quotedblbase" unicode="&#x201e;" horiz-adv-x="299" 
d="M95 105l40 -39q9 -11 0 -21l-35 -34q-3 -16 -14.5 -30.5t-38.5 -14.5v11q15 0 20 10t5 21l-37 37q-5 5 -5 10.5t5 10.5l39 39q10 10 21 0zM225 105l40 -39q9 -11 0 -21l-35 -34q-3 -16 -14.5 -30.5t-38.5 -14.5v11q15 0 20 10t5 21l-37 37q-5 5 -5 10.5t5 10.5l39 39
q10 10 21 0z" />
    <glyph glyph-name="dagger" unicode="&#x2020;" horiz-adv-x="370" 
d="M198 -120h-18v843h18v-843zM340 359v-18h-310v18h310z" />
    <glyph glyph-name="daggerdbl" unicode="&#x2021;" horiz-adv-x="371" 
d="M199 -120h-18v843h18v-843zM341 550v-18h-311v18h311zM341 164v-18h-311v18h311z" />
    <glyph glyph-name="bullet" unicode="&#x2022;" horiz-adv-x="203" 
d="M101 394q30 0 51 -20t21 -49t-21 -49t-51 -20q-29 0 -50 20t-21 49t21 49t50 20z" />
    <glyph glyph-name="ellipsis" unicode="&#x2026;" horiz-adv-x="598" 
d="M95 106l40 -41q11 -9 0 -20l-40 -40q-5 -5 -10.5 -5t-9.5 5l-41 40q-9 11 0 20l41 41q9 9 20 0zM296 106l40 -41q11 -9 0 -20l-40 -40q-5 -5 -10.5 -5t-9.5 5l-41 40q-9 11 0 20l41 41q9 9 20 0zM523 106l40 -41q11 -9 0 -20l-40 -40q-5 -5 -10.5 -5t-9.5 5l-41 40
q-9 11 0 20l41 41q9 9 20 0z" />
    <glyph glyph-name="perthousand" unicode="&#x2030;" horiz-adv-x="1176" 
d="M199 702q37 0 68 -15.5t53 -41t34.5 -59t12.5 -68.5q0 -36 -12.5 -69t-34.5 -59t-53 -41.5t-68 -15.5q-38 0 -69 15.5t-53 41.5t-34.5 59t-12.5 69q0 35 12.5 68.5t34.5 59t53 41t69 15.5zM612 367q37 0 68 -15.5t53 -41.5t34.5 -59t12.5 -69t-12.5 -69t-34.5 -58.5
t-53 -41t-68 -15.5t-68 15.5t-53.5 41t-35 58.5t-12.5 69t12.5 69t35 59t53.5 41.5t68 15.5zM612 1q34 0 59 17.5t42 44t25.5 58.5t8.5 61t-8.5 61t-25.5 58.5t-42 44t-59 17.5h-2q-33 -1 -58.5 -18.5t-42 -43.5t-25 -58t-8.5 -61t8.5 -60.5t25 -58t42 -44t58.5 -18.5h2z
M199 698h-2q-33 0 -58.5 -17.5t-42 -44t-25 -58t-8.5 -60.5t8.5 -61t25 -58.5t42 -44t58.5 -17.5h2q33 0 58.5 17.5t42.5 44t25.5 58.5t8.5 61t-8.5 60.5t-25.5 58t-42.5 44t-58.5 17.5zM525 698h72l-313 -698h-71zM619 212l26 -26q5 -7 0 -14l-26 -26q-7 -5 -14 0l-26 26
q-5 7 0 14l26 26q7 5 14 0zM205 547l26 -26q7 -7 0 -13l-26 -26q-6 -7 -13 0l-26 26q-7 6 0 13l26 26q7 7 13 0zM978 367q37 0 68 -15.5t53 -41.5t34.5 -59t12.5 -69t-12.5 -69t-34.5 -58.5t-53 -41t-68 -15.5t-68 15.5t-53.5 41t-35 58.5t-12.5 69t12.5 69t35 59t53.5 41.5
t68 15.5zM978 1q34 0 59 17.5t42 44t25.5 58.5t8.5 61t-8.5 61t-25.5 58.5t-42 44t-59 17.5h-2q-33 -1 -58.5 -18.5t-42 -43.5t-25 -58t-8.5 -61t8.5 -60.5t25 -58t42 -44t58.5 -18.5h2zM985 212l26 -26q5 -7 0 -14l-26 -26q-7 -5 -14 0l-26 26q-5 7 0 14l26 26q7 5 14 0z
" />
    <glyph glyph-name="guilsinglleft" unicode="&#x2039;" horiz-adv-x="256" 
d="M108 337l118 -166l-10 -3l-186 169l186 168l10 -3z" />
    <glyph glyph-name="guilsinglright" unicode="&#x203a;" horiz-adv-x="256" 
d="M30 502l9 3l187 -168l-187 -169l-9 3l117 166z" />
    <glyph glyph-name="fraction" unicode="&#x2044;" horiz-adv-x="390" 
d="M342 698h18l-313 -698h-17z" />
    <glyph glyph-name="Euro" unicode="&#x20ac;" horiz-adv-x="862" 
d="M30 381h97q6 73 36.5 131.5t79.5 98.5t113.5 61.5t139.5 21.5h1q40 -3 79 -8q33 -5 68.5 -14t61.5 -23l8 2l46 -157l-8 -2l-2 10q-15 47 -46.5 82t-68.5 57.5t-74.5 33.5t-63.5 11l-1 -1q-68 0 -121.5 -24t-92 -65.5t-61 -97t-27.5 -117.5h154v-7h-155q0 -7 -0.5 -13.5
t-0.5 -14.5h1v-16h155v-8h-154q1 -21 6.5 -49.5t16 -60t26.5 -63t39 -59.5q33 -39 81.5 -64.5t118.5 -25.5q71 0 133 20t110 44q55 28 102 64l5 -6q-48 -37 -103 -65q-48 -25 -111.5 -45t-135.5 -20q-86 0 -146 26t-101 67q-29 28 -48.5 60.5t-32 64.5t-19 61t-8.5 51h-97v8
h96v17v13.5t1 13.5h-97v7zM512 405l52 -52q12 -14 0 -27l-52 -52q-6 -5 -14 -5t-13 5l-52 52q-12 13 0 27l52 52q5 5 13 5t14 -5z" />
    <glyph glyph-name="trademark" unicode="&#x2122;" horiz-adv-x="850" 
d="M114 694q-58 0 -78 -61l-1 -6l-5 1q5 17 10.5 35t10.5 36h307q7 -19 12 -36t10 -35l-4 -1l-2 6q-20 61 -77 61h-45q-12 0 -19.5 -15t-8.5 -32v-297q1 -17 8.5 -32t19.5 -15v-4h-94v4q12 0 19.5 15t8.5 32v297q-1 17 -8.5 32t-19.5 15h-44zM443 700l163 -353l142 341
q-3 8 -12 8v4h84v-4q-12 0 -19.5 -15.5t-8.5 -32.5v-298q1 -17 8.5 -32t19.5 -15v-4h-94v4q12 0 19.5 15t8.5 32v293q0 11 -0.5 21t-2.5 18l-143 -340l20 -43h-37l-1 -1l-2 1h-1h-1v1l-174 377v-331q2 -16 8.5 -29.5t17.5 -13.5v-4h-56v4q11 0 18 13.5t8 29.5v341l-7 13h42z
" />
    <glyph glyph-name="minus" unicode="&#x2212;" horiz-adv-x="370" 
d="M340 374v-18h-310v18h310z" />
    <glyph glyph-name="fi" unicode="&#xfb01;" horiz-adv-x="772" 
d="M400 486v-161h-7v21q-1 11 -4.5 23.5t-12.5 21t-25 8.5t-41 -15l-62 -43q-20 -14 -38 -30.5t-32.5 -36t-23.5 -42t-9 -47.5v-95q1 -15 4.5 -29.5t10 -26.5t15 -19t18.5 -7v-8h-163v8q10 0 19 7t15.5 19t10 26.5t4.5 29.5v518q-1 15 -4.5 29.5t-10 26.5t-15.5 19t-19 7v8
h444l15 -51l30 -103l-7 -2q-13 39 -28.5 67t-37 46t-49 26.5t-64.5 8.5h-140q-10 0 -18.5 -7t-15 -19t-10 -26.5t-4.5 -29.5v-380q12 37 39 67t59 52l80 55q19 16 35 32q13 14 24 28t11 24h7zM579 698h163v-8q-11 0 -19.5 -7t-15 -19t-10 -26.5t-4.5 -29.5v-519
q1 -15 4.5 -29.5t10 -26.5t15 -19t19.5 -7v-7h-163v7q10 0 18.5 7t15 19t10 26.5t4.5 29.5v519q-1 15 -4.5 29.5t-10 26.5t-15 19t-18.5 7v8z" />
    <glyph glyph-name="fl" unicode="&#xfb02;" horiz-adv-x="1098" 
d="M400 486v-161h-7v21q-1 11 -4.5 23.5t-12.5 21t-25 8.5t-41 -15l-62 -43q-20 -14 -38 -30.5t-32.5 -36t-23.5 -42t-9 -47.5v-95q1 -15 4.5 -29.5t10 -26.5t15 -19t18.5 -7v-8h-163v8q10 0 19 7t15.5 19t10 26.5t4.5 29.5v518q-1 15 -4.5 29.5t-10 26.5t-15.5 19t-19 7v8
h444l15 -51l30 -103l-7 -2q-13 39 -28.5 67t-37 46t-49 26.5t-64.5 8.5h-140q-10 0 -18.5 -7t-15 -19t-10 -26.5t-4.5 -29.5v-380q12 37 39 67t59 52l80 55q19 16 35 32q13 14 24 28t11 24h7zM882 7q73 0 113 35.5t65 113.5l8 -2l-31 -103l-15 -51h-443v7q10 0 18.5 7t15 19
t10 26.5t4.5 29.5v519q-1 15 -4.5 29.5t-10 26.5t-15 19t-18.5 7v8h163v-8q-11 0 -19.5 -7t-15 -19t-10 -26.5t-4.5 -29.5v-519q1 -15 4.5 -29.5t10 -26.5t15 -19t19.5 -7h140z" />
    <glyph glyph-name="_0127" 
 />
    <glyph glyph-name="_0129" 
 />
    <glyph glyph-name="_0141" 
 />
    <glyph glyph-name="_0142" 
 />
    <glyph glyph-name="_0143" 
 />
    <glyph glyph-name="_0144" 
 />
    <glyph glyph-name="_0157" 
 />
    <glyph glyph-name="_0158" 
 />
    <glyph glyph-name="_0023" 
 />
    <glyph glyph-name="_0022" 
 />
    <glyph glyph-name="_0024" 
 />
    <glyph glyph-name="_0014" 
 />
    <glyph glyph-name="_0015" 
 />
    <glyph glyph-name="_0016" 
 />
    <glyph glyph-name="_0017" 
 />
    <glyph glyph-name="_0018" 
 />
    <glyph glyph-name="_0019" 
 />
    <glyph glyph-name="_0020" 
 />
    <glyph glyph-name="_0021" 
 />
    <glyph glyph-name="_0009" 
 />
    <glyph glyph-name="_0007" 
 />
    <glyph glyph-name="_0004" 
 />
    <glyph glyph-name="_0003" 
 />
    <glyph glyph-name="_0002" 
 />
    <glyph glyph-name="_0001" 
 />
    <glyph glyph-name="_0000" 
 />
    </font>
</defs>
</svg>
