<?xml version="1.0" standalone="no"?>
<!DOCTYPE svg PUBLIC "-//W3C//DTD SVG 1.1//EN" "http://www.w3.org/Graphics/SVG/1.1/DTD/svg11.dtd" >
<svg xmlns="http://www.w3.org/2000/svg" xmlns:xlink="http://www.w3.org/1999/xlink" version="1.1">
<metadata>
Created by FontForge 20201107 at Mon Nov  4 12:23:15 2024
 By 
Copyright (c) 2021 by Whymore.inc. All rights reserved.
</metadata>
<defs>
<font id="Chandra" horiz-adv-x="0" >
  <font-face 
    font-family="Chandra"
    font-weight="400"
    font-stretch="normal"
    units-per-em="2048"
    panose-1="2 0 5 3 0 0 0 2 0 4"
    ascent="1536"
    descent="-512"
    x-height="1425"
    cap-height="1430"
    bbox="-473 -965 2873.41 2099"
    underline-thickness="102"
    underline-position="-204"
    unicode-range="U+000D-FB02"
  />
<missing-glyph horiz-adv-x="591" 
 />
    <glyph glyph-name=".notdef" horiz-adv-x="591" 
 />
    <glyph glyph-name=".null" 
 />
    <glyph glyph-name="nonmarkingreturn" horiz-adv-x="682" 
 />
    <glyph glyph-name="NULL" 
 />
    <glyph glyph-name="NULL" 
 />
    <glyph glyph-name="CR" unicode="&#xd;" horiz-adv-x="591" 
 />
    <glyph glyph-name="space" unicode=" " horiz-adv-x="591" 
 />
    <glyph glyph-name="exclam" unicode="!" horiz-adv-x="282" 
d="M119 344l-45 1086h135l-47 -1086h-43zM156 147l59 -59q14 -14 0 -31l-59 -57q-14 -14 -29 0l-59 57q-14 17 0 31l59 59q6 6 14.5 6t14.5 -6z" />
    <glyph glyph-name="quotedbl" unicode="&#x22;" horiz-adv-x="387" 
d="M147 1479v-271h-86v271h86zM326 1479v-271h-86v271h86z" />
    <glyph glyph-name="numbersign" unicode="#" horiz-adv-x="1523" 
d="M541 385v-440h-35v440h-445v37h445v674h-445v37h445v493h35v-493h442v493h37v-493h442v-37h-442v-674h442v-37h-442v-440h-37v440h-442zM983 1096h-442v-674h442v674z" />
    <glyph glyph-name="dollar" unicode="$" horiz-adv-x="1064" 
d="M524 1501h17v-71q104 -14 184 -74q16 -11 34 -25t31 -25t27 -22.5t24.5 -18.5t19.5 -11t15.5 -2.5t10.5 8.5v145h14v-459h-14q0 210 -111 340q-93 110 -235 127v-620q174 -83 234 -120q168 -105 211 -243q23 -75 13 -166q-9 -81 -51.5 -142.5t-107 -96t-137.5 -51.5
t-152 -17h-10v-68h-17v68q-88 3 -170 33q-45 10 -137 76q-71 51 -93 53q-23 2 -28 -27q-2 -10 -2 -24v-93h-14v459h14q0 -219 119 -338q113 -116 311 -123v643q-18 8 -64.5 27t-67 28t-62.5 29.5t-62.5 34t-54.5 37.5t-51.5 45.5t-40.5 53t-33.5 64t-18.5 74t-8 87.5
q0 80 38 145.5t99 106.5t134.5 63.5t148.5 22.5q29 0 43 -2v69zM524 801v614q-14 2 -43 2q-103 0 -183 -51.5t-106.5 -133.5t17.5 -185q25 -53 77.5 -100.5t103.5 -76.5t134 -69zM541 610v-637q2 -2 10 -2q115 0 202 82.5t87 198.5q0 60 -16.5 110t-42 85t-67 66.5t-80 52
t-93.5 44.5z" />
    <glyph glyph-name="percent" unicode="%" horiz-adv-x="1658" 
d="M408 1438q98 0 178 -54t123 -140t43 -183q0 -151 -98 -265t-246 -114q-149 0 -248 114t-99 265q0 150 99 263.5t248 113.5zM1253 752q148 0 246 -114t98 -265t-98 -264t-246 -113t-247 113t-99 264t99 265t247 114zM1249 2h4q66 0 120.5 35t87.5 90.5t51 119.5t18 126
t-18 125.5t-51 119t-87.5 90.5t-120.5 35h-4q-86 -2 -150.5 -62t-94 -142t-29.5 -166q0 -61 17.5 -124.5t50.5 -118.5t87 -91t119 -37zM408 1430h-5q-65 -1 -119 -36t-87 -90t-50.5 -118.5t-17.5 -124.5q0 -85 29.5 -167t94 -142.5t150.5 -61.5h5q86 0 151 60.5t95 143
t30 167.5q0 84 -30 166t-95 142.5t-151 60.5zM436 0l639 1430h148l-641 -1430h-146zM1268 434l53 -53q11 -15 0 -29l-53 -53q-14 -11 -29 0l-53 53q-11 14 0 29l53 53q15 11 29 0zM420 1120l53 -53q6 -6 6 -14.5t-6 -12.5l-53 -53q-4 -6 -12.5 -6t-14.5 6l-53 53
q-6 4 -6 12.5t6 14.5l53 53q6 6 14.5 6t12.5 -6z" />
    <glyph glyph-name="ampersand" unicode="&#x26;" horiz-adv-x="1648" 
d="M1511 893v-16q-45 0 -90 -24.5t-80 -63t-61 -75.5t-43 -73l-18 -39q-12 -28 -50 -98q-85 -162 -192 -277q65 -79 128 -135t131 -93t136 -33.5t127 50.5q72 59 72 230h16q0 -182 -80 -242q-61 -50 -135 -58t-151 22t-150.5 80t-150.5 122q-128 -120 -268 -182t-261 -54
q-142 9 -234.5 90t-93.5 218q-1 89 35 172t98.5 147t138.5 112t159 77q-31 77 -49.5 154.5t-25 157.5t11.5 147.5t57 119t114.5 77.5t181.5 19h9v-2q31 -3 47 -8q116 -31 178 -129q54 -77 43 -160q0 -6 -4 -18q-31 -122 -164 -215q-109 -73 -246 -117l15 -35
q35 -86 116.5 -227.5t179.5 -265.5q120 130 197 264q47 92 68 154q12 51 2.5 87.5t-34 60.5t-50 38t-45.5 20l-19 5v16h434zM524 682l-22 51q-119 -53 -183 -172.5t-67 -259.5q-1 -47 7.5 -97t26.5 -100.5t53.5 -88t82.5 -48.5q12 -4 22 -4q91 -10 213 50.5t242 174.5
q-122 120 -227.5 263t-147.5 231zM639 799q100 49 168 112q107 100 141 226q27 97 6 159q-25 81 -125 105q-14 5 -38 8q-68 0 -116 -23t-73 -59t-35 -88.5t-7 -105.5t16 -115.5t28 -113.5t35 -105z" />
    <glyph glyph-name="quotesingle" unicode="'" horiz-adv-x="208" 
d="M147 1479v-271h-86v271h86z" />
    <glyph glyph-name="parenleft" unicode="(" horiz-adv-x="450" 
d="M156 1751h233v-16h-102q-97 -619 -97 -1018t97 -1018h102v-16h-233q-95 641 -95 1034q0 417 95 1034z" />
    <glyph glyph-name="parenright" unicode=")" horiz-adv-x="450" 
d="M61 1751h234q94 -610 94 -1034q0 -400 -94 -1034h-234v16h103q96 612 96 1018t-96 1018h-103v16z" />
    <glyph glyph-name="asterisk" unicode="*" horiz-adv-x="569" 
d="M504 1542q15 -48 -45 -61q-18 -4 -52 -7.5t-73 -5.5t-41 -2q20 -14 63.5 -50.5t61.5 -57.5q22 -28 20.5 -46t-18.5 -30q-40 -28 -72 25q-18 31 -63 153q-7 -23 -28.5 -76t-35.5 -77q-33 -54 -71 -25q-17 12 -18.5 30t20.5 46q31 36 124 108q-2 0 -41 2t-72.5 5.5
t-51.5 7.5q-60 13 -48 61q20 46 74 23q32 -15 142 -88q-1 4 -10 38t-17.5 70t-11.5 55q-1 33 11.5 48.5t33.5 15.5t33.5 -15.5t9.5 -48.5q-6 -64 -39 -163q5 3 35 22.5t60.5 38.5t47.5 27q33 11 50 4t22 -27z" />
    <glyph glyph-name="plus" unicode="+" horiz-adv-x="759" 
d="M399 698v-299h-37v299h-301v37h301v301h37v-301h299v-37h-299z" />
    <glyph glyph-name="comma" unicode="," horiz-adv-x="346" 
d="M195 215l81 -80q8 -9 8 -21.5t-8 -21.5l-71 -69q-7 -39 -33 -66t-76 -27v23q51 0 51 63l-75 76q-9 9 -9 21.5t9 21.5l80 80q9 9 21.5 9t21.5 -9z" />
    <glyph glyph-name="hyphen" unicode="-" horiz-adv-x="757" 
d="M61 735h635v-37h-635v37z" />
    <glyph glyph-name="period" unicode="." horiz-adv-x="348" 
d="M195 217l81 -84q9 -7 9 -19.5t-9 -21.5l-81 -82q-9 -9 -21 -9t-20 9l-84 82q-8 9 -8 21.5t8 19.5l84 84q8 7 20 7t21 -7z" />
    <glyph glyph-name="slash" unicode="/" horiz-adv-x="798" 
d="M61 0l639 1430h37l-641 -1430h-35z" />
    <glyph glyph-name="zero" unicode="0" horiz-adv-x="1036" 
d="M518 1436q79 0 147.5 -35t117 -94.5t86.5 -133.5t60.5 -156t34 -158t11.5 -144t-11.5 -144.5t-34 -159t-60.5 -156.5t-86.5 -133.5t-117 -94.5t-147.5 -35t-147.5 35t-117 94.5t-86.5 133.5t-60.5 156.5t-34 159t-11.5 144.5t11.5 144t34 158t60.5 156t86.5 133.5
t117 94.5t147.5 35zM518 8q70 0 126.5 60.5t91.5 160t54 226.5t19 259.5t-19 259.5t-54 226.5t-91.5 160t-126.5 60.5q-73 0 -132 -60.5t-95 -160t-56 -226.5t-20 -259.5t20 -259.5t56 -226.5t95 -160t132 -60.5z" />
    <glyph glyph-name="one" unicode="1" horiz-adv-x="495" 
d="M70 1108l-9 -8v24l129 148l136 158h22l-33 -37l19 20v-1229q3 -66 31 -117t69 -51v-16h-334v16q39 0 67.5 51.5t31.5 116.5v899q0 57 -44.5 63t-84.5 -38z" />
    <glyph glyph-name="two" unicode="2" horiz-adv-x="1077" 
d="M995 246l21 2l-178 -248h-777q138 132 263 287q130 159 270 364q106 160 143 293q36 131 -8 217q-42 89 -147 119q-89 25 -185 6q-99 -19 -170 -78q-92 -76 -98 -184h-16q8 215 170 332q63 45 139 67l24 7h216q122 -29 186 -117q78 -110 29 -301q-54 -201 -213 -398
q-113 -141 -293 -329q-66 -71 -148 -150h473q81 0 172 30.5t127 80.5z" />
    <glyph glyph-name="three" unicode="3" horiz-adv-x="956" 
d="M467 723q428 -14 428 -375q0 -167 -139 -276q-60 -46 -148 -76q-83 -25 -168 -25h-22q-55 -3 -117 13q-137 33 -225 151l12 10q58 -74 145 -114t185 -43q46 0 96 16q100 30 168 117q74 94 74 227q0 90 -22 157t-54.5 104.5t-80.5 60t-89.5 29.5t-91.5 8q-48 0 -66 -2
q-9 0 -26.5 -1.5t-26.5 -1.5h-6v17h10q134 3 227 86q107 88 134 231q19 92 -2.5 158.5t-75.5 103.5q-48 33 -113 43q-66 6 -131 -12q-100 -30 -173 -109t-91 -200l-17 2q28 186 144 299q117 117 276 117q106 -1 183 -55.5t114 -141.5q30 -75 27 -149q-3 -82 -39 -152
q-84 -167 -299 -217z" />
    <glyph glyph-name="four" unicode="4" horiz-adv-x="1097" 
d="M725 455v807l-551 -807h551zM823 1434h19h18v-979h176l-106 -136h-70v-137q3 -64 31 -116t67 -52v-14h-331v14q39 0 67 52t31 116v137h-664l381 558t381 557z" />
    <glyph glyph-name="five" unicode="5" horiz-adv-x="968" 
d="M895 1430l-107 -136h-413l-199 -374q136 0 148 2q9 0 33.5 1t37.5 1h19q58 0 122.5 -17t131 -55.5t119.5 -92.5t86.5 -135.5t33.5 -177.5q0 -209 -146 -343.5t-358 -131.5q-102 2 -191 43.5t-151 120.5l13 10q60 -76 146.5 -117.5t182.5 -39.5q113 2 198 71t126 171
t41 216q0 90 -24 167.5t-62 130t-86 90t-96.5 55t-93.5 18.5q-16 0 -43 -1t-39 -1q-3 0 -69.5 -1t-86.5 -1h-18l278 527h467z" />
    <glyph glyph-name="six" unicode="6" horiz-adv-x="1019" 
d="M948 1419v-16h-16q-131 -3 -260.5 -67t-227.5 -179q-112 -127 -174 -407q52 45 92 69q117 72 238 72q118 0 202.5 -72.5t125.5 -189.5q30 -85 30 -183q0 -90 -32 -184q-46 -120 -150 -194.5t-260 -75.5h-4q-133 1 -231 63t-148 160.5t-64.5 224.5t9.5 252.5t85 248
t152 206.5q133 124 302 195.5t315 76.5h16zM264 719q-24 -128 -24.5 -249t22.5 -224.5t83 -168.5t151 -69h22q94 1 158 75t94 191q20 80 23 177q0 86 -19 170q-23 102 -72 164.5t-118 62.5v-2q-121 0 -228 -60q-44 -23 -92 -67z" />
    <glyph glyph-name="seven" unicode="7" horiz-adv-x="1032" 
d="M971 1430l-504 -1430h-143l497 1413h-379q-147 0 -229.5 -70.5t-134.5 -232.5l-17 4l64 211l31 105h815z" />
    <glyph glyph-name="eight" unicode="8" horiz-adv-x="937" 
d="M557 805l-18 -8q116 -68 193 -154.5t114 -181.5q49 -143 16 -252t-137.5 -174t-251.5 -66h-4q-163 0 -272 78q-105 75 -127 211q-28 155 75 277q65 76 189 157l-12 6q-90 47 -154.5 122.5t-91 161t-5 178.5t94.5 169q107 107 256 107h31q145 0 260 -90q56 -44 87 -102
t31 -118q0 -50 -13 -90.5t-31 -67.5t-59.5 -58t-73 -50t-97.5 -55zM469 -14h4q165 1 226 101.5t-5 248.5q-42 93 -127.5 183t-208.5 159q-68 -63 -112 -152q-63 -139 -31 -264q41 -151 107 -217q59 -59 147 -59zM449 1421l-3 -2h-24q-83 0 -142.5 -48.5t-72.5 -129.5
q-12 -67 9 -132t65.5 -118t97.5 -95t113 -73l26 -14q75 53 105 92q69 87 69 225q0 133 -47 203q-59 89 -192 92h-4z" />
    <glyph glyph-name="nine" unicode="9" horiz-adv-x="1017" 
d="M70 -8v16h18q131 3 259 67t228 179q55 64 100.5 173t72.5 235q-48 -44 -93 -70q-117 -72 -235 -72t-203.5 73t-124.5 189q-31 88 -31 183q0 99 33 184q46 121 149.5 195t260.5 75h4q132 -1 230 -63t148 -160.5t64 -224.5t-10 -252.5t-85.5 -248t-152.5 -206.5
q-131 -124 -299.5 -195.5t-314.5 -76.5h-18zM754 692q24 128 25 249.5t-22.5 224.5t-83.5 168t-151 69h-20q-95 -1 -159.5 -75t-94.5 -191q-21 -96 -21 -174q0 -97 17 -172q25 -103 73.5 -164.5t118.5 -61.5q121 0 228 60q40 20 90 67z" />
    <glyph glyph-name="colon" unicode=":" horiz-adv-x="348" 
d="M195 217l81 -84q9 -7 9 -19.5t-9 -21.5l-81 -82q-9 -9 -21 -9t-20 9l-84 82q-8 9 -8 21.5t8 19.5l84 84q8 7 20 7t21 -7zM195 887l81 -84q9 -7 9 -19.5t-9 -21.5l-81 -82q-9 -9 -21.5 -9t-19.5 9l-84 82q-8 9 -8 21.5t8 19.5l84 84q8 7 20 7t21 -7z" />
    <glyph glyph-name="semicolon" unicode=";" horiz-adv-x="350" 
d="M197 887l82 -84q9 -7 9 -19.5t-9 -21.5l-82 -82q-9 -9 -21 -9t-20 9l-84 82q-8 9 -8 21.5t8 19.5l84 84q8 7 20 7t21 -7zM287 117v-8q0 -54 -6 -87t-25 -59.5t-55 -37.5t-95 -11v23q60 0 83 23t26 69l-18 -19q-9 -9 -21.5 -9t-21.5 9l-82 82q-9 9 -9 21.5t9 19.5l82 84
q9 7 21.5 7t21.5 -7l82 -84q8 -8 8 -16z" />
    <glyph glyph-name="less" unicode="&#x3c;" horiz-adv-x="1175" 
d="M1114 279v-144l-1053 414v141l1053 414v-141l-872 -342z" />
    <glyph glyph-name="equal" unicode="=" horiz-adv-x="759" 
d="M61 809h637v-37h-637v37zM61 664h637v-37h-637v37z" />
    <glyph glyph-name="greater" unicode="&#x3e;" horiz-adv-x="1175" 
d="M61 135v144l873 342l-873 342v141l1053 -414v-141z" />
    <glyph glyph-name="question" unicode="?" horiz-adv-x="985" 
d="M387 358h-14q0 64 0.5 101t3.5 87.5t9 80.5t16.5 66.5t26.5 60t39 47t54 41.5q109 52 180 117t96.5 127.5t16 123.5t-51 106t-114.5 73t-166 28q-81 0 -160 -32t-137 -99q-108 -127 -108 -340h-17v459h17v-145q3 -7 9.5 -8.5t15.5 2.5t19.5 11t24.5 18.5t27.5 22.5
t31.5 25t34 25q108 78 243 78q120 0 215.5 -40.5t149 -104.5t69.5 -146.5t-9.5 -163t-102 -157t-195.5 -126.5l-2 -2q-115 -44 -168 -126t-53 -210zM410 147l59 -59q14 -14 0 -31l-59 -57q-14 -14 -29 0l-59 57q-14 17 0 31l59 59q6 6 14.5 6t14.5 -6z" />
    <glyph glyph-name="at" unicode="@" horiz-adv-x="2934" 
d="M2175 1266q-254 -576 -377 -828q-42 -85 -54.5 -147t2 -97t47.5 -50.5t83 -12.5q69 4 141 29t156.5 81.5t164 139.5t161.5 212t151 290q177 411 54 707q-90 219 -327 331q-256 120 -598 81q-383 -45 -733 -275q-369 -243 -612 -640q-161 -263 -224.5 -501.5t-34.5 -418.5
t124 -325t241.5 -233t329 -129.5t375 -29t391 83t367.5 194.5l14 -33q-160 -123 -360.5 -193t-403 -82.5t-399.5 31.5t-359.5 135t-272 243t-148 340.5t24 441.5t233.5 534q254 421 674 666q370 217 779 250q372 29 655 -101q264 -122 370 -352q142 -307 -34 -726
q-2 -6 -5 -12q-59 -135 -134 -248.5t-150 -191.5t-158 -139t-155.5 -97t-143.5 -59t-121 -31t-90 -8q-349 0 -119 436l20 41q-315 -442 -641 -475q-159 -17 -261 48.5t-123 202t59 339.5q66 159 176 301.5t236 242.5t262.5 159.5t257.5 62.5q39 3 73 0q202 -17 256 -145
q42 -94 160 -43zM1952 1071l2 2l6 14q38 97 30.5 161.5t-47 101.5t-84 55t-80.5 23l-36 4q-62 6 -136 -7.5t-162.5 -53t-171 -101t-163.5 -163t-139 -228.5q-54 -119 -80.5 -232.5t-22 -206.5t36 -161.5t97.5 -101.5t159 -21q81 10 171.5 63.5t172.5 135.5t153.5 173.5
t131.5 190.5q112 236 162 352z" />
    <glyph glyph-name="A" unicode="A" horiz-adv-x="1581" 
d="M547 1430h272l490 -1154q50 -119 109.5 -189.5t101.5 -70.5v-16h-334v16h8q78 0 0 189l-276 647l-553 -418l-89 -192q-31 -67 -41 -121t-2 -79.5t27 -25.5v-16h-199v16q41 0 89 43.5t90 137.5l491 1095q-3 5 -8.5 13t-24.5 29t-39 37t-50.5 29t-61.5 13v17zM377 465
l534 401l-172 406zM758 453l106 -107q12 -11 12 -27t-12 -28l-106 -107q-10 -10 -26 -10t-27 10l-107 107q-12 12 -12 28.5t12 26.5l107 107q11 11 27 11t26 -11z" />
    <glyph glyph-name="B" unicode="B" horiz-adv-x="1189" 
d="M1012 1094q0 -54 -9.5 -99.5t-25 -78t-41 -59.5t-50.5 -44.5t-62 -33.5t-67 -25.5t-73 -20.5h14q121 0 217 -41q113 -48 166 -141q65 -115 40.5 -232.5t-128.5 -199.5q-77 -60 -176.5 -89.5t-183.5 -29.5h-572v16q41 0 69.5 51.5t31.5 116.5v277h-2l2 2v782
q-3 65 -31.5 116.5t-69.5 51.5v17h574q72 -2 143.5 -26t126.5 -69q110 -92 107 -241zM592 709h-2q-67 -19 -127 -45q-51 -25 -109 -68v-2l-59 -43v-367q5 -66 33 -117t67 -51h238q65 0 132.5 31t121.5 86q84 89 100 207t-45 223q-43 77 -125 115q-69 35 -164 35
q-21 0 -61 -4zM295 571l49 35q0 1 1 2t1 2q37 32 97.5 63.5t109.5 43.5q20 7 52 18.5t50.5 17.5t46 17.5t43 21.5t37 26t33.5 33t25.5 42t20.5 53.5t11.5 66t4.5 81.5q3 168 -68 249q-61 70 -176 70h-238q-39 0 -67 -51t-33 -117v-674z" />
    <glyph glyph-name="C" unicode="C" horiz-adv-x="1439" 
d="M791 8q62 0 126.5 9t120 24t109.5 35t99 41.5t85 43t70.5 41.5t52 35t33.5 24l12 9l10 -10q-6 -6 -37.5 -29t-103.5 -65.5t-154.5 -80t-197.5 -65.5t-225 -28q-311 0 -504 190q-63 63 -110.5 142.5t-71 154t-34 133t-10.5 101.5v6q1 163 59 298t159.5 225t240.5 139
t301 49h2q32 -1 83.5 -5.5t166.5 -28t178 -59.5l15 4l94 -319l-14 -6l-7 20q-29 91 -94.5 166.5t-141.5 119.5t-149.5 67.5t-130.5 23.5h-2q-144 0 -263 -56t-196.5 -152t-120 -221t-42.5 -265v-6q0 -60 14 -139.5t58 -190t112 -190.5q154 -185 408 -185zM852 838l106 -107
q12 -11 12 -27t-12 -28l-106 -107q-10 -11 -26 -11t-27 11l-107 107q-12 12 -12 28t12 27l107 107q11 10 27 10t26 -10z" />
    <glyph glyph-name="D" unicode="D" horiz-adv-x="1374" 
d="M61 1430h574q186 -4 343 -104t246 -262.5t89 -348.5q0 -188 -90 -352.5t-247.5 -263.5t-342.5 -99h-572v16q40 0 68 51t33 117v1061q-5 66 -33 117t-68 51v17zM498 545l465 350q28 18 47 41q60 60 63 123q2 33 -14 78l-45 65l-10 10v2q-152 191 -371 199h-238
q-39 0 -67 -51t-33 -117v-944q15 43 49 96q58 78 154 148zM1090 1081v-22q-6 -71 -70 -135q-11 -13 -47 -41l-467 -351q-98 -70 -148 -145q-60 -83 -63 -174v-29q5 -66 33 -117t67 -51h238q101 0 189.5 42t152 112.5t110 161.5t69 189t22.5 194q0 186 -86 366z" />
    <glyph glyph-name="E" unicode="E" horiz-adv-x="1124" 
d="M805 995h14v-329h-14v43q-2 21 -6.5 38.5t-16.5 36.5t-29.5 27t-48 3t-69.5 -28l-127 -88q-91 -63 -150.5 -144.5t-62.5 -174.5v-195q5 -66 33 -117t67 -51h287q148 0 231 70t136 233l14 -4l-62 -211l-30 -104h-910v16q41 0 69.5 51.5t31.5 116.5v1061q-3 65 -31.5 116.5
t-69.5 51.5v17h910l30 -105l62 -211l-14 -4q-53 163 -136 233t-231 70h-287q-39 0 -67 -51t-33 -117v-778q48 138 203 244l164 112q16 13 39.5 34.5t63.5 67.5t40 70z" />
    <glyph glyph-name="F" unicode="F" horiz-adv-x="1124" 
d="M805 995h14v-329h-14v43q-1 21 -5.5 39t-16.5 36.5t-30 26.5t-48.5 3t-69.5 -28l-127 -88q-208 -146 -211 -319v-195q3 -65 31 -116.5t67 -51.5v-16h-334v16q41 0 69.5 51.5t31.5 116.5v1061q-3 65 -31.5 116.5t-69.5 51.5v17h910l30 -105l62 -211l-14 -4
q-53 163 -136 233t-231 70h-287q-39 0 -67 -51.5t-31 -116.5v-778q45 137 201 244l164 112q16 13 39.5 34.5t63.5 67.5t40 70z" />
    <glyph glyph-name="G" unicode="G" horiz-adv-x="1472" 
d="M223 526l6 -12q27 -66 78 -82q45 -16 107 4q79 25 166 94h2l333 252l93 70h26q-33 -26 -19 -48t56 -22h270v-397q0 -115 44.5 -143t113.5 28l10 -10q-4 -4 -28 -22t-81.5 -54t-119.5 -67q-256 -125 -489 -125q-311 0 -504 190q-63 63 -110.5 142.5t-71 154t-34 133
t-10.5 101.5v6q1 163 59 298t159.5 225t240.5 139t301 49h2q32 -1 83.5 -5.5t166.5 -28t178 -59.5l15 4l94 -319l-14 -6l-7 20q-29 91 -94.5 166.5t-141.5 119.5t-149.5 67.5t-130.5 23.5h-2q-145 0 -264 -56.5t-196.5 -153t-119.5 -222t-42 -266.5q0 -82 24 -189zM920 766
l-330 -248q-87 -70 -170 -98q-66 -19 -117 -2q-34 9 -61 43q53 -164 141 -268q154 -185 408 -185q202 0 417 92v666h-288z" />
    <glyph glyph-name="H" unicode="H" horiz-adv-x="1351" 
d="M956 1413v17h334v-17q-39 0 -67 -51.5t-31 -116.5v-1063q3 -65 31 -116.5t67 -51.5v-14h-334v14q41 0 69.5 51.5t31.5 116.5v772l-762 -571v-201q3 -65 31 -116.5t67 -51.5v-14h-332v14q39 0 67.5 51.5t31.5 116.5v1063q-3 65 -31.5 116.5t-67.5 51.5v17h332v-17
q-39 0 -67 -51.5t-31 -116.5v-844l762 574v270q-3 65 -31.5 116.5t-69.5 51.5z" />
    <glyph glyph-name="I" unicode="I" horiz-adv-x="456" 
d="M61 1413v17h334v-17q-41 0 -69 -51t-31 -117v-1063q3 -66 31 -117t69 -51v-14h-334v14q39 0 67.5 51.5t31.5 116.5v1063q-3 65 -31.5 116.5t-67.5 51.5z" />
    <glyph glyph-name="J" unicode="J" horiz-adv-x="747" 
d="M586 1245v-700q-3 -326 -180 -482q-117 -104 -343 -145l-2 16q91 17 158 48t117 92q115 137 115 471v700q-3 65 -31.5 116.5t-67.5 51.5v17h334v-17q-41 0 -69 -51t-31 -117z" />
    <glyph glyph-name="K" unicode="K" horiz-adv-x="1351" 
d="M926 1413v17h334v-17q-150 0 -342 -143l-224 -166l373 -813q58 -124 117.5 -200.5t105.5 -76.5v-14h-334v14q24 0 34 22.5t1 72t-41 116.5l-364 797l-291 -219v-621q3 -66 31 -117t69 -51v-14h-334v14q39 0 67.5 51.5t31.5 116.5v1063q-3 65 -31.5 116.5t-67.5 51.5v17
h334v-17q-41 0 -69 -51t-31 -117v-422l612 459q121 92 77 120q-17 11 -58 11z" />
    <glyph glyph-name="L" unicode="L" horiz-adv-x="1124" 
d="M395 14h287q147 0 230 71.5t135 233.5l16 -4l-64 -211l-30 -104h-908v14q39 0 67.5 51.5t31.5 116.5v1063q-3 65 -31.5 116.5t-67.5 51.5v17h334v-17q-41 0 -69 -51t-31 -117v-1063q3 -66 31 -117t69 -51z" />
    <glyph glyph-name="M" unicode="M" horiz-adv-x="1687" 
d="M131 1434h148l583 -1262l508 1219q-12 28 -43 28v15h299v-15q-41 0 -69 -52t-31 -118v-1065q3 -66 31 -118t69 -52v-14h-336v14q41 0 69.5 52t31.5 118v1047q0 99 -13 139l-508 -1216l72 -154h-135l-2 -4l-6 4h-6v2h-2v2l-621 1348v-1182q3 -63 27.5 -109.5t62.5 -46.5
v-14h-199v14q39 0 64.5 46.5t28.5 109.5v1216z" />
    <glyph glyph-name="N" unicode="N" horiz-adv-x="1421" 
d="M1204 1257v-1060l156 -197h-172l-950 1206v-1036q3 -64 27 -110t63 -46v-14h-199v14q39 0 64 46.5t28 109.5v1057l-160 203h177v-7l950 -1206v1040q-3 63 -27.5 109.5t-62.5 46.5v17h196v-17q-38 0 -62.5 -46.5t-27.5 -109.5z" />
    <glyph glyph-name="O" unicode="O" horiz-adv-x="1503" 
d="M752 -41q-149 0 -279.5 64t-219.5 169t-140.5 242.5t-51.5 282.5t51.5 281.5t140.5 241.5t219.5 169t279.5 64t279.5 -64t219.5 -169t140 -241.5t51 -281.5t-51 -282.5t-140 -242.5t-219.5 -169t-279.5 -64zM752 1456h-9q-105 -2 -195.5 -49t-153.5 -123t-108.5 -172.5
t-67 -197.5t-21.5 -197q0 -97 21.5 -198.5t67 -198t108.5 -173t153.5 -123.5t195.5 -49h9q107 0 199 46.5t156 123t110 173.5t68 199t22 200q0 97 -22 198.5t-68 198.5t-110 173t-156.5 122.5t-198.5 46.5zM778 838l107 -107q12 -12 12 -28.5t-12 -26.5l-107 -107
q-10 -11 -26 -11t-27 11l-107 107q-10 10 -10 26.5t10 28.5l107 107q11 10 27 10t26 -10z" />
    <glyph glyph-name="P" unicode="P" horiz-adv-x="1073" 
d="M1010 1092q0 -89 -24.5 -153t-68 -101t-97 -60.5t-118 -40t-124 -32t-121.5 -43.5t-105 -68l-57 -43v-369q3 -66 31 -117t69 -51v-14h-334v14q39 0 67.5 51.5t31.5 116.5v1063q-3 65 -31.5 116.5t-67.5 51.5v17h574q71 -2 143 -26.5t125 -70.5q56 -46 83 -109t24 -132z
M295 569l47 37q58 46 129 78.5t125.5 47.5t109.5 40t90.5 57.5t58 98.5t22.5 164v2q2 73 -16.5 140.5t-51.5 106.5q-60 69 -176 72h-238q-41 0 -69 -51t-31 -117v-676z" />
    <glyph glyph-name="Q" unicode="Q" horiz-adv-x="1503" 
d="M1442 717q0 -145 -51 -282.5t-140 -242.5t-219.5 -169t-279.5 -64q-6 0 -19.5 1t-19.5 1h-62q-157 0 -242 -56t-87 -126q-2 -50 23.5 -77.5t62.5 -33t87 1.5t86 17.5t72 23.5q33 10 121 47q333 146 479 109q67 -17 64 -72q-6 -49 -72 -96q-52 -35 -100 -51
q-134 -76 -408 -4l4 14q221 -59 396 4l8 4q47 28 47 70q-3 37 -51 57q-33 15 -82 17.5t-122 -14t-157 -52.5l-110 -45q-476 -169 -488 80q-2 47 27.5 83t74.5 56.5t106.5 34t111.5 18.5t102 6q-159 37 -284 148.5t-192 266.5t-67 325q0 145 51.5 282t141 242t220 168.5
t278.5 63.5q119 0 228 -41t192 -113.5t144.5 -167t93.5 -206.5t32 -228zM752 1458h-9q-130 -3 -237 -74.5t-172.5 -182t-101 -236.5t-35.5 -248q0 -120 34 -244t97 -233t166.5 -182t228.5 -81q12 -2 37 -2h6q103 3 193 51.5t152.5 124.5t107.5 172t66.5 197t21.5 197
q0 98 -22 199.5t-68 199t-110 173.5t-156 122.5t-199 46.5zM778 838l109 -107q11 -12 11 -27.5t-11 -27.5l-109 -107q-10 -11 -26 -11t-27 11l-107 107q-10 12 -10 27.5t10 27.5l107 107q11 10 27 10t26 -10z" />
    <glyph glyph-name="R" unicode="R" horiz-adv-x="1167" 
d="M1012 1094q0 -64 -11.5 -114.5t-36 -86.5t-51.5 -61.5t-69 -45t-76.5 -31t-85.5 -24.5l203 -440q57 -123 116.5 -200t104.5 -77v-14h-334v14q25 0 35 22.5t0.5 71.5t-41.5 117l-215 471q-133 -42 -197 -102l-57 -43v-367q3 -66 31 -118t67 -52v-14h-334v14q41 0 69.5 52
t31.5 118v1061q-3 65 -31.5 116.5t-69.5 51.5v17h576q158 -4 268 -95q56 -46 83 -109.5t24 -131.5zM297 571l47 35q94 73 260 129q34 11 51 17t46 17.5t43.5 21t37 26t33.5 33.5t25.5 42t21 54t11 66.5t4.5 81.5h2q2 74 -16.5 141.5t-53.5 107.5q-55 67 -174 70h-240
q-39 0 -67 -51.5t-31 -116.5v-674z" />
    <glyph glyph-name="S" unicode="S" horiz-adv-x="1062" 
d="M885 1284v146h16v-459h-16q0 212 -109 340q-58 67 -137 99t-160 32q-102 0 -182.5 -51.5t-106.5 -134t17 -185.5q29 -62 92.5 -114.5t138.5 -90t159 -76t159 -83t134 -99.5t88.5 -136.5t18.5 -184.5q-8 -81 -50.5 -142.5t-106.5 -96t-137 -51.5t-152 -17q-107 0 -199 32
q-44 11 -135 77q-72 52 -94 54t-27 -28q-2 -9 -2 -23v-92h-16v459h16q0 -220 117 -340q123 -123 340 -123q115 0 201 82t86 196q0 79 -26.5 140t-71.5 101t-103.5 72t-123 58t-128.5 53t-122.5 63t-103.5 82t-71.5 116t-26.5 159q0 79 38 145.5t99 108t134 64t147 22.5
q136 0 244 -78q16 -11 34 -25t31.5 -25t27.5 -22.5t24.5 -18.5t19.5 -11t15.5 -2.5t9.5 8.5z" />
    <glyph glyph-name="T" unicode="T" horiz-adv-x="1374" 
d="M520 1413h-160q-99 0 -170.5 -57t-105.5 -162l-6 -23l-17 5q23 70 76 254h1096q16 -46 80 -254l-15 -5l-8 23q-34 105 -105.5 162t-170.5 57h-160q-39 0 -67 -51t-33 -117v-1061q5 -66 33 -118t67 -52v-14h-334v14q41 0 69.5 52t31.5 118v1061q-3 65 -31.5 116.5
t-69.5 51.5z" />
    <glyph glyph-name="U" unicode="U" horiz-adv-x="1345" 
d="M1194 1257v-530q0 -75 -4 -141t-16 -144.5t-32 -142t-55 -125.5t-81.5 -104.5t-114.5 -69t-152 -27.5q-123 -2 -223 41t-164.5 116t-108.5 173t-62.5 205.5t-18.5 218.5v518q-5 66 -33.5 117t-67.5 51v17h334v-17q-40 0 -67.5 -50.5t-32.5 -117.5v-518q0 -74 4 -139
t16 -142.5t32.5 -139.5t56.5 -122.5t83.5 -100.5t118 -63t156.5 -20q416 14 416 727v530q-3 64 -28 110t-63 46v17h197v-17q-38 0 -62.5 -46t-27.5 -110z" />
    <glyph glyph-name="V" unicode="V" horiz-adv-x="1576" 
d="M770 0l-498 1153q-5 10 -13 27.5t-33 62t-49 78.5t-56.5 62t-59.5 28v14h334v-14h-8q-79 0 0 -188l453 -1067l460 1028q31 68 41.5 122t3 79.5t-25.5 25.5v14h197v-14q-41 0 -88 -42.5t-89 -137.5q-107 -239 -304.5 -678.5t-248.5 -552.5h-16z" />
    <glyph glyph-name="W" unicode="W" horiz-adv-x="1912" 
d="M1231 0h-17l-262 768l-280 -768h-17l-403 1180q-45 132 -89.5 182.5t-101.5 50.5v17h334v-17h-6q-22 0 -32.5 -7.5t-12.5 -29t6.5 -58t28.5 -95.5l350 -1022l215 590l-133 389q-45 132 -89 182.5t-101 50.5v17h333v-17h-6q-22 0 -32.5 -7.5t-12.5 -29t6.5 -58t28.5 -95.5
l80 -232l72 197q29 85 36.5 136t-1 70t-31.5 19v17h198v-17q-86 0 -141 -98l-125 -346l262 -768l361 987q29 85 36.5 136t-1 70t-31.5 19v17h198v-17q-87 0 -139 -98z" />
    <glyph glyph-name="X" unicode="X" horiz-adv-x="1404" 
d="M61 0v16q28 0 54 12t54.5 41t47 52t53.5 69l4 7l369 495l-389 590q-88 133 -182 133v17h334v-17q-22 0 -31 -9.5t-5.5 -27.5t13.5 -38.5t27 -47.5l317 -485l350 471q27 37 40.5 61.5t15.5 42t-11.5 25.5t-42.5 8v17h199v-17q-53 0 -98.5 -42t-112.5 -132l-330 -446
l422 -645q88 -134 184 -134v-14h-333v14q21 0 30 9.5t6 27.5t-13 39t-27 47l-355 539l-389 -524q-27 -36 -41 -61t-15.5 -42.5t12 -26t42.5 -8.5v-16h-199z" />
    <glyph glyph-name="Y" unicode="Y" horiz-adv-x="1499" 
d="M905 14v-14h-334v14q40 0 68 51.5t33 118.5v449l-426 647q-88 133 -185 133v17h334v-17q-21 0 -30 -9.5t-6 -27.5t13 -39t27 -47l273 -413l125 -193l438 592q27 37 41 61.5t16 42t-11 25.5t-42 8v17h199v-17q-29 0 -55 -12t-55 -41t-47.5 -52t-53.5 -69l-422 -569v-486
q5 -66 33 -118t67 -52z" />
    <glyph glyph-name="Z" unicode="Z" horiz-adv-x="1290" 
d="M236 14h559q148 0 231 71t135 234l15 -4l-62 -211l-31 -104h-1022l992 1413h-523q-148 0 -230 -70.5t-136 -232.5l-14 4l61 211l31 105h987z" />
    <glyph glyph-name="bracketleft" unicode="[" horiz-adv-x="356" 
d="M61 -317v2068h234v-16h-98v-2036h98v-16h-234z" />
    <glyph glyph-name="backslash" unicode="\" horiz-adv-x="798" 
d="M98 1430l639 -1430h-35l-641 1430h37z" />
    <glyph glyph-name="bracketright" unicode="]" horiz-adv-x="356" 
d="M295 1751v-2068h-234v16h99v2036h-99v16h234z" />
    <glyph glyph-name="asciicircum" unicode="^" horiz-adv-x="448" 
d="M225 1733l162 -398l-2 -20l-160 256l-159 -256l-5 20z" />
    <glyph glyph-name="underscore" unicode="_" horiz-adv-x="1404" 
d="M61 -123h1282v-37h-1282v37z" />
    <glyph glyph-name="grave" unicode="`" horiz-adv-x="479" 
d="M104 1690l314 -320l-6 -10l-351 242z" />
    <glyph glyph-name="a" unicode="a" horiz-adv-x="1581" 
d="M547 1430h272l490 -1154q50 -119 109.5 -189.5t101.5 -70.5v-16h-334v16h8q78 0 0 189l-276 647l-553 -418l-89 -192q-31 -67 -41 -121t-2 -79.5t27 -25.5v-16h-199v16q41 0 89 43.5t90 137.5l491 1095q-3 5 -8.5 13t-24.5 29t-39 37t-50.5 29t-61.5 13v17zM377 465
l534 401l-172 406zM758 453l106 -107q12 -11 12 -27t-12 -28l-106 -107q-10 -10 -26 -10t-27 10l-107 107q-12 12 -12 28.5t12 26.5l107 107q11 11 27 11t26 -11z" />
    <glyph glyph-name="b" unicode="b" horiz-adv-x="1189" 
d="M1012 1094q0 -54 -9.5 -99.5t-25 -78t-41 -59.5t-50.5 -44.5t-62 -33.5t-67 -25.5t-73 -20.5h14q121 0 217 -41q113 -48 166 -141q65 -115 40.5 -232.5t-128.5 -199.5q-77 -60 -176.5 -89.5t-183.5 -29.5h-572v16q41 0 69.5 51.5t31.5 116.5v277h-2l2 2v782
q-3 65 -31.5 116.5t-69.5 51.5v17h574q72 -2 143.5 -26t126.5 -69q110 -92 107 -241zM592 709h-2q-67 -19 -127 -45q-51 -25 -109 -68v-2l-59 -43v-367q5 -66 33 -117t67 -51h238q65 0 132.5 31t121.5 86q84 89 100 207t-45 223q-43 77 -125 115q-69 35 -164 35
q-21 0 -61 -4zM295 571l49 35q0 1 1 2t1 2q37 32 97.5 63.5t109.5 43.5q20 7 52 18.5t50.5 17.5t46 17.5t43 21.5t37 26t33.5 33t25.5 42t20.5 53.5t11.5 66t4.5 81.5q3 168 -68 249q-61 70 -176 70h-238q-39 0 -67 -51t-33 -117v-674z" />
    <glyph glyph-name="c" unicode="c" horiz-adv-x="1439" 
d="M791 8q62 0 126.5 9t120 24t109.5 35t99 41.5t85 43t70.5 41.5t52 35t33.5 24l12 9l10 -10q-6 -6 -37.5 -29t-103.5 -65.5t-154.5 -80t-197.5 -65.5t-225 -28q-311 0 -504 190q-63 63 -110.5 142.5t-71 154t-34 133t-10.5 101.5v6q1 163 59 298t159.5 225t240.5 139
t301 49h2q32 -1 83.5 -5.5t166.5 -28t178 -59.5l15 4l94 -319l-14 -6l-7 20q-29 91 -94.5 166.5t-141.5 119.5t-149.5 67.5t-130.5 23.5h-2q-144 0 -263 -56t-196.5 -152t-120 -221t-42.5 -265v-6q0 -60 14 -139.5t58 -190t112 -190.5q154 -185 408 -185zM852 838l106 -107
q12 -11 12 -27t-12 -28l-106 -107q-10 -11 -26 -11t-27 11l-107 107q-12 12 -12 28t12 27l107 107q11 10 27 10t26 -10z" />
    <glyph glyph-name="d" unicode="d" horiz-adv-x="1374" 
d="M61 1430h574q186 -4 343 -104t246 -262.5t89 -348.5q0 -188 -90 -352.5t-247.5 -263.5t-342.5 -99h-572v16q40 0 68 51t33 117v1061q-5 66 -33 117t-68 51v17zM498 545l465 350q28 18 47 41q60 60 63 123q2 33 -14 78l-45 65l-10 10v2q-152 191 -371 199h-238
q-39 0 -67 -51t-33 -117v-944q15 43 49 96q58 78 154 148zM1090 1081v-22q-6 -71 -70 -135q-11 -13 -47 -41l-467 -351q-98 -70 -148 -145q-60 -83 -63 -174v-29q5 -66 33 -117t67 -51h238q101 0 189.5 42t152 112.5t110 161.5t69 189t22.5 194q0 186 -86 366z" />
    <glyph glyph-name="e" unicode="e" horiz-adv-x="1124" 
d="M805 995h14v-329h-14v43q-2 21 -6.5 38.5t-16.5 36.5t-29.5 27t-48 3t-69.5 -28l-127 -88q-91 -63 -150.5 -144.5t-62.5 -174.5v-195q5 -66 33 -117t67 -51h287q148 0 231 70t136 233l14 -4l-62 -211l-30 -104h-910v16q41 0 69.5 51.5t31.5 116.5v1061q-3 65 -31.5 116.5
t-69.5 51.5v17h910l30 -105l62 -211l-14 -4q-53 163 -136 233t-231 70h-287q-39 0 -67 -51t-33 -117v-778q48 138 203 244l164 112q16 13 39.5 34.5t63.5 67.5t40 70z" />
    <glyph glyph-name="f" unicode="f" horiz-adv-x="1124" 
d="M805 995h14v-329h-14v43q-1 21 -5.5 39t-16.5 36.5t-30 26.5t-48.5 3t-69.5 -28l-127 -88q-208 -146 -211 -319v-195q3 -65 31 -116.5t67 -51.5v-16h-334v16q41 0 69.5 51.5t31.5 116.5v1061q-3 65 -31.5 116.5t-69.5 51.5v17h910l30 -105l62 -211l-14 -4
q-53 163 -136 233t-231 70h-287q-39 0 -67 -51.5t-31 -116.5v-778q45 137 201 244l164 112q16 13 39.5 34.5t63.5 67.5t40 70z" />
    <glyph glyph-name="g" unicode="g" horiz-adv-x="1472" 
d="M223 526l6 -12q27 -66 78 -82q45 -16 107 4q79 25 166 94h2l333 252l93 70h26q-33 -26 -19 -48t56 -22h270v-397q0 -115 44.5 -143t113.5 28l10 -10q-4 -4 -28 -22t-81.5 -54t-119.5 -67q-256 -125 -489 -125q-311 0 -504 190q-63 63 -110.5 142.5t-71 154t-34 133
t-10.5 101.5v6q1 163 59 298t159.5 225t240.5 139t301 49h2q32 -1 83.5 -5.5t166.5 -28t178 -59.5l15 4l94 -319l-14 -6l-7 20q-29 91 -94.5 166.5t-141.5 119.5t-149.5 67.5t-130.5 23.5h-2q-145 0 -264 -56.5t-196.5 -153t-119.5 -222t-42 -266.5q0 -82 24 -189zM920 766
l-330 -248q-87 -70 -170 -98q-66 -19 -117 -2q-34 9 -61 43q53 -164 141 -268q154 -185 408 -185q202 0 417 92v666h-288z" />
    <glyph glyph-name="h" unicode="h" horiz-adv-x="1351" 
d="M956 1413v17h334v-17q-39 0 -67 -51.5t-31 -116.5v-1063q3 -65 31 -116.5t67 -51.5v-14h-334v14q41 0 69.5 51.5t31.5 116.5v772l-762 -571v-201q3 -65 31 -116.5t67 -51.5v-14h-332v14q39 0 67.5 51.5t31.5 116.5v1063q-3 65 -31.5 116.5t-67.5 51.5v17h332v-17
q-39 0 -67 -51.5t-31 -116.5v-844l762 574v270q-3 65 -31.5 116.5t-69.5 51.5z" />
    <glyph glyph-name="i" unicode="i" horiz-adv-x="456" 
d="M61 1413v17h334v-17q-41 0 -69 -51t-31 -117v-1063q3 -66 31 -117t69 -51v-14h-334v14q39 0 67.5 51.5t31.5 116.5v1063q-3 65 -31.5 116.5t-67.5 51.5z" />
    <glyph glyph-name="j" unicode="j" horiz-adv-x="747" 
d="M586 1245v-700q-3 -326 -180 -482q-117 -104 -343 -145l-2 16q91 17 158 48t117 92q115 137 115 471v700q-3 65 -31.5 116.5t-67.5 51.5v17h334v-17q-41 0 -69 -51t-31 -117z" />
    <glyph glyph-name="k" unicode="k" horiz-adv-x="1351" 
d="M926 1413v17h334v-17q-150 0 -342 -143l-224 -166l373 -813q58 -124 117.5 -200.5t105.5 -76.5v-14h-334v14q24 0 34 22.5t1 72t-41 116.5l-364 797l-291 -219v-621q3 -66 31 -117t69 -51v-14h-334v14q39 0 67.5 51.5t31.5 116.5v1063q-3 65 -31.5 116.5t-67.5 51.5v17
h334v-17q-41 0 -69 -51t-31 -117v-422l612 459q121 92 77 120q-17 11 -58 11z" />
    <glyph glyph-name="l" unicode="l" horiz-adv-x="1124" 
d="M395 14h287q147 0 230 71.5t135 233.5l16 -4l-64 -211l-30 -104h-908v14q39 0 67.5 51.5t31.5 116.5v1063q-3 65 -31.5 116.5t-67.5 51.5v17h334v-17q-41 0 -69 -51t-31 -117v-1063q3 -66 31 -117t69 -51z" />
    <glyph glyph-name="m" unicode="m" horiz-adv-x="1687" 
d="M131 1434h148l583 -1262l508 1219q-12 28 -43 28v15h299v-15q-41 0 -69 -52t-31 -118v-1065q3 -66 31 -118t69 -52v-14h-336v14q41 0 69.5 52t31.5 118v1047q0 99 -13 139l-508 -1216l72 -154h-135l-2 -4l-6 4h-6v2h-2v2l-621 1348v-1182q3 -63 27.5 -109.5t62.5 -46.5
v-14h-199v14q39 0 64.5 46.5t28.5 109.5v1216z" />
    <glyph glyph-name="n" unicode="n" horiz-adv-x="1421" 
d="M1204 1257v-1060l156 -197h-172l-950 1206v-1036q3 -64 27 -110t63 -46v-14h-199v14q39 0 64 46.5t28 109.5v1057l-160 203h177v-7l950 -1206v1040q-3 63 -27.5 109.5t-62.5 46.5v17h196v-17q-38 0 -62.5 -46.5t-27.5 -109.5z" />
    <glyph glyph-name="o" unicode="o" horiz-adv-x="1503" 
d="M752 -41q-149 0 -279.5 64t-219.5 169t-140.5 242.5t-51.5 282.5t51.5 281.5t140.5 241.5t219.5 169t279.5 64t279.5 -64t219.5 -169t140 -241.5t51 -281.5t-51 -282.5t-140 -242.5t-219.5 -169t-279.5 -64zM752 1456h-9q-105 -2 -195.5 -49t-153.5 -123t-108.5 -172.5
t-67 -197.5t-21.5 -197q0 -97 21.5 -198.5t67 -198t108.5 -173t153.5 -123.5t195.5 -49h9q107 0 199 46.5t156 123t110 173.5t68 199t22 200q0 97 -22 198.5t-68 198.5t-110 173t-156.5 122.5t-198.5 46.5zM778 838l107 -107q12 -12 12 -28.5t-12 -26.5l-107 -107
q-10 -11 -26 -11t-27 11l-107 107q-10 10 -10 26.5t10 28.5l107 107q11 10 27 10t26 -10z" />
    <glyph glyph-name="p" unicode="p" horiz-adv-x="1073" 
d="M1010 1092q0 -89 -24.5 -153t-68 -101t-97 -60.5t-118 -40t-124 -32t-121.5 -43.5t-105 -68l-57 -43v-369q3 -66 31 -117t69 -51v-14h-334v14q39 0 67.5 51.5t31.5 116.5v1063q-3 65 -31.5 116.5t-67.5 51.5v17h574q71 -2 143 -26.5t125 -70.5q56 -46 83 -109t24 -132z
M295 569l47 37q58 46 129 78.5t125.5 47.5t109.5 40t90.5 57.5t58 98.5t22.5 164v2q2 73 -16.5 140.5t-51.5 106.5q-60 69 -176 72h-238q-41 0 -69 -51t-31 -117v-676z" />
    <glyph glyph-name="q" unicode="q" horiz-adv-x="1503" 
d="M1442 717q0 -145 -51 -282.5t-140 -242.5t-219.5 -169t-279.5 -64q-6 0 -19.5 1t-19.5 1h-62q-157 0 -242 -56t-87 -126q-2 -50 23.5 -77.5t62.5 -33t87 1.5t86 17.5t72 23.5q33 10 121 47q333 146 479 109q67 -17 64 -72q-6 -49 -72 -96q-52 -35 -100 -51
q-134 -76 -408 -4l4 14q221 -59 396 4l8 4q47 28 47 70q-3 37 -51 57q-33 15 -82 17.5t-122 -14t-157 -52.5l-110 -45q-476 -169 -488 80q-2 47 27.5 83t74.5 56.5t106.5 34t111.5 18.5t102 6q-159 37 -284 148.5t-192 266.5t-67 325q0 145 51.5 282t141 242t220 168.5
t278.5 63.5q119 0 228 -41t192 -113.5t144.5 -167t93.5 -206.5t32 -228zM752 1458h-9q-130 -3 -237 -74.5t-172.5 -182t-101 -236.5t-35.5 -248q0 -120 34 -244t97 -233t166.5 -182t228.5 -81q12 -2 37 -2h6q103 3 193 51.5t152.5 124.5t107.5 172t66.5 197t21.5 197
q0 98 -22 199.5t-68 199t-110 173.5t-156 122.5t-199 46.5zM778 838l109 -107q11 -12 11 -27.5t-11 -27.5l-109 -107q-10 -11 -26 -11t-27 11l-107 107q-10 12 -10 27.5t10 27.5l107 107q11 10 27 10t26 -10z" />
    <glyph glyph-name="r" unicode="r" horiz-adv-x="1167" 
d="M1012 1094q0 -64 -11.5 -114.5t-36 -86.5t-51.5 -61.5t-69 -45t-76.5 -31t-85.5 -24.5l203 -440q57 -123 116.5 -200t104.5 -77v-14h-334v14q25 0 35 22.5t0.5 71.5t-41.5 117l-215 471q-133 -42 -197 -102l-57 -43v-367q3 -66 31 -118t67 -52v-14h-334v14q41 0 69.5 52
t31.5 118v1061q-3 65 -31.5 116.5t-69.5 51.5v17h576q158 -4 268 -95q56 -46 83 -109.5t24 -131.5zM297 571l47 35q94 73 260 129q34 11 51 17t46 17.5t43.5 21t37 26t33.5 33.5t25.5 42t21 54t11 66.5t4.5 81.5h2q2 74 -16.5 141.5t-53.5 107.5q-55 67 -174 70h-240
q-39 0 -67 -51.5t-31 -116.5v-674z" />
    <glyph glyph-name="s" unicode="s" horiz-adv-x="1062" 
d="M885 1284v146h16v-459h-16q0 212 -109 340q-58 67 -137 99t-160 32q-102 0 -182.5 -51.5t-106.5 -134t17 -185.5q29 -62 92.5 -114.5t138.5 -90t159 -76t159 -83t134 -99.5t88.5 -136.5t18.5 -184.5q-8 -81 -50.5 -142.5t-106.5 -96t-137 -51.5t-152 -17q-107 0 -199 32
q-44 11 -135 77q-72 52 -94 54t-27 -28q-2 -9 -2 -23v-92h-16v459h16q0 -220 117 -340q123 -123 340 -123q115 0 201 82t86 196q0 79 -26.5 140t-71.5 101t-103.5 72t-123 58t-128.5 53t-122.5 63t-103.5 82t-71.5 116t-26.5 159q0 79 38 145.5t99 108t134 64t147 22.5
q136 0 244 -78q16 -11 34 -25t31.5 -25t27.5 -22.5t24.5 -18.5t19.5 -11t15.5 -2.5t9.5 8.5z" />
    <glyph glyph-name="t" unicode="t" horiz-adv-x="1374" 
d="M520 1413h-160q-99 0 -170.5 -57t-105.5 -162l-6 -23l-17 5q23 70 76 254h1096q16 -46 80 -254l-15 -5l-8 23q-34 105 -105.5 162t-170.5 57h-160q-39 0 -67 -51t-33 -117v-1061q5 -66 33 -118t67 -52v-14h-334v14q41 0 69.5 52t31.5 118v1061q-3 65 -31.5 116.5
t-69.5 51.5z" />
    <glyph glyph-name="u" unicode="u" horiz-adv-x="1345" 
d="M1194 1257v-530q0 -75 -4 -141t-16 -144.5t-32 -142t-55 -125.5t-81.5 -104.5t-114.5 -69t-152 -27.5q-123 -2 -223 41t-164.5 116t-108.5 173t-62.5 205.5t-18.5 218.5v518q-5 66 -33.5 117t-67.5 51v17h334v-17q-40 0 -67.5 -50.5t-32.5 -117.5v-518q0 -74 4 -139
t16 -142.5t32.5 -139.5t56.5 -122.5t83.5 -100.5t118 -63t156.5 -20q416 14 416 727v530q-3 64 -28 110t-63 46v17h197v-17q-38 0 -62.5 -46t-27.5 -110z" />
    <glyph glyph-name="v" unicode="v" horiz-adv-x="1576" 
d="M770 0l-498 1153q-5 10 -13 27.5t-33 62t-49 78.5t-56.5 62t-59.5 28v14h334v-14h-8q-79 0 0 -188l453 -1067l460 1028q31 68 41.5 122t3 79.5t-25.5 25.5v14h197v-14q-41 0 -88 -42.5t-89 -137.5q-107 -239 -304.5 -678.5t-248.5 -552.5h-16z" />
    <glyph glyph-name="w" unicode="w" horiz-adv-x="1912" 
d="M1231 0h-17l-262 768l-280 -768h-17l-403 1180q-45 132 -89.5 182.5t-101.5 50.5v17h334v-17h-6q-22 0 -32.5 -7.5t-12.5 -29t6.5 -58t28.5 -95.5l350 -1022l215 590l-133 389q-45 132 -89 182.5t-101 50.5v17h333v-17h-6q-22 0 -32.5 -7.5t-12.5 -29t6.5 -58t28.5 -95.5
l80 -232l72 197q29 85 36.5 136t-1 70t-31.5 19v17h198v-17q-86 0 -141 -98l-125 -346l262 -768l361 987q29 85 36.5 136t-1 70t-31.5 19v17h198v-17q-87 0 -139 -98z" />
    <glyph glyph-name="x" unicode="x" horiz-adv-x="1404" 
d="M61 0v16q28 0 54 12t54.5 41t47 52t53.5 69l4 7l369 495l-389 590q-88 133 -182 133v17h334v-17q-22 0 -31 -9.5t-5.5 -27.5t13.5 -38.5t27 -47.5l317 -485l350 471q27 37 40.5 61.5t15.5 42t-11.5 25.5t-42.5 8v17h199v-17q-53 0 -98.5 -42t-112.5 -132l-330 -446
l422 -645q88 -134 184 -134v-14h-333v14q21 0 30 9.5t6 27.5t-13 39t-27 47l-355 539l-389 -524q-27 -36 -41 -61t-15.5 -42.5t12 -26t42.5 -8.5v-16h-199z" />
    <glyph glyph-name="y" unicode="y" horiz-adv-x="1499" 
d="M905 14v-14h-334v14q40 0 68 51.5t33 118.5v449l-426 647q-88 133 -185 133v17h334v-17q-21 0 -30 -9.5t-6 -27.5t13 -39t27 -47l273 -413l125 -193l438 592q27 37 41 61.5t16 42t-11 25.5t-42 8v17h199v-17q-29 0 -55 -12t-55 -41t-47.5 -52t-53.5 -69l-422 -569v-486
q5 -66 33 -118t67 -52z" />
    <glyph glyph-name="z" unicode="z" horiz-adv-x="1290" 
d="M236 14h559q148 0 231 71t135 234l15 -4l-62 -211l-31 -104h-1022l992 1413h-523q-148 0 -230 -70.5t-136 -232.5l-14 4l61 211l31 105h987z" />
    <glyph glyph-name="braceleft" unicode="{" horiz-adv-x="724" 
d="M428 1751h236v-16h-103q-53 -328 -76 -578q-27 -200 -72.5 -307t-133.5 -133q90 -27 138 -137t68 -304q1 -4 18 -137t36 -275.5t22 -164.5h103v-16h-236q-13 91 -35.5 289t-38.5 302q-2 16 -5.5 76.5t-9.5 114t-18.5 112t-39 94.5t-64.5 38h-156v16h156q21 1 30 3
t23.5 14.5t22 38t18.5 74t21 121.5t22 181q20 249 74 594z" />
    <glyph glyph-name="bar" unicode="|" horiz-adv-x="159" 
d="M98 1481v-1727h-37v1727h37z" />
    <glyph glyph-name="braceright" unicode="}" horiz-adv-x="724" 
d="M61 1751h236q54 -345 74 -594q12 -108 22 -181t21 -121.5t18.5 -74t22 -38t23.5 -14.5t30 -3h156v-16h-156q-38 -2 -64.5 -38t-39 -94.5t-18.5 -112t-9.5 -114t-5.5 -76.5q-16 -104 -38.5 -302t-35.5 -289h-236v16h103q3 22 22 164.5t36 275.5t18 137q20 194 68 304
t138 137q-88 26 -133.5 133t-72.5 307q-23 250 -76 578h-103v16z" />
    <glyph glyph-name="asciitilde" unicode="~" horiz-adv-x="727" 
d="M231 786q38 0 82 -14q37 -14 74 -33q30 -14 74 -32q47 -15 76 -15q34 0 65 17q28 16 43 55l21 -6q-6 -59 -56 -94t-112 -35q-37 0 -84 14q-32 13 -74 33q-34 18 -72 33q-40 14 -78 14q-34 0 -63 -16q-27 -15 -45 -56l-21 6q9 61 58 95t112 34z" />
    <glyph glyph-name="uni00A0" unicode="&#xa0;" 
 />
    <glyph glyph-name="exclamdown" unicode="&#xa1;" horiz-adv-x="282" 
d="M74 0l45 1085h43l47 -1085h-135zM156 1282q-14 -14 -29 0l-59 59q-14 14 0 31l59 58q15 14 29 0l59 -58q14 -17 0 -31z" />
    <glyph glyph-name="cent" unicode="&#xa2;" horiz-adv-x="1570" 
d="M817 1501h17v-80q296 -22 417 -92l15 4l94 -321l-14 -4l-7 20q-28 89 -91.5 163.5t-137.5 118t-146 67.5t-130 26v-563q14 -5 18 -11l106 -106q12 -12 12 -27.5t-12 -27.5l-106 -107q-3 -5 -18 -10v-551q59 3 119.5 14t113 26.5t103.5 35.5t93 41t79.5 42t65.5 39.5
t48.5 32.5t31.5 23l11 8l10 -12l-11 -8q-11 -9 -32 -23.5t-49.5 -33.5t-66.5 -40t-80.5 -42.5t-94 -41.5t-105 -36t-115 -27t-121.5 -14v-95h-17v95h-26q-314 0 -504 190q-63 62 -110.5 141.5t-71 154t-34 133.5t-10.5 102v6q1 162 58.5 296.5t159 224t239.5 139t299 50.5
v80zM791 0h26v551q-15 5 -18 10l-107 107q-12 12 -12 27.5t12 27.5l107 106q4 6 18 11v563q-143 0 -261.5 -56t-195.5 -152t-119 -221t-42 -265v-4q0 -60 14 -140t58 -190.5t112 -190.5q153 -184 408 -184z" />
    <glyph glyph-name="sterling" unicode="&#xa3;" horiz-adv-x="1239" 
d="M1169 303l9 -2q-40 -106 -124 -197.5t-167 -91.5q-46 0 -174.5 43t-192.5 47q-102 6 -180.5 -14.5t-187.5 -87.5l-15 12q291 259 209 549q-22 78 -37 125h-248v31h232q-54 163 -64 214q-21 107 4 218q24 118 121 186l23 15q42 26 69.5 39t94 27t151.5 14q136 0 244 -78
q16 -11 34 -25t31 -25.5t27 -23t24.5 -18.5t19.5 -11.5t15.5 -3.5t10.5 8v148h16v-459h-16q0 208 -109 340q-58 67 -137 99t-160 32q-83 0 -148 -13.5t-91.5 -26t-67.5 -36.5l-23 -14q-75 -52 -69 -195q3 -57 73 -201t87 -210h450v-31h-440q13 -58 20 -141
q19 -239 -239 -461q76 46 151.5 67.5t143 20t123.5 -10.5t121 -21.5t106 -14.5q88 -5 165.5 41.5t114.5 136.5z" />
    <glyph glyph-name="currency" unicode="&#xa4;" horiz-adv-x="1134" 
d="M205 973l-144 141l119 121l144 -143q107 73 243 73q137 0 244 -73l143 143l119 -121l-143 -141q74 -115 74 -242q0 -129 -74 -244l143 -139l-119 -123l-143 144q-109 -74 -244 -74q-134 0 -243 74l-144 -144l-119 123l144 139q-74 115 -74 244q0 127 74 242zM299 731
q0 -109 78 -190q81 -78 188 -78q111 0 189 78q77 80 77 190t-77 187q-76 79 -189 79q-109 0 -188 -79q-78 -78 -78 -187z" />
    <glyph glyph-name="yen" unicode="&#xa5;" horiz-adv-x="1499" 
d="M414 385v16h258v232l-426 647q-88 133 -185 133v17h334v-17q-21 0 -30 -9.5t-6 -27.5t13 -39t27 -47l273 -413l127 -193l438 592q27 37 41 61.5t15.5 42t-12 25.5t-42.5 8v17h199v-17q-37 0 -75.5 -27t-63.5 -57t-70 -90l-422 -569v-269h258v-16h-258v-90h258v-16h-258
v-97q3 -64 31 -116t67 -52v-14h-334v14q41 0 69.5 52t31.5 116v97h-258v16h258v90h-258z" />
    <glyph glyph-name="brokenbar" unicode="&#xa6;" horiz-adv-x="159" 
d="M98 1481v-729h-37v729h37zM98 594v-729h-37v729h37z" />
    <glyph glyph-name="section" unicode="&#xa7;" horiz-adv-x="1064" 
d="M459 995q-42 18 -66 28t-63 29t-62 33.5t-55.5 38t-51 45.5t-40.5 52.5t-33 63t-19 74t-8 87.5q0 80 38 146t99 107.5t134.5 64t148.5 22.5q134 0 242 -78q16 -11 34 -25t31.5 -25t27.5 -22.5t24.5 -18.5t20 -11t16 -2.5t10.5 8.5v145h14v-459h-14q0 210 -111 340
q-58 67 -136.5 99t-158.5 32q-103 0 -183.5 -51.5t-107 -133.5t16.5 -185q29 -62 92.5 -114.5t138.5 -90t159 -76t159 -83t134.5 -99.5t89.5 -136.5t19 -183.5q-7 -71 -40.5 -127.5t-85.5 -92t-112.5 -56t-129.5 -27.5q60 -29 101.5 -52.5t90.5 -57t80.5 -70t58 -82
t35.5 -102.5t2 -123q-9 -81 -51.5 -142.5t-107 -96t-137.5 -51.5t-152 -17q-115 0 -199 32q-44 10 -135 76q-71 52 -93 54q-23 2 -28 -28q-2 -10 -2 -24v-92h-14v459h14q0 -219 119 -338q120 -123 338 -123q115 0 201 81.5t86 197.5q0 78 -26.5 139t-71.5 100.5t-103.5 71.5
t-123 58t-128.5 53t-122.5 63t-103.5 82t-71.5 116.5t-26.5 159.5q0 77 35.5 141t93.5 105.5t127.5 65t141.5 26.5zM598 328q100 18 170 96t70 180q0 65 -20 118.5t-48 89t-78 69.5t-90 53.5t-104 46.5h-17q-103 0 -183.5 -51.5t-107 -134.5t16.5 -187q9 -20 22.5 -38.5
t25.5 -33.5t34 -32.5t34.5 -28.5t42 -28t41.5 -24.5t47 -25t45.5 -22.5t50.5 -24t48 -23z" />
    <glyph glyph-name="dieresis" unicode="&#xa8;" horiz-adv-x="677" 
d="M195 1442l81 -84q9 -8 9 -20t-9 -21l-81 -82q-9 -9 -21.5 -9t-19.5 9l-84 82q-8 9 -8 21t8 20l84 84q8 8 20 8t21 -8zM524 1442l82 -84q9 -8 9 -20t-9 -21l-82 -82q-9 -9 -21.5 -9t-19.5 9l-84 82q-7 9 -7 21t7 20l84 84q7 8 19.5 8t21.5 -8z" />
    <glyph glyph-name="copyright" unicode="&#xa9;" horiz-adv-x="1275" 
d="M639 1292q117 0 223.5 -45.5t183.5 -123t122.5 -184.5t45.5 -224q0 -156 -77 -288.5t-209.5 -210t-288.5 -77.5q-157 0 -290 77.5t-210.5 210t-77.5 288.5q0 157 77.5 290t210.5 210t290 77zM668 768l45 -45q10 -10 0 -23l-45 -43q-12 -11 -23 0l-43 43q-10 13 0 23
l43 45q5 4 12 4t11 -4zM655 1006q-119 0 -188.5 -83t-69.5 -204v-2q0 -42 18.5 -104.5t57.5 -110.5q64 -78 170 -78q45 0 91.5 11.5t80 27t63 33t42.5 27t16 12.5l4 -7l-8 -6l-24 -16t-35 -21.5t-46 -23t-54.5 -21.5t-62.5 -16t-67 -6q-129 0 -209 80q-49 48 -71.5 111.5
t-22.5 107.5v2q1 135 89 214t226 79q120 -4 179 -37l6 2l39 -133l-7 -2l-4 8q-15 49 -56.5 86.5t-82.5 53.5t-74 16zM639 1227q-212 0 -362 -150t-150 -362q0 -138 68.5 -255.5t186.5 -186t257 -68.5q138 0 255.5 68.5t186 186t68.5 255.5q0 139 -68.5 257t-186 186.5
t-255.5 68.5z" />
    <glyph glyph-name="ordfeminine" unicode="&#xaa;" horiz-adv-x="1581" 
d="M547 1430h272l490 -1154q50 -119 109.5 -189.5t101.5 -70.5v-16h-334v16h8q78 0 0 189l-276 647l-553 -418l-89 -192q-31 -67 -41 -121t-2 -79.5t27 -25.5v-16h-199v16q41 0 89 43.5t90 137.5l491 1095q-3 5 -8.5 13t-24.5 29t-39 37t-50.5 29t-61.5 13v17zM377 465
l534 401l-172 406zM758 453l106 -107q12 -11 12 -27t-12 -28l-106 -107q-10 -10 -26 -10t-27 10l-107 107q-12 12 -12 28.5t12 26.5l107 107q11 11 27 11t26 -11z" />
    <glyph glyph-name="guillemotleft" unicode="&#xab;" horiz-adv-x="800" 
d="M739 1028l-239 -338l239 -340l-18 -6l-383 346l383 344zM461 1028l-240 -338l240 -340l-19 -6l-381 346l381 344z" />
    <glyph glyph-name="logicalnot" unicode="&#xac;" horiz-adv-x="757" 
d="M696 766v-248h-37v211h-598v37h635z" />
    <glyph glyph-name="registered" unicode="&#xae;" horiz-adv-x="1277" 
d="M639 1294q157 0 290 -77t210.5 -210t77.5 -290q0 -156 -77.5 -289t-210.5 -211t-290 -78t-290 78t-210.5 211t-77.5 289q0 157 77.5 290t210.5 210t290 77zM807 872h2q0 71 -29 103q-22 28 -71 31v-2h-99q-16 0 -27.5 -21t-13.5 -47v-279l19 15h2q42 35 106 53
q30 10 45 16.5t33 22t25.5 42t7.5 66.5zM473 1004v8h236q66 -4 110 -39q45 -39 45 -101q0 -72 -35 -101t-102 -46l84 -182q23 -49 47.5 -81t42.5 -32v-8h-137v8q10 0 14.5 9t0.5 29t-17 48l-88 193q-45 -12 -82 -41l-23 -19v-151q2 -26 13.5 -47t27.5 -21v-8h-137v8
q16 0 27.5 21t13.5 47v438q-2 26 -13.5 47t-27.5 21zM639 1227q-212 0 -361 -149t-149 -361t149 -361t361 -149t361 149t149 361t-149 361t-361 149z" />
    <glyph glyph-name="macron" unicode="&#xaf;" horiz-adv-x="1705" 
 />
    <glyph glyph-name="degree" unicode="&#xb0;" horiz-adv-x="567" 
d="M283 1436q57 0 102.5 -21t70.5 -54t37.5 -66.5t12.5 -63.5t-12.5 -63.5t-37.5 -65.5t-70.5 -53t-102.5 -21q-56 0 -101 21t-70 53t-38 65.5t-13 63.5t13 63.5t38 66t70 54t101 21.5zM283 1030q39 0 69.5 22.5t46.5 58t23.5 78.5t0 86t-23.5 78.5t-46.5 58t-69.5 22.5
q-40 0 -71.5 -22.5t-48 -58t-24 -78.5t0 -86t24 -78.5t48 -58t71.5 -22.5z" />
    <glyph glyph-name="plusminus" unicode="&#xb1;" horiz-adv-x="759" 
d="M397 692v-301h-37v301h-299v37h299v299h37v-299h301v-37h-301zM61 315h637v-36h-637v36z" />
    <glyph glyph-name="twosuperior" unicode="&#xb2;" horiz-adv-x="1077" 
d="M995 246l21 2l-178 -248h-777q138 132 263 287q130 159 270 364q106 160 143 293q36 131 -8 217q-42 89 -147 119q-89 25 -185 6q-99 -19 -170 -78q-92 -76 -98 -184h-16q8 215 170 332q63 45 139 67l24 7h216q122 -29 186 -117q78 -110 29 -301q-54 -201 -213 -398
q-113 -141 -293 -329q-66 -71 -148 -150h473q81 0 172 30.5t127 80.5z" />
    <glyph glyph-name="threesuperior" unicode="&#xb3;" horiz-adv-x="956" 
d="M467 723q428 -14 428 -375q0 -167 -139 -276q-60 -46 -148 -76q-83 -25 -168 -25h-22q-55 -3 -117 13q-137 33 -225 151l12 10q58 -74 145 -114t185 -43q46 0 96 16q100 30 168 117q74 94 74 227q0 90 -22 157t-54.5 104.5t-80.5 60t-89.5 29.5t-91.5 8q-48 0 -66 -2
q-9 0 -26.5 -1.5t-26.5 -1.5h-6v17h10q134 3 227 86q107 88 134 231q19 92 -2.5 158.5t-75.5 103.5q-48 33 -113 43q-66 6 -131 -12q-100 -30 -173 -109t-91 -200l-17 2q28 186 144 299q117 117 276 117q106 -1 183 -55.5t114 -141.5q30 -75 27 -149q-3 -82 -39 -152
q-84 -167 -299 -217z" />
    <glyph glyph-name="acute" unicode="&#xb4;" horiz-adv-x="479" 
d="M61 1370l314 320l43 -88l-350 -242z" />
    <glyph glyph-name="mu" unicode="&#xb5;" horiz-adv-x="1216" 
d="M209 272v-540h-148v1609h148v-577q0 -164 39 -298t103 -217.5t146 -129.5t167.5 -47t167.5 43t146 126.5t103 218t39 304.5v577h35v-1216h-35v340q-34 -126 -98.5 -218t-143.5 -140t-170.5 -62.5t-180 7.5t-172 78t-146.5 142z" />
    <glyph glyph-name="paragraph" unicode="&#xb6;" horiz-adv-x="1267" 
d="M543 1597h663v-2562h-32v2530h-469v-2530h-33v1598h-129q-131 0 -242 65t-175.5 176t-64.5 242t64.5 241.5t175.5 175t242 64.5z" />
    <glyph glyph-name="periodcentered" unicode="&#xb7;" horiz-adv-x="348" 
d="M195 842l81 -84q9 -8 9 -20t-9 -21l-81 -82q-9 -9 -21.5 -9t-19.5 9l-84 82q-8 9 -8 21t8 20l84 84q8 8 20 8t21 -8z" />
    <glyph glyph-name="cedilla" unicode="&#xb8;" horiz-adv-x="380" 
d="M319 -174q0 -48 -27 -74t-69 -28.5t-83 3.5t-79 19l9 80q18 -9 36 -16t47 -18t53 -15t46.5 -4t35.5 12.5t13 36.5q0 29 -47.5 43t-87.5 14l35 121h22l-22 -74q118 -12 118 -100z" />
    <glyph glyph-name="onesuperior" unicode="&#xb9;" horiz-adv-x="495" 
d="M70 1108l-9 -8v24l129 148l136 158h22l-33 -37l19 20v-1229q3 -66 31 -117t69 -51v-16h-334v16q39 0 67.5 51.5t31.5 116.5v899q0 57 -44.5 63t-84.5 -38z" />
    <glyph glyph-name="ordmasculine" unicode="&#xba;" horiz-adv-x="567" 
d="M283 1436q57 0 102.5 -21t70.5 -54t37.5 -66.5t12.5 -63.5t-12.5 -63.5t-37.5 -65.5t-70.5 -53t-102.5 -21q-56 0 -101 21t-70 53t-38 65.5t-13 63.5t13 63.5t38 66t70 54t101 21.5zM283 1030q39 0 69.5 22.5t46.5 58t23.5 78.5t0 86t-23.5 78.5t-46.5 58t-69.5 22.5
q-40 0 -71.5 -22.5t-48 -58t-24 -78.5t0 -86t24 -78.5t48 -58t71.5 -22.5z" />
    <glyph glyph-name="guillemotright" unicode="&#xbb;" horiz-adv-x="802" 
d="M301 690l-240 338l21 6l381 -344l-381 -346l-21 6zM580 690l-240 338l18 6l383 -344l-383 -346l-18 6z" />
    <glyph glyph-name="onequarter" unicode="&#xbc;" horiz-adv-x="1945" 
d="M70 1108l-9 -8v24l129 148l136 158h22l-33 -37l19 20v-1229q3 -66 31 -117t69 -51v-16h-334v16q39 0 67.5 51.5t31.5 116.5v899q0 57 -44.5 63t-84.5 -38zM549 0l639 1430h37l-641 -1430h-35zM1573 455v807l-551 -807h551zM1671 1434h19h18v-979h176l-106 -136h-70v-137
q3 -64 31 -116t67 -52v-14h-331v14q39 0 67 52t31 116v137h-664l381 558t381 557z" />
    <glyph glyph-name="onehalf" unicode="&#xbd;" horiz-adv-x="2166" 
d="M70 1108l-9 -8v24l129 148l136 158h22l-33 -37l19 20v-1229q3 -66 31 -117t69 -51v-16h-334v16q39 0 67.5 51.5t31.5 116.5v899q0 57 -44.5 63t-84.5 -38zM1161 1430l-639 -1430h35l641 1430h-37zM2085 246l20 2l-178 -248h-776q134 128 262 287q130 159 270 364
q107 163 144 293q36 131 -8 217q-42 89 -148 119q-88 25 -184 6q-99 -19 -170 -78q-92 -76 -98 -184h-17q8 215 170 332q63 45 139 67l25 7h215q122 -29 186 -117q78 -110 29 -301q-54 -201 -213 -398q-113 -141 -293 -329q-74 -79 -147 -150h473q81 0 172 30.5t127 80.5z
" />
    <glyph glyph-name="threequarters" unicode="&#xbe;" horiz-adv-x="2254" 
d="M467 723q428 -14 428 -375q0 -167 -139 -276q-60 -46 -148 -76q-83 -25 -168 -25h-22q-55 -3 -117 13q-137 33 -225 151l12 10q58 -74 145 -114t185 -43q46 0 96 16q100 30 168 117q74 94 74 227q0 90 -22 157t-54.5 104.5t-80.5 60t-89.5 29.5t-91.5 8q-48 0 -66 -2
q-9 0 -26.5 -1.5t-26.5 -1.5h-6v17h10q134 3 227 86q107 88 134 231q19 92 -2.5 158.5t-75.5 103.5q-48 33 -113 43q-66 6 -131 -12q-100 -30 -173 -109t-91 -200l-17 2q28 186 144 299q117 117 276 117q106 -1 183 -55.5t114 -141.5q30 -75 27 -149q-3 -82 -39 -152
q-84 -167 -299 -217zM889 0l639 1430h37l-641 -1430h-35zM1882 455v807l-551 -807h551zM1980 1434h19h18v-979h176l-106 -136h-70v-137q3 -64 31.5 -116t67.5 -52v-14h-332v14q39 0 67 52t31 116v137h-663q127 186 380.5 558t380.5 557z" />
    <glyph glyph-name="questiondown" unicode="&#xbf;" horiz-adv-x="985" 
d="M598 1075h14q0 -64 -0.5 -101t-3.5 -87.5t-9 -80.5t-16.5 -66t-26.5 -60t-39 -47t-54 -41q-109 -52 -180 -117t-96.5 -128t-16 -123.5t51 -106t114.5 -73.5t166 -28q81 0 160 32t137 99q108 127 108 340h17v-458h-17v145q-3 7 -9.5 8.5t-15.5 -2.5t-19.5 -11t-24.5 -18.5
t-27.5 -22.5t-31.5 -25t-34 -25q-108 -78 -243 -78q-120 0 -215.5 40.5t-149 104.5t-69.5 146t9.5 162.5t102 157t195.5 126.5l2 2q115 44 168 126t53 210zM575 1286l-59 60q-13 13 0 30l59 58q15 14 29 0l60 -58q13 -17 0 -30l-60 -60q-14 -14 -29 0z" />
    <glyph glyph-name="Agrave" unicode="&#xc0;" horiz-adv-x="1581" 
d="M819 1430h-272v-17q48 0 94 -30.5t68 -60.5l22 -30l-491 -1095q-42 -94 -90 -137.5t-89 -43.5v-16h199v16q-19 0 -27 25.5t2 79.5t41 121l89 192l553 418l276 -647q78 -189 0 -189h-8v-16h334v16q-42 0 -101.5 70.5t-109.5 189.5zM911 866l-534 -401l362 807zM758 453
q-10 11 -26 11t-27 -11l-107 -107q-12 -10 -12 -26.5t12 -28.5l107 -107q11 -10 27 -10t26 10l106 107q12 12 12 28t-12 27zM655 2099l314 -319l-6 -11l-351 242z" />
    <glyph glyph-name="Aacute" unicode="&#xc1;" horiz-adv-x="1581" 
d="M547 1430h272l490 -1154q50 -119 109.5 -189.5t101.5 -70.5v-16h-334v16h8q78 0 0 189l-276 647l-553 -418l-89 -192q-31 -67 -41 -121t-2 -79.5t27 -25.5v-16h-199v16q41 0 89 43.5t90 137.5l491 1095q-3 5 -8.5 13t-24.5 29t-39 37t-50.5 29t-61.5 13v17zM377 465
l534 401l-172 406zM758 453l106 -107q12 -11 12 -27t-12 -28l-106 -107q-10 -10 -26 -10t-27 10l-107 107q-12 12 -12 28.5t12 26.5l107 107q11 11 27 11t26 -11zM612 1780l314 319l43 -88l-351 -242z" />
    <glyph glyph-name="Acircumflex" unicode="&#xc2;" horiz-adv-x="1581" 
d="M819 1430h-272v-17q48 0 94 -30.5t68 -60.5l22 -30l-491 -1095q-42 -94 -90 -137.5t-89 -43.5v-16h199v16q-19 0 -27 25.5t2 79.5t41 121l89 192l553 418l276 -647q78 -189 0 -189h-8v-16h334v16q-42 0 -101.5 70.5t-109.5 189.5zM911 866l-534 -401l362 807zM758 453
q-10 11 -26 11t-27 -11l-107 -107q-12 -10 -12 -26.5t12 -28.5l107 -107q11 -10 27 -10t26 10l106 107q12 12 12 28t-12 27zM793 2064l393 -329l-8 -17l-385 211l-387 -211l-11 17z" />
    <glyph glyph-name="Atilde" unicode="&#xc3;" horiz-adv-x="1581" 
d="M547 1430h272l490 -1154q50 -119 109.5 -189.5t101.5 -70.5v-16h-334v16h8q78 0 0 189l-276 647l-553 -418l-89 -192q-31 -67 -41 -121t-2 -79.5t27 -25.5v-16h-199v16q41 0 89 43.5t90 137.5l491 1095q-3 5 -8.5 13t-24.5 29t-39 37t-50.5 29t-61.5 13v17zM377 465
l534 401l-172 406zM758 453l106 -107q12 -11 12 -27t-12 -28l-106 -107q-10 -10 -26 -10t-27 10l-107 107q-12 12 -12 28.5t12 26.5l107 107q11 11 27 11t26 -11zM700 1839q28 0 56 -14q36 -20 49 -31q19 -14 49 -33q32 -12 51 -12q24 0 45 14q20 17 29 54l14 -5
q-6 -59 -39 -92q-32 -32 -75 -32q-25 0 -56 14q-23 12 -49 31q-22 17 -49 30q-26 15 -53 15q-21 0 -41 -17q-18 -10 -31 -51l-14 4q6 59 39 92q38 33 75 33z" />
    <glyph glyph-name="Adieresis" unicode="&#xc4;" horiz-adv-x="1581" 
d="M547 1430h272l490 -1154q50 -119 109.5 -189.5t101.5 -70.5v-16h-334v16h8q78 0 0 189l-276 647l-553 -418l-89 -192q-31 -67 -41 -121t-2 -79.5t27 -25.5v-16h-199v16q41 0 89 43.5t90 137.5l491 1095q-3 5 -8.5 13t-24.5 29t-39 37t-50.5 29t-61.5 13v17zM377 465
l534 401l-172 406zM758 453l106 -107q12 -11 12 -27t-12 -28l-106 -107q-10 -10 -26 -10t-27 10l-107 107q-12 12 -12 28.5t12 26.5l107 107q11 11 27 11t26 -11zM645 1851l82 -84q9 -7 9 -19.5t-9 -21.5l-82 -81q-9 -9 -21 -9t-20 9l-84 81q-8 9 -8 21.5t8 19.5l84 84
q8 7 20 7t21 -7zM975 1851l82 -84q9 -7 9 -19.5t-9 -21.5l-82 -81q-9 -9 -21 -9t-20 9l-84 81q-8 9 -8 21.5t8 19.5l84 84q8 7 20 7t21 -7z" />
    <glyph glyph-name="Aring" unicode="&#xc5;" horiz-adv-x="1581" 
d="M819 1430h-272v-17q48 0 94 -30.5t68 -60.5l22 -30l-491 -1095q-42 -94 -90 -137.5t-89 -43.5v-16h199v16q-19 0 -27 25.5t2 79.5t41 121l89 192l553 418l276 -647q78 -189 0 -189h-8v-16h334v16q-42 0 -101.5 70.5t-109.5 189.5zM911 866l-534 -401l362 807zM758 453
q-10 11 -26 11t-27 -11l-107 -107q-12 -10 -12 -26.5t12 -28.5l107 -107q11 -10 27 -10t26 10l106 107q12 12 12 28t-12 27zM791 1905q85 0 149 -56.5t64 -142.5q0 -88 -64 -143.5t-149 -55.5q-87 0 -151.5 55.5t-64.5 143.5q0 86 65 142.5t151 56.5zM791 1520q59 0 96 50.5
t37 135.5q0 84 -37 135t-96 51t-96.5 -51t-37.5 -135q0 -85 37.5 -135.5t96.5 -50.5z" />
    <glyph glyph-name="AE" unicode="&#xc6;" horiz-adv-x="1609" 
d="M1288 995h17v-329h-17v41q-1 21 -5.5 39.5t-16 36.5t-29 26t-48 3t-69.5 -28l-129 -88q-206 -147 -211 -319v-195q5 -64 33.5 -116t67.5 -52h286q147 0 230.5 71t136.5 234l14 -4l-61 -211l-33 -104h-907v14q40 0 67.5 51.5t32.5 116.5v465l-282 -213l-89 -192
q-30 -69 -40 -122.5t-2.5 -79.5t26.5 -26v-14h-199v14q41 0 89 43.5t90 139.5l407 905v143q-5 67 -32.5 117.5t-67.5 50.5v17h907l33 -107l61 -211l-14 -4q-53 163 -136.5 234t-230.5 71h-286q-39 0 -67.5 -51t-33.5 -117v-778q47 135 203 242l164 114q16 13 39.5 34.5
t62.5 67.5t39 70zM377 463l270 203v397z" />
    <glyph glyph-name="Ccedilla" unicode="&#xc7;" horiz-adv-x="1439" 
d="M791 8q62 0 126.5 9t120 24t109.5 35t99 41.5t85 43t70.5 41.5t52 35t33.5 24l12 9l10 -10q-6 -6 -37.5 -29t-103.5 -65.5t-154.5 -80t-197.5 -65.5t-225 -28q-311 0 -504 190q-63 63 -110.5 142.5t-71 154t-34 133t-10.5 101.5v6q1 163 59 298t159.5 225t240.5 139
t301 49h2q32 -1 83.5 -5.5t166.5 -28t178 -59.5l15 4l94 -319l-14 -6l-7 20q-29 91 -94.5 166.5t-141.5 119.5t-149.5 67.5t-130.5 23.5h-2q-144 0 -263 -56t-196.5 -152t-120 -221t-42.5 -265v-6q0 -60 14 -139.5t58 -190t112 -190.5q154 -185 408 -185zM852 838l106 -107
q12 -11 12 -27t-12 -28l-106 -107q-10 -11 -26 -11t-27 11l-107 107q-12 12 -12 28t12 27l107 107q11 10 27 10t26 -10zM848 -174q0 -48 -27 -74t-69 -28.5t-83 3.5t-79 19l8 80q18 -9 36 -16t47 -18t53 -15t46.5 -4t35.5 12.5t13 36.5q0 29 -47.5 43t-87.5 14l35 121h23
l-23 -74q119 -12 119 -100z" />
    <glyph glyph-name="Egrave" unicode="&#xc8;" horiz-adv-x="1124" 
d="M805 995h14v-329h-14v43q-2 21 -6.5 38.5t-16.5 36.5t-29.5 27t-48 3t-69.5 -28l-127 -88q-91 -63 -150.5 -144.5t-62.5 -174.5v-195q5 -66 33 -117t67 -51h287q148 0 231 70t136 233l14 -4l-62 -211l-30 -104h-910v16q41 0 69.5 51.5t31.5 116.5v1061q-3 65 -31.5 116.5
t-69.5 51.5v17h910l30 -105l62 -211l-14 -4q-53 163 -136 233t-231 70h-287q-39 0 -67 -51t-33 -117v-778q48 138 203 244l164 112q16 13 39.5 34.5t63.5 67.5t40 70zM426 2099l313 -319l-6 -11l-350 242z" />
    <glyph glyph-name="Eacute" unicode="&#xc9;" horiz-adv-x="1124" 
d="M805 995h14v-329h-14v43q-2 21 -6.5 38.5t-16.5 36.5t-29.5 27t-48 3t-69.5 -28l-127 -88q-91 -63 -150.5 -144.5t-62.5 -174.5v-195q5 -66 33 -117t67 -51h287q148 0 231 70t136 233l14 -4l-62 -211l-30 -104h-910v16q41 0 69.5 51.5t31.5 116.5v1061q-3 65 -31.5 116.5
t-69.5 51.5v17h910l30 -105l62 -211l-14 -4q-53 163 -136 233t-231 70h-287q-39 0 -67 -51t-33 -117v-778q48 138 203 244l164 112q16 13 39.5 34.5t63.5 67.5t40 70zM383 1780l313 319l43 -88l-350 -242z" />
    <glyph glyph-name="Ecircumflex" unicode="&#xca;" horiz-adv-x="1124" 
d="M805 995h14v-329h-14v43q-2 21 -6.5 38.5t-16.5 36.5t-29.5 27t-48 3t-69.5 -28l-127 -88q-91 -63 -150.5 -144.5t-62.5 -174.5v-195q5 -66 33 -117t67 -51h287q148 0 231 70t136 233l14 -4l-62 -211l-30 -104h-910v16q41 0 69.5 51.5t31.5 116.5v1061q-3 65 -31.5 116.5
t-69.5 51.5v17h910l30 -105l62 -211l-14 -4q-53 163 -136 233t-231 70h-287q-39 0 -67 -51t-33 -117v-778q48 138 203 244l164 112q16 13 39.5 34.5t63.5 67.5t40 70zM563 2064l393 -329l-8 -17l-385 211l-387 -211l-10 17z" />
    <glyph glyph-name="Edieresis" unicode="&#xcb;" horiz-adv-x="1124" 
d="M805 995h14v-329h-14v43q-2 21 -6.5 38.5t-16.5 36.5t-29.5 27t-48 3t-69.5 -28l-127 -88q-91 -63 -150.5 -144.5t-62.5 -174.5v-195q5 -66 33 -117t67 -51h287q148 0 231 70t136 233l14 -4l-62 -211l-30 -104h-910v16q41 0 69.5 51.5t31.5 116.5v1061q-3 65 -31.5 116.5
t-69.5 51.5v17h910l30 -105l62 -211l-14 -4q-53 163 -136 233t-231 70h-287q-39 0 -67 -51t-33 -117v-778q48 138 203 244l164 112q16 13 39.5 34.5t63.5 67.5t40 70zM418 1851l82 -84q9 -7 9 -19.5t-9 -21.5l-82 -81q-9 -9 -21 -9t-20 9l-84 81q-7 9 -7 21.5t7 19.5l84 84
q7 7 19.5 7t21.5 -7zM748 1851l81 -84q9 -7 9 -19.5t-9 -21.5l-81 -81q-9 -9 -21 -9t-20 9l-84 81q-7 9 -7 21.5t7 19.5l84 84q7 7 19.5 7t21.5 -7z" />
    <glyph glyph-name="Igrave" unicode="&#xcc;" horiz-adv-x="456" 
d="M61 1430v-17q39 0 67.5 -51.5t31.5 -116.5v-1063q-3 -65 -31.5 -116.5t-67.5 -51.5v-14h334v14q-41 0 -69 51t-31 117v1063q3 66 31 117t69 51v17h-334zM94 2099l314 -319l-7 -11l-350 242z" />
    <glyph glyph-name="Iacute" unicode="&#xcd;" horiz-adv-x="456" 
d="M61 1413v17h334v-17q-41 0 -69 -51t-31 -117v-1063q3 -66 31 -117t69 -51v-14h-334v14q39 0 67.5 51.5t31.5 116.5v1063q-3 65 -31.5 116.5t-67.5 51.5zM51 1780l314 319l43 -88l-351 -242z" />
    <glyph glyph-name="Icircumflex" unicode="&#xce;" horiz-adv-x="456" 
d="M61 1430v-17q39 0 67.5 -51.5t31.5 -116.5v-1063q-3 -65 -31.5 -116.5t-67.5 -51.5v-14h334v14q-41 0 -69 51t-31 117v1063q3 66 31 117t69 51v17h-334zM231 2064l394 -329l-9 -17l-385 211l-387 -211l-10 17z" />
    <glyph glyph-name="Idieresis" unicode="&#xcf;" horiz-adv-x="456" 
d="M61 1413v17h334v-17q-41 0 -69 -51t-31 -117v-1063q3 -66 31 -117t69 -51v-14h-334v14q39 0 67.5 51.5t31.5 116.5v1063q-3 65 -31.5 116.5t-67.5 51.5zM84 1851l82 -84q9 -7 9 -19.5t-9 -21.5l-82 -81q-9 -9 -21.5 -9t-19.5 9l-84 81q-7 9 -7 21.5t7 19.5l84 84
q7 7 19.5 7t21.5 -7zM414 1851l82 -84q9 -7 9 -19.5t-9 -21.5l-82 -81q-9 -9 -21.5 -9t-19.5 9l-84 81q-7 9 -7 21.5t7 19.5l84 84q7 7 19.5 7t21.5 -7z" />
    <glyph glyph-name="Eth" unicode="&#xd0;" horiz-adv-x="1374" 
d="M61 1430h574q186 -4 343 -104t246 -262.5t89 -348.5q0 -188 -90 -352.5t-247.5 -263.5t-342.5 -99h-572v16q40 0 68 51t33 117v1061q-5 66 -33 117t-68 51v17zM498 545l465 350q28 18 47 41q60 60 63 123q2 33 -14 78l-45 65l-10 10v2q-152 191 -371 199h-238
q-39 0 -67 -51t-33 -117v-944q15 43 49 96q58 78 154 148zM1090 1081v-22q-6 -71 -70 -135q-11 -13 -47 -41l-467 -351q-98 -70 -148 -145q-60 -83 -63 -174v-29q5 -66 33 -117t67 -51h238q101 0 189.5 42t152 112.5t110 161.5t69 189t22.5 194q0 186 -86 366zM0 702h526
v-36h-526v36z" />
    <glyph glyph-name="Ntilde" unicode="&#xd1;" horiz-adv-x="1421" 
d="M1204 1257v-1060l156 -197h-172l-950 1206v-1036q3 -64 27 -110t63 -46v-14h-199v14q39 0 64 46.5t28 109.5v1057l-160 203h177v-7l950 -1206v1040q-3 63 -27.5 109.5t-62.5 46.5v17h196v-17q-38 0 -62.5 -46.5t-27.5 -109.5zM621 1839q27 0 55 -14q36 -20 49 -31
q19 -14 49 -33q32 -12 51 -12q24 0 45 14q20 17 29 54l14 -5q-6 -59 -39 -92q-32 -32 -75 -32q-24 0 -56 14q-23 12 -49 31q-22 17 -49 30q-26 15 -53 15q-21 0 -41 -17q-18 -10 -31 -51l-14 4q6 59 39 92q38 33 76 33z" />
    <glyph glyph-name="Ograve" unicode="&#xd2;" horiz-adv-x="1503" 
d="M752 -41q149 0 279.5 64t219.5 169t140 242.5t51 282.5t-51 281.5t-140 241.5t-219.5 169t-279.5 64t-279.5 -64t-219.5 -169t-140.5 -241.5t-51.5 -281.5t51.5 -282.5t140.5 -242.5t219.5 -169t279.5 -64zM752 1456q106 0 198.5 -46.5t156.5 -122.5t110 -173t68 -198.5
t22 -198.5q0 -98 -22 -200t-68 -199t-110 -173.5t-156 -123t-199 -46.5h-9q-105 2 -195.5 49t-153.5 123.5t-108.5 173t-67 198t-21.5 198.5q0 96 21.5 197t67 197.5t108.5 172.5t153.5 123t195.5 49h9zM778 838q-10 10 -26 10t-27 -10l-107 -107q-10 -12 -10 -28.5
t10 -26.5l107 -107q11 -11 27 -11t26 11l107 107q12 10 12 26.5t-12 28.5zM616 2099l314 -319l-6 -11l-351 242z" />
    <glyph glyph-name="Oacute" unicode="&#xd3;" horiz-adv-x="1503" 
d="M752 -41q-149 0 -279.5 64t-219.5 169t-140.5 242.5t-51.5 282.5t51.5 281.5t140.5 241.5t219.5 169t279.5 64t279.5 -64t219.5 -169t140 -241.5t51 -281.5t-51 -282.5t-140 -242.5t-219.5 -169t-279.5 -64zM752 1456h-9q-105 -2 -195.5 -49t-153.5 -123t-108.5 -172.5
t-67 -197.5t-21.5 -197q0 -97 21.5 -198.5t67 -198t108.5 -173t153.5 -123.5t195.5 -49h9q107 0 199 46.5t156 123t110 173.5t68 199t22 200q0 97 -22 198.5t-68 198.5t-110 173t-156.5 122.5t-198.5 46.5zM778 838l107 -107q12 -12 12 -28.5t-12 -26.5l-107 -107
q-10 -11 -26 -11t-27 11l-107 107q-10 10 -10 26.5t10 28.5l107 107q11 10 27 10t26 -10zM573 1780l314 319l43 -88l-350 -242z" />
    <glyph glyph-name="Ocircumflex" unicode="&#xd4;" horiz-adv-x="1503" 
d="M752 -41q149 0 279.5 64t219.5 169t140 242.5t51 282.5t-51 281.5t-140 241.5t-219.5 169t-279.5 64t-279.5 -64t-219.5 -169t-140.5 -241.5t-51.5 -281.5t51.5 -282.5t140.5 -242.5t219.5 -169t279.5 -64zM752 1456q106 0 198.5 -46.5t156.5 -122.5t110 -173t68 -198.5
t22 -198.5q0 -98 -22 -200t-68 -199t-110 -173.5t-156 -123t-199 -46.5h-9q-105 2 -195.5 49t-153.5 123.5t-108.5 173t-67 198t-21.5 198.5q0 96 21.5 197t67 197.5t108.5 172.5t153.5 123t195.5 49h9zM778 838q-10 10 -26 10t-27 -10l-107 -107q-10 -12 -10 -28.5
t10 -26.5l107 -107q11 -11 27 -11t26 11l107 107q12 10 12 26.5t-12 28.5zM754 2064l393 -329l-8 -17l-385 211l-387 -211l-11 17z" />
    <glyph glyph-name="Otilde" unicode="&#xd5;" horiz-adv-x="1503" 
d="M752 -41q-149 0 -279.5 64t-219.5 169t-140.5 242.5t-51.5 282.5t51.5 281.5t140.5 241.5t219.5 169t279.5 64t279.5 -64t219.5 -169t140 -241.5t51 -281.5t-51 -282.5t-140 -242.5t-219.5 -169t-279.5 -64zM752 1456h-9q-105 -2 -195.5 -49t-153.5 -123t-108.5 -172.5
t-67 -197.5t-21.5 -197q0 -97 21.5 -198.5t67 -198t108.5 -173t153.5 -123.5t195.5 -49h9q107 0 199 46.5t156 123t110 173.5t68 199t22 200q0 97 -22 198.5t-68 198.5t-110 173t-156.5 122.5t-198.5 46.5zM778 838l107 -107q12 -12 12 -28.5t-12 -26.5l-107 -107
q-10 -11 -26 -11t-27 11l-107 107q-10 10 -10 26.5t10 28.5l107 107q11 10 27 10t26 -10zM662 1839q27 0 55 -14q36 -20 49 -31q19 -14 49 -33q32 -12 51 -12q24 0 45 14q20 17 29 54l14 -5q-6 -59 -39 -92q-32 -32 -75 -32q-24 0 -56 14q-23 12 -49 31q-22 17 -49 30
q-26 15 -53 15q-21 0 -41 -17q-18 -10 -31 -51l-14 4q6 59 39 92q38 33 76 33z" />
    <glyph glyph-name="Odieresis" unicode="&#xd6;" horiz-adv-x="1503" 
d="M752 -41q-149 0 -279.5 64t-219.5 169t-140.5 242.5t-51.5 282.5t51.5 281.5t140.5 241.5t219.5 169t279.5 64t279.5 -64t219.5 -169t140 -241.5t51 -281.5t-51 -282.5t-140 -242.5t-219.5 -169t-279.5 -64zM752 1456h-9q-105 -2 -195.5 -49t-153.5 -123t-108.5 -172.5
t-67 -197.5t-21.5 -197q0 -97 21.5 -198.5t67 -198t108.5 -173t153.5 -123.5t195.5 -49h9q107 0 199 46.5t156 123t110 173.5t68 199t22 200q0 97 -22 198.5t-68 198.5t-110 173t-156.5 122.5t-198.5 46.5zM778 838l107 -107q12 -12 12 -28.5t-12 -26.5l-107 -107
q-10 -11 -26 -11t-27 11l-107 107q-10 10 -10 26.5t10 28.5l107 107q11 10 27 10t26 -10zM606 1851l82 -84q9 -7 9 -19.5t-9 -21.5l-82 -81q-9 -9 -21.5 -9t-19.5 9l-84 81q-7 9 -7 21.5t7 19.5l84 84q7 7 19.5 7t21.5 -7zM936 1851l82 -84q9 -7 9 -19.5t-9 -21.5l-82 -81
q-9 -9 -21.5 -9t-19.5 9l-84 81q-7 9 -7 21.5t7 19.5l84 84q7 7 19.5 7t21.5 -7z" />
    <glyph glyph-name="multiply" unicode="&#xd7;" horiz-adv-x="600" 
d="M301 690l-213 -213l-25 27l211 211l-213 213l27 26l213 -213l213 213l25 -26l-213 -213l213 -211l-27 -27z" />
    <glyph glyph-name="Oslash" unicode="&#xd8;" horiz-adv-x="1503" 
d="M752 -41q-149 0 -279.5 64t-219.5 169t-140.5 242.5t-51.5 282.5t51.5 281.5t140.5 241.5t219.5 169t279.5 64t279.5 -64t219.5 -169t140 -241.5t51 -281.5t-51 -282.5t-140 -242.5t-219.5 -169t-279.5 -64zM752 1456h-9q-105 -2 -195.5 -49t-153.5 -123t-108.5 -172.5
t-67 -197.5t-21.5 -197q0 -97 21.5 -198.5t67 -198t108.5 -173t153.5 -123.5t195.5 -49h9q107 0 199 46.5t156 123t110 173.5t68 199t22 200q0 97 -22 198.5t-68 198.5t-110 173t-156.5 122.5t-198.5 46.5zM778 838l107 -107q12 -12 12 -28.5t-12 -26.5l-107 -107
q-10 -11 -26 -11t-27 11l-107 107q-10 10 -10 26.5t10 28.5l107 107q11 10 27 10t26 -10zM414 0l639 1430h37l-641 -1430h-35z" />
    <glyph glyph-name="Ugrave" unicode="&#xd9;" horiz-adv-x="1345" 
d="M1194 727v530q3 64 27.5 110t62.5 46v17h-197v-17q38 0 63 -46t28 -110v-530q0 -713 -416 -727q-86 -3 -156.5 20t-118 63t-83.5 100.5t-56.5 122.5t-32.5 139.5t-16 142.5t-4 139v518q5 67 32.5 117.5t67.5 50.5v17h-334v-17q39 0 67.5 -51t33.5 -117v-518
q0 -113 18.5 -218.5t62.5 -205.5t108.5 -173t164.5 -116t223 -41q84 1 152 27.5t114.5 69t81.5 104.5t55 125.5t32 142t16 144.5t4 141zM537 2099l313 -319l-6 -11l-350 242z" />
    <glyph glyph-name="Uacute" unicode="&#xda;" horiz-adv-x="1345" 
d="M1194 1257v-530q0 -75 -4 -141t-16 -144.5t-32 -142t-55 -125.5t-81.5 -104.5t-114.5 -69t-152 -27.5q-123 -2 -223 41t-164.5 116t-108.5 173t-62.5 205.5t-18.5 218.5v518q-5 66 -33.5 117t-67.5 51v17h334v-17q-40 0 -67.5 -50.5t-32.5 -117.5v-518q0 -74 4 -139
t16 -142.5t32.5 -139.5t56.5 -122.5t83.5 -100.5t118 -63t156.5 -20q416 14 416 727v530q-3 64 -28 110t-63 46v17h197v-17q-38 0 -62.5 -46t-27.5 -110zM494 1780l313 319l43 -88l-350 -242z" />
    <glyph glyph-name="Ucircumflex" unicode="&#xdb;" horiz-adv-x="1345" 
d="M1194 727v530q3 64 27.5 110t62.5 46v17h-197v-17q38 0 63 -46t28 -110v-530q0 -713 -416 -727q-86 -3 -156.5 20t-118 63t-83.5 100.5t-56.5 122.5t-32.5 139.5t-16 142.5t-4 139v518q5 67 32.5 117.5t67.5 50.5v17h-334v-17q39 0 67.5 -51t33.5 -117v-518
q0 -113 18.5 -218.5t62.5 -205.5t108.5 -173t164.5 -116t223 -41q84 1 152 27.5t114.5 69t81.5 104.5t55 125.5t32 142t16 144.5t4 141zM674 2064l393 -329l-8 -17l-385 211l-387 -211l-11 17z" />
    <glyph glyph-name="Udieresis" unicode="&#xdc;" horiz-adv-x="1345" 
d="M1194 1257v-530q0 -75 -4 -141t-16 -144.5t-32 -142t-55 -125.5t-81.5 -104.5t-114.5 -69t-152 -27.5q-123 -2 -223 41t-164.5 116t-108.5 173t-62.5 205.5t-18.5 218.5v518q-5 66 -33.5 117t-67.5 51v17h334v-17q-40 0 -67.5 -50.5t-32.5 -117.5v-518q0 -74 4 -139
t16 -142.5t32.5 -139.5t56.5 -122.5t83.5 -100.5t118 -63t156.5 -20q416 14 416 727v530q-3 64 -28 110t-63 46v17h197v-17q-38 0 -62.5 -46t-27.5 -110zM528 1851l82 -84q9 -7 9 -19.5t-9 -21.5l-82 -81q-9 -9 -21 -9t-20 9l-84 81q-7 9 -7 21.5t7 19.5l84 84q7 7 19.5 7
t21.5 -7zM858 1851l82 -84q9 -7 9 -19.5t-9 -21.5l-82 -81q-9 -9 -21 -9t-20 9l-84 81q-7 9 -7 21.5t7 19.5l84 84q7 7 19.5 7t21.5 -7z" />
    <glyph glyph-name="Yacute" unicode="&#xdd;" horiz-adv-x="1499" 
d="M905 14v-14h-334v14q40 0 68 51.5t33 118.5v449l-426 647q-88 133 -185 133v17h334v-17q-21 0 -30 -9.5t-6 -27.5t13 -39t27 -47l273 -413l125 -193l438 592q27 37 41 61.5t16 42t-11 25.5t-42 8v17h199v-17q-29 0 -55 -12t-55 -41t-47.5 -52t-53.5 -69l-422 -569v-486
q5 -66 33 -118t67 -52zM571 1780l314 319l43 -88l-350 -242z" />
    <glyph glyph-name="germandbls" unicode="&#xdf;" horiz-adv-x="1091" 
d="M197 965v-965h-136v965q0 91 15.5 163.5t39 120.5t60 83t70.5 53.5t78.5 29t76 13t70.5 2.5h33q93 -2 166 -22t135 -73q113 -98 106 -241q0 -75 -18.5 -133t-46 -94t-74.5 -64t-87 -42t-101 -30h16q126 0 217 -39q113 -48 166 -141q65 -115 40 -232.5t-130 -199.5
q-76 -60 -175 -89.5t-183 -29.5h-170v14h170q65 0 132.5 31.5t120.5 87.5q84 88 99.5 206t-45.5 224q-47 80 -125 115q-69 35 -162 35q-21 0 -61 -4q-2 0 -2 -2q-65 -15 -127 -43q-60 -28 -109 -70h-2l-8 12l2 2q34 31 95 63t110 46q18 6 52 18q31 10 46 15t41.5 15.5
t40 18.5t35 21.5t32.5 27t26 33t22.5 42t15.5 50.5t11 62t3 74q2 74 -16 141t-51 106q-40 46 -88 59t-119 13q-21 0 -31 2q-44 -1 -76 -7t-72.5 -32t-66 -72t-43.5 -132.5t-18 -206.5z" />
    <glyph glyph-name="agrave" unicode="&#xe0;" horiz-adv-x="1581" 
d="M819 1430h-272v-17q48 0 94 -30.5t68 -60.5l22 -30l-491 -1095q-42 -94 -90 -137.5t-89 -43.5v-16h199v16q-19 0 -27 25.5t2 79.5t41 121l89 192l553 418l276 -647q78 -189 0 -189h-8v-16h334v16q-42 0 -101.5 70.5t-109.5 189.5zM911 866l-534 -401l362 807zM758 453
q-10 11 -26 11t-27 -11l-107 -107q-12 -10 -12 -26.5t12 -28.5l107 -107q11 -10 27 -10t26 10l106 107q12 12 12 28t-12 27zM655 2099l314 -319l-6 -11l-351 242z" />
    <glyph glyph-name="aacute" unicode="&#xe1;" horiz-adv-x="1581" 
d="M547 1430h272l490 -1154q50 -119 109.5 -189.5t101.5 -70.5v-16h-334v16h8q78 0 0 189l-276 647l-553 -418l-89 -192q-31 -67 -41 -121t-2 -79.5t27 -25.5v-16h-199v16q41 0 89 43.5t90 137.5l491 1095q-3 5 -8.5 13t-24.5 29t-39 37t-50.5 29t-61.5 13v17zM377 465
l534 401l-172 406zM758 453l106 -107q12 -11 12 -27t-12 -28l-106 -107q-10 -10 -26 -10t-27 10l-107 107q-12 12 -12 28.5t12 26.5l107 107q11 11 27 11t26 -11zM612 1780l314 319l43 -88l-351 -242z" />
    <glyph glyph-name="acircumflex" unicode="&#xe2;" horiz-adv-x="1581" 
d="M819 1430h-272v-17q48 0 94 -30.5t68 -60.5l22 -30l-491 -1095q-42 -94 -90 -137.5t-89 -43.5v-16h199v16q-19 0 -27 25.5t2 79.5t41 121l89 192l553 418l276 -647q78 -189 0 -189h-8v-16h334v16q-42 0 -101.5 70.5t-109.5 189.5zM911 866l-534 -401l362 807zM758 453
q-10 11 -26 11t-27 -11l-107 -107q-12 -10 -12 -26.5t12 -28.5l107 -107q11 -10 27 -10t26 10l106 107q12 12 12 28t-12 27zM793 2064l393 -329l-8 -17l-385 211l-387 -211l-11 17z" />
    <glyph glyph-name="atilde" unicode="&#xe3;" horiz-adv-x="1581" 
d="M547 1430h272l490 -1154q50 -119 109.5 -189.5t101.5 -70.5v-16h-334v16h8q78 0 0 189l-276 647l-553 -418l-89 -192q-31 -67 -41 -121t-2 -79.5t27 -25.5v-16h-199v16q41 0 89 43.5t90 137.5l491 1095q-3 5 -8.5 13t-24.5 29t-39 37t-50.5 29t-61.5 13v17zM377 465
l534 401l-172 406zM758 453l106 -107q12 -11 12 -27t-12 -28l-106 -107q-10 -10 -26 -10t-27 10l-107 107q-12 12 -12 28.5t12 26.5l107 107q11 11 27 11t26 -11zM700 1839q28 0 56 -14q36 -20 49 -31q19 -14 49 -33q32 -12 51 -12q24 0 45 14q20 17 29 54l14 -5
q-6 -59 -39 -92q-32 -32 -75 -32q-25 0 -56 14q-23 12 -49 31q-22 17 -49 30q-26 15 -53 15q-21 0 -41 -17q-18 -10 -31 -51l-14 4q6 59 39 92q38 33 75 33z" />
    <glyph glyph-name="adieresis" unicode="&#xe4;" horiz-adv-x="1581" 
d="M547 1430h272l490 -1154q50 -119 109.5 -189.5t101.5 -70.5v-16h-334v16h8q78 0 0 189l-276 647l-553 -418l-89 -192q-31 -67 -41 -121t-2 -79.5t27 -25.5v-16h-199v16q41 0 89 43.5t90 137.5l491 1095q-3 5 -8.5 13t-24.5 29t-39 37t-50.5 29t-61.5 13v17zM377 465
l534 401l-172 406zM758 453l106 -107q12 -11 12 -27t-12 -28l-106 -107q-10 -10 -26 -10t-27 10l-107 107q-12 12 -12 28.5t12 26.5l107 107q11 11 27 11t26 -11zM645 1851l82 -84q9 -7 9 -19.5t-9 -21.5l-82 -81q-9 -9 -21 -9t-20 9l-84 81q-8 9 -8 21.5t8 19.5l84 84
q8 7 20 7t21 -7zM975 1851l82 -84q9 -7 9 -19.5t-9 -21.5l-82 -81q-9 -9 -21 -9t-20 9l-84 81q-8 9 -8 21.5t8 19.5l84 84q8 7 20 7t21 -7z" />
    <glyph glyph-name="aring" unicode="&#xe5;" horiz-adv-x="1581" 
d="M819 1430h-272v-17q48 0 94 -30.5t68 -60.5l22 -30l-491 -1095q-42 -94 -90 -137.5t-89 -43.5v-16h199v16q-19 0 -27 25.5t2 79.5t41 121l89 192l553 418l276 -647q78 -189 0 -189h-8v-16h334v16q-42 0 -101.5 70.5t-109.5 189.5zM911 866l-534 -401l362 807zM758 453
q-10 11 -26 11t-27 -11l-107 -107q-12 -10 -12 -26.5t12 -28.5l107 -107q11 -10 27 -10t26 10l106 107q12 12 12 28t-12 27zM791 1905q85 0 149 -56.5t64 -142.5q0 -88 -64 -143.5t-149 -55.5q-87 0 -151.5 55.5t-64.5 143.5q0 86 65 142.5t151 56.5zM791 1520q59 0 96 50.5
t37 135.5q0 84 -37 135t-96 51t-96.5 -51t-37.5 -135q0 -85 37.5 -135.5t96.5 -50.5z" />
    <glyph glyph-name="ae" unicode="&#xe6;" horiz-adv-x="1609" 
d="M1288 995h17v-329h-17v41q-1 21 -5.5 39.5t-16 36.5t-29 26t-48 3t-69.5 -28l-129 -88q-206 -147 -211 -319v-195q5 -64 33.5 -116t67.5 -52h286q147 0 230.5 71t136.5 234l14 -4l-61 -211l-33 -104h-907v14q40 0 67.5 51.5t32.5 116.5v465l-282 -213l-89 -192
q-30 -69 -40 -122.5t-2.5 -79.5t26.5 -26v-14h-199v14q41 0 89 43.5t90 139.5l407 905v143q-5 67 -32.5 117.5t-67.5 50.5v17h907l33 -107l61 -211l-14 -4q-53 163 -136.5 234t-230.5 71h-286q-39 0 -67.5 -51t-33.5 -117v-778q47 135 203 242l164 114q16 13 39.5 34.5
t62.5 67.5t39 70zM377 463l270 203v397z" />
    <glyph glyph-name="ccedilla" unicode="&#xe7;" horiz-adv-x="1439" 
d="M791 8q62 0 126.5 9t120 24t109.5 35t99 41.5t85 43t70.5 41.5t52 35t33.5 24l12 9l10 -10q-6 -6 -37.5 -29t-103.5 -65.5t-154.5 -80t-197.5 -65.5t-225 -28q-311 0 -504 190q-63 63 -110.5 142.5t-71 154t-34 133t-10.5 101.5v6q1 163 59 298t159.5 225t240.5 139
t301 49h2q32 -1 83.5 -5.5t166.5 -28t178 -59.5l15 4l94 -319l-14 -6l-7 20q-29 91 -94.5 166.5t-141.5 119.5t-149.5 67.5t-130.5 23.5h-2q-144 0 -263 -56t-196.5 -152t-120 -221t-42.5 -265v-6q0 -60 14 -139.5t58 -190t112 -190.5q154 -185 408 -185zM852 838l106 -107
q12 -11 12 -27t-12 -28l-106 -107q-10 -11 -26 -11t-27 11l-107 107q-12 12 -12 28t12 27l107 107q11 10 27 10t26 -10zM848 -174q0 -48 -27 -74t-69 -28.5t-83 3.5t-79 19l8 80q18 -9 36 -16t47 -18t53 -15t46.5 -4t35.5 12.5t13 36.5q0 29 -47.5 43t-87.5 14l35 121h23
l-23 -74q119 -12 119 -100z" />
    <glyph glyph-name="egrave" unicode="&#xe8;" horiz-adv-x="1124" 
d="M805 995h14v-329h-14v43q-2 21 -6.5 38.5t-16.5 36.5t-29.5 27t-48 3t-69.5 -28l-127 -88q-91 -63 -150.5 -144.5t-62.5 -174.5v-195q5 -66 33 -117t67 -51h287q148 0 231 70t136 233l14 -4l-62 -211l-30 -104h-910v16q41 0 69.5 51.5t31.5 116.5v1061q-3 65 -31.5 116.5
t-69.5 51.5v17h910l30 -105l62 -211l-14 -4q-53 163 -136 233t-231 70h-287q-39 0 -67 -51t-33 -117v-778q48 138 203 244l164 112q16 13 39.5 34.5t63.5 67.5t40 70zM426 2099l313 -319l-6 -11l-350 242z" />
    <glyph glyph-name="eacute" unicode="&#xe9;" horiz-adv-x="1124" 
d="M805 995h14v-329h-14v43q-2 21 -6.5 38.5t-16.5 36.5t-29.5 27t-48 3t-69.5 -28l-127 -88q-91 -63 -150.5 -144.5t-62.5 -174.5v-195q5 -66 33 -117t67 -51h287q148 0 231 70t136 233l14 -4l-62 -211l-30 -104h-910v16q41 0 69.5 51.5t31.5 116.5v1061q-3 65 -31.5 116.5
t-69.5 51.5v17h910l30 -105l62 -211l-14 -4q-53 163 -136 233t-231 70h-287q-39 0 -67 -51t-33 -117v-778q48 138 203 244l164 112q16 13 39.5 34.5t63.5 67.5t40 70zM383 1780l313 319l43 -88l-350 -242z" />
    <glyph glyph-name="ecircumflex" unicode="&#xea;" horiz-adv-x="1124" 
d="M805 995h14v-329h-14v43q-2 21 -6.5 38.5t-16.5 36.5t-29.5 27t-48 3t-69.5 -28l-127 -88q-91 -63 -150.5 -144.5t-62.5 -174.5v-195q5 -66 33 -117t67 -51h287q148 0 231 70t136 233l14 -4l-62 -211l-30 -104h-910v16q41 0 69.5 51.5t31.5 116.5v1061q-3 65 -31.5 116.5
t-69.5 51.5v17h910l30 -105l62 -211l-14 -4q-53 163 -136 233t-231 70h-287q-39 0 -67 -51t-33 -117v-778q48 138 203 244l164 112q16 13 39.5 34.5t63.5 67.5t40 70zM563 2064l393 -329l-8 -17l-385 211l-387 -211l-10 17z" />
    <glyph glyph-name="edieresis" unicode="&#xeb;" horiz-adv-x="1124" 
d="M805 995h14v-329h-14v43q-2 21 -6.5 38.5t-16.5 36.5t-29.5 27t-48 3t-69.5 -28l-127 -88q-91 -63 -150.5 -144.5t-62.5 -174.5v-195q5 -66 33 -117t67 -51h287q148 0 231 70t136 233l14 -4l-62 -211l-30 -104h-910v16q41 0 69.5 51.5t31.5 116.5v1061q-3 65 -31.5 116.5
t-69.5 51.5v17h910l30 -105l62 -211l-14 -4q-53 163 -136 233t-231 70h-287q-39 0 -67 -51t-33 -117v-778q48 138 203 244l164 112q16 13 39.5 34.5t63.5 67.5t40 70zM418 1851l82 -84q9 -7 9 -19.5t-9 -21.5l-82 -81q-9 -9 -21 -9t-20 9l-84 81q-7 9 -7 21.5t7 19.5l84 84
q7 7 19.5 7t21.5 -7zM748 1851l81 -84q9 -7 9 -19.5t-9 -21.5l-81 -81q-9 -9 -21 -9t-20 9l-84 81q-7 9 -7 21.5t7 19.5l84 84q7 7 19.5 7t21.5 -7z" />
    <glyph glyph-name="igrave" unicode="&#xec;" horiz-adv-x="456" 
d="M61 1430v-17q39 0 67.5 -51.5t31.5 -116.5v-1063q-3 -65 -31.5 -116.5t-67.5 -51.5v-14h334v14q-41 0 -69 51t-31 117v1063q3 66 31 117t69 51v17h-334zM94 2099l314 -319l-7 -11l-350 242z" />
    <glyph glyph-name="iacute" unicode="&#xed;" horiz-adv-x="456" 
d="M61 1413v17h334v-17q-41 0 -69 -51t-31 -117v-1063q3 -66 31 -117t69 -51v-14h-334v14q39 0 67.5 51.5t31.5 116.5v1063q-3 65 -31.5 116.5t-67.5 51.5zM51 1780l314 319l43 -88l-351 -242z" />
    <glyph glyph-name="icircumflex" unicode="&#xee;" horiz-adv-x="456" 
d="M61 1430v-17q39 0 67.5 -51.5t31.5 -116.5v-1063q-3 -65 -31.5 -116.5t-67.5 -51.5v-14h334v14q-41 0 -69 51t-31 117v1063q3 66 31 117t69 51v17h-334zM231 2064l394 -329l-9 -17l-385 211l-387 -211l-10 17z" />
    <glyph glyph-name="idieresis" unicode="&#xef;" horiz-adv-x="456" 
d="M61 1413v17h334v-17q-41 0 -69 -51t-31 -117v-1063q3 -66 31 -117t69 -51v-14h-334v14q39 0 67.5 51.5t31.5 116.5v1063q-3 65 -31.5 116.5t-67.5 51.5zM84 1851l82 -84q9 -7 9 -19.5t-9 -21.5l-82 -81q-9 -9 -21.5 -9t-19.5 9l-84 81q-7 9 -7 21.5t7 19.5l84 84
q7 7 19.5 7t21.5 -7zM414 1851l82 -84q9 -7 9 -19.5t-9 -21.5l-82 -81q-9 -9 -21.5 -9t-19.5 9l-84 81q-7 9 -7 21.5t7 19.5l84 84q7 7 19.5 7t21.5 -7z" />
    <glyph glyph-name="eth" unicode="&#xf0;" horiz-adv-x="1017" 
d="M70 -8v16h18q131 3 259 67t228 179q55 64 100.5 173t72.5 235q-48 -44 -93 -70q-117 -72 -235 -72t-203.5 73t-124.5 189q-31 88 -31 183q0 99 33 184q46 121 149.5 195t260.5 75h4q132 -1 230 -63t148 -160.5t64 -224.5t-10 -252.5t-85.5 -248t-152.5 -206.5
q-131 -124 -299.5 -195.5t-314.5 -76.5h-18zM754 692q24 128 25 249.5t-22.5 224.5t-83.5 168t-151 69h-20q-95 -1 -159.5 -75t-94.5 -191q-21 -96 -21 -174q0 -97 17 -172q25 -103 73.5 -164.5t118.5 -61.5q121 0 228 60q40 20 90 67z" />
    <glyph glyph-name="ntilde" unicode="&#xf1;" horiz-adv-x="1421" 
d="M1204 1257v-1060l156 -197h-172l-950 1206v-1036q3 -64 27 -110t63 -46v-14h-199v14q39 0 64 46.5t28 109.5v1057l-160 203h177v-7l950 -1206v1040q-3 63 -27.5 109.5t-62.5 46.5v17h196v-17q-38 0 -62.5 -46.5t-27.5 -109.5zM621 1839q27 0 55 -14q36 -20 49 -31
q19 -14 49 -33q32 -12 51 -12q24 0 45 14q20 17 29 54l14 -5q-6 -59 -39 -92q-32 -32 -75 -32q-24 0 -56 14q-23 12 -49 31q-22 17 -49 30q-26 15 -53 15q-21 0 -41 -17q-18 -10 -31 -51l-14 4q6 59 39 92q38 33 76 33z" />
    <glyph glyph-name="ograve" unicode="&#xf2;" horiz-adv-x="1503" 
d="M752 -41q149 0 279.5 64t219.5 169t140 242.5t51 282.5t-51 281.5t-140 241.5t-219.5 169t-279.5 64t-279.5 -64t-219.5 -169t-140.5 -241.5t-51.5 -281.5t51.5 -282.5t140.5 -242.5t219.5 -169t279.5 -64zM752 1456q106 0 198.5 -46.5t156.5 -122.5t110 -173t68 -198.5
t22 -198.5q0 -98 -22 -200t-68 -199t-110 -173.5t-156 -123t-199 -46.5h-9q-105 2 -195.5 49t-153.5 123.5t-108.5 173t-67 198t-21.5 198.5q0 96 21.5 197t67 197.5t108.5 172.5t153.5 123t195.5 49h9zM778 838q-10 10 -26 10t-27 -10l-107 -107q-10 -12 -10 -28.5
t10 -26.5l107 -107q11 -11 27 -11t26 11l107 107q12 10 12 26.5t-12 28.5zM616 2099l314 -319l-6 -11l-351 242z" />
    <glyph glyph-name="oacute" unicode="&#xf3;" horiz-adv-x="1503" 
d="M752 -41q-149 0 -279.5 64t-219.5 169t-140.5 242.5t-51.5 282.5t51.5 281.5t140.5 241.5t219.5 169t279.5 64t279.5 -64t219.5 -169t140 -241.5t51 -281.5t-51 -282.5t-140 -242.5t-219.5 -169t-279.5 -64zM752 1456h-9q-105 -2 -195.5 -49t-153.5 -123t-108.5 -172.5
t-67 -197.5t-21.5 -197q0 -97 21.5 -198.5t67 -198t108.5 -173t153.5 -123.5t195.5 -49h9q107 0 199 46.5t156 123t110 173.5t68 199t22 200q0 97 -22 198.5t-68 198.5t-110 173t-156.5 122.5t-198.5 46.5zM778 838l107 -107q12 -12 12 -28.5t-12 -26.5l-107 -107
q-10 -11 -26 -11t-27 11l-107 107q-10 10 -10 26.5t10 28.5l107 107q11 10 27 10t26 -10zM573 1780l314 319l43 -88l-350 -242z" />
    <glyph glyph-name="ocircumflex" unicode="&#xf4;" horiz-adv-x="1503" 
d="M752 -41q149 0 279.5 64t219.5 169t140 242.5t51 282.5t-51 281.5t-140 241.5t-219.5 169t-279.5 64t-279.5 -64t-219.5 -169t-140.5 -241.5t-51.5 -281.5t51.5 -282.5t140.5 -242.5t219.5 -169t279.5 -64zM752 1456q106 0 198.5 -46.5t156.5 -122.5t110 -173t68 -198.5
t22 -198.5q0 -98 -22 -200t-68 -199t-110 -173.5t-156 -123t-199 -46.5h-9q-105 2 -195.5 49t-153.5 123.5t-108.5 173t-67 198t-21.5 198.5q0 96 21.5 197t67 197.5t108.5 172.5t153.5 123t195.5 49h9zM778 838q-10 10 -26 10t-27 -10l-107 -107q-10 -12 -10 -28.5
t10 -26.5l107 -107q11 -11 27 -11t26 11l107 107q12 10 12 26.5t-12 28.5zM754 2064l393 -329l-8 -17l-385 211l-387 -211l-11 17z" />
    <glyph glyph-name="otilde" unicode="&#xf5;" horiz-adv-x="1503" 
d="M752 -41q-149 0 -279.5 64t-219.5 169t-140.5 242.5t-51.5 282.5t51.5 281.5t140.5 241.5t219.5 169t279.5 64t279.5 -64t219.5 -169t140 -241.5t51 -281.5t-51 -282.5t-140 -242.5t-219.5 -169t-279.5 -64zM752 1456h-9q-105 -2 -195.5 -49t-153.5 -123t-108.5 -172.5
t-67 -197.5t-21.5 -197q0 -97 21.5 -198.5t67 -198t108.5 -173t153.5 -123.5t195.5 -49h9q107 0 199 46.5t156 123t110 173.5t68 199t22 200q0 97 -22 198.5t-68 198.5t-110 173t-156.5 122.5t-198.5 46.5zM778 838l107 -107q12 -12 12 -28.5t-12 -26.5l-107 -107
q-10 -11 -26 -11t-27 11l-107 107q-10 10 -10 26.5t10 28.5l107 107q11 10 27 10t26 -10zM662 1839q27 0 55 -14q36 -20 49 -31q19 -14 49 -33q32 -12 51 -12q24 0 45 14q20 17 29 54l14 -5q-6 -59 -39 -92q-32 -32 -75 -32q-24 0 -56 14q-23 12 -49 31q-22 17 -49 30
q-26 15 -53 15q-21 0 -41 -17q-18 -10 -31 -51l-14 4q6 59 39 92q38 33 76 33z" />
    <glyph glyph-name="odieresis" unicode="&#xf6;" horiz-adv-x="1503" 
d="M752 -41q-149 0 -279.5 64t-219.5 169t-140.5 242.5t-51.5 282.5t51.5 281.5t140.5 241.5t219.5 169t279.5 64t279.5 -64t219.5 -169t140 -241.5t51 -281.5t-51 -282.5t-140 -242.5t-219.5 -169t-279.5 -64zM752 1456h-9q-105 -2 -195.5 -49t-153.5 -123t-108.5 -172.5
t-67 -197.5t-21.5 -197q0 -97 21.5 -198.5t67 -198t108.5 -173t153.5 -123.5t195.5 -49h9q107 0 199 46.5t156 123t110 173.5t68 199t22 200q0 97 -22 198.5t-68 198.5t-110 173t-156.5 122.5t-198.5 46.5zM778 838l107 -107q12 -12 12 -28.5t-12 -26.5l-107 -107
q-10 -11 -26 -11t-27 11l-107 107q-10 10 -10 26.5t10 28.5l107 107q11 10 27 10t26 -10zM606 1851l82 -84q9 -7 9 -19.5t-9 -21.5l-82 -81q-9 -9 -21.5 -9t-19.5 9l-84 81q-7 9 -7 21.5t7 19.5l84 84q7 7 19.5 7t21.5 -7zM936 1851l82 -84q9 -7 9 -19.5t-9 -21.5l-82 -81
q-9 -9 -21.5 -9t-19.5 9l-84 81q-7 9 -7 21.5t7 19.5l84 84q7 7 19.5 7t21.5 -7z" />
    <glyph glyph-name="divide" unicode="&#xf7;" horiz-adv-x="759" 
d="M61 735h637v-37h-637v37zM393 1012l60 -58q6 -6 6 -15t-6 -15l-60 -60q-14 -14 -28 0l-60 60q-6 6 -6 15t6 15l60 58q14 14 28 0zM393 549l60 -60q13 -13 0 -30l-60 -58q-14 -14 -28 0l-60 58q-13 17 0 30l60 60q14 14 28 0z" />
    <glyph glyph-name="oslash" unicode="&#xf8;" horiz-adv-x="1503" 
d="M752 -41q-149 0 -279.5 64t-219.5 169t-140.5 242.5t-51.5 282.5t51.5 281.5t140.5 241.5t219.5 169t279.5 64t279.5 -64t219.5 -169t140 -241.5t51 -281.5t-51 -282.5t-140 -242.5t-219.5 -169t-279.5 -64zM752 1456h-9q-105 -2 -195.5 -49t-153.5 -123t-108.5 -172.5
t-67 -197.5t-21.5 -197q0 -97 21.5 -198.5t67 -198t108.5 -173t153.5 -123.5t195.5 -49h9q107 0 199 46.5t156 123t110 173.5t68 199t22 200q0 97 -22 198.5t-68 198.5t-110 173t-156.5 122.5t-198.5 46.5zM778 838l107 -107q12 -12 12 -28.5t-12 -26.5l-107 -107
q-10 -11 -26 -11t-27 11l-107 107q-10 10 -10 26.5t10 28.5l107 107q11 10 27 10t26 -10zM414 0l639 1430h37l-641 -1430h-35z" />
    <glyph glyph-name="ugrave" unicode="&#xf9;" horiz-adv-x="1345" 
d="M1194 727v530q3 64 27.5 110t62.5 46v17h-197v-17q38 0 63 -46t28 -110v-530q0 -713 -416 -727q-86 -3 -156.5 20t-118 63t-83.5 100.5t-56.5 122.5t-32.5 139.5t-16 142.5t-4 139v518q5 67 32.5 117.5t67.5 50.5v17h-334v-17q39 0 67.5 -51t33.5 -117v-518
q0 -113 18.5 -218.5t62.5 -205.5t108.5 -173t164.5 -116t223 -41q84 1 152 27.5t114.5 69t81.5 104.5t55 125.5t32 142t16 144.5t4 141zM537 2099l313 -319l-6 -11l-350 242z" />
    <glyph glyph-name="uacute" unicode="&#xfa;" horiz-adv-x="1345" 
d="M1194 1257v-530q0 -75 -4 -141t-16 -144.5t-32 -142t-55 -125.5t-81.5 -104.5t-114.5 -69t-152 -27.5q-123 -2 -223 41t-164.5 116t-108.5 173t-62.5 205.5t-18.5 218.5v518q-5 66 -33.5 117t-67.5 51v17h334v-17q-40 0 -67.5 -50.5t-32.5 -117.5v-518q0 -74 4 -139
t16 -142.5t32.5 -139.5t56.5 -122.5t83.5 -100.5t118 -63t156.5 -20q416 14 416 727v530q-3 64 -28 110t-63 46v17h197v-17q-38 0 -62.5 -46t-27.5 -110zM494 1780l313 319l43 -88l-350 -242z" />
    <glyph glyph-name="ucircumflex" unicode="&#xfb;" horiz-adv-x="1345" 
d="M1194 727v530q3 64 27.5 110t62.5 46v17h-197v-17q38 0 63 -46t28 -110v-530q0 -713 -416 -727q-86 -3 -156.5 20t-118 63t-83.5 100.5t-56.5 122.5t-32.5 139.5t-16 142.5t-4 139v518q5 67 32.5 117.5t67.5 50.5v17h-334v-17q39 0 67.5 -51t33.5 -117v-518
q0 -113 18.5 -218.5t62.5 -205.5t108.5 -173t164.5 -116t223 -41q84 1 152 27.5t114.5 69t81.5 104.5t55 125.5t32 142t16 144.5t4 141zM674 2064l393 -329l-8 -17l-385 211l-387 -211l-11 17z" />
    <glyph glyph-name="udieresis" unicode="&#xfc;" horiz-adv-x="1345" 
d="M1194 1257v-530q0 -75 -4 -141t-16 -144.5t-32 -142t-55 -125.5t-81.5 -104.5t-114.5 -69t-152 -27.5q-123 -2 -223 41t-164.5 116t-108.5 173t-62.5 205.5t-18.5 218.5v518q-5 66 -33.5 117t-67.5 51v17h334v-17q-40 0 -67.5 -50.5t-32.5 -117.5v-518q0 -74 4 -139
t16 -142.5t32.5 -139.5t56.5 -122.5t83.5 -100.5t118 -63t156.5 -20q416 14 416 727v530q-3 64 -28 110t-63 46v17h197v-17q-38 0 -62.5 -46t-27.5 -110zM528 1851l82 -84q9 -7 9 -19.5t-9 -21.5l-82 -81q-9 -9 -21 -9t-20 9l-84 81q-7 9 -7 21.5t7 19.5l84 84q7 7 19.5 7
t21.5 -7zM858 1851l82 -84q9 -7 9 -19.5t-9 -21.5l-82 -81q-9 -9 -21 -9t-20 9l-84 81q-7 9 -7 21.5t7 19.5l84 84q7 7 19.5 7t21.5 -7z" />
    <glyph glyph-name="yacute" unicode="&#xfd;" horiz-adv-x="1499" 
d="M905 14v-14h-334v14q40 0 68 51.5t33 118.5v449l-426 647q-88 133 -185 133v17h334v-17q-21 0 -30 -9.5t-6 -27.5t13 -39t27 -47l273 -413l125 -193l438 592q27 37 41 61.5t16 42t-11 25.5t-42 8v17h199v-17q-29 0 -55 -12t-55 -41t-47.5 -52t-53.5 -69l-422 -569v-486
q5 -66 33 -118t67 -52zM571 1780l314 319l43 -88l-350 -242z" />
    <glyph glyph-name="thorn" unicode="&#xfe;" horiz-adv-x="159" 
d="M98 1481v-1727h-37v1727h37zM477 1094q0 -54 -9.5 -99.5t-24.5 -78t-41 -59.5t-50.5 -44.5t-62 -33.5t-67 -25.5t-72.5 -20.5h14q121 0 217 -41q113 -48 166 -141q65 -115 40.5 -232.5t-128.5 -199.5q-77 -60 -177 -89.5t-184 -29.5h-571v16q41 0 69 51t31 117v277h-2
l2 2v782q-3 66 -31 117t-69 51v17h573q73 -2 144.5 -26t126.5 -69q109 -91 106 -241zM57 709h-2q-67 -19 -127 -45q-48 -23 -108 -68v-2l-60 -43v-367q5 -66 33.5 -117t67.5 -51h237q65 0 132.5 31t121.5 86q84 89 100.5 207t-44.5 223q-43 77 -125 115q-69 35 -164 35
q-22 0 -62 -4zM-240 571l50 35q0 1 1 2t1 2q37 33 97 64t109 43q20 7 52 18.5t50.5 17.5t46 17.5t43 21.5t37 26t33.5 33t25.5 42t20.5 53.5t11.5 66t4.5 81.5q3 168 -68 249q-61 70 -176 70h-237q-39 0 -67.5 -51t-33.5 -117v-674z" />
    <glyph glyph-name="ydieresis" unicode="&#xff;" horiz-adv-x="1499" 
d="M905 14v-14h-334v14q40 0 68 51.5t33 118.5v449l-426 647q-88 133 -185 133v17h334v-17q-21 0 -30 -9.5t-6 -27.5t13 -39t27 -47l273 -413l125 -193l438 592q27 37 41 61.5t16 42t-11 25.5t-42 8v17h199v-17q-29 0 -55 -12t-55 -41t-47.5 -52t-53.5 -69l-422 -569v-486
q5 -66 33 -118t67 -52zM604 1851l82 -84q9 -7 9 -19.5t-9 -21.5l-82 -81q-9 -9 -21.5 -9t-19.5 9l-84 81q-7 9 -7 21.5t7 19.5l84 84q7 7 19.5 7t21.5 -7zM934 1851l82 -84q9 -7 9 -19.5t-9 -21.5l-82 -81q-9 -9 -21.5 -9t-19.5 9l-84 81q-7 9 -7 21.5t7 19.5l84 84
q7 7 19.5 7t21.5 -7z" />
    <glyph glyph-name="dotlessi" unicode="&#x131;" horiz-adv-x="456" 
d="M61 1413v17h334v-17q-41 0 -69 -51t-31 -117v-1063q3 -66 31 -117t69 -51v-14h-334v14q39 0 67.5 51.5t31.5 116.5v1063q-3 65 -31.5 116.5t-67.5 51.5z" />
    <glyph glyph-name="Lslash" unicode="&#x141;" horiz-adv-x="1124" 
d="M395 14h287q147 0 230 71.5t135 233.5l16 -4l-64 -211l-30 -104h-908v14q39 0 67.5 51.5t31.5 116.5v1063q-3 65 -31.5 116.5t-67.5 51.5v17h334v-17q-41 0 -69 -51t-31 -117v-1063q3 -66 31 -117t69 -51zM244 766h637v-37h-637v37z" />
    <glyph glyph-name="lslash" unicode="&#x142;" horiz-adv-x="1124" 
d="M395 14h287q147 0 230 71.5t135 233.5l16 -4l-64 -211l-30 -104h-908v14q39 0 67.5 51.5t31.5 116.5v1063q-3 65 -31.5 116.5t-67.5 51.5v17h334v-17q-41 0 -69 -51t-31 -117v-1063q3 -66 31 -117t69 -51zM244 766h637v-37h-637v37z" />
    <glyph glyph-name="OE" unicode="&#x152;" horiz-adv-x="2269" 
d="M1950 995h14v-73v-256h-14v41q-2 27 -9.5 49.5t-25 41.5t-52.5 16.5t-83 -30.5l-127 -88q-208 -146 -211 -319v-162v-33q3 -64 31 -116t67 -52h287q148 0 230 71t136 234l15 -4l-62 -211v0l-30 -104h-910v14q41 0 69.5 52t31.5 116v33v59q-94 -142 -238 -225.5
t-317 -83.5v17q106 0 198 46.5t156.5 122.5t110.5 173.5t68 199t22 199.5t-22 199.5t-68 199t-110.5 173.5t-156.5 122.5t-198 46.5v15q173 0 317 -83t238 -225v41v33q-3 65 -31.5 116.5t-69.5 51.5v17h910l30 -107v0l62 -211l-15 -4q-54 163 -136 234t-230 71h-287
q-39 0 -67 -51.5t-31 -116.5v-33v-471v-18v-21v-235q45 135 200 242l164 114q16 13 40 34.5t64 67.5t40 70zM778 844q-10 10 -26.5 10t-28.5 -10l-107 -107q-10 -11 -10 -27t10 -28l107 -107q12 -11 28.5 -11t26.5 11l107 107q11 12 11 28t-11 27zM752 1464v15
q-149 0 -279.5 -63.5t-219.5 -168.5t-140.5 -242t-51.5 -282t51.5 -282.5t140.5 -242.5t219.5 -169t279.5 -64v17h-9q-105 2 -196 49.5t-154 123.5t-108.5 172.5t-66.5 197.5t-21 198t21 197.5t66.5 197t108.5 173t154 124t196 49.5h9z" />
    <glyph glyph-name="oe" unicode="&#x153;" horiz-adv-x="2269" 
d="M1950 995h14v-73v-256h-14v41q-2 27 -9.5 49.5t-25 41.5t-52.5 16.5t-83 -30.5l-127 -88q-208 -146 -211 -319v-162v-33q3 -64 31 -116t67 -52h287q148 0 230 71t136 234l15 -4l-62 -211v0l-30 -104h-910v14q41 0 69.5 52t31.5 116v33v59q-94 -142 -238 -225.5
t-317 -83.5v17q106 0 198 46.5t156.5 122.5t110.5 173.5t68 199t22 199.5t-22 199.5t-68 199t-110.5 173.5t-156.5 122.5t-198 46.5v15q173 0 317 -83t238 -225v41v33q-3 65 -31.5 116.5t-69.5 51.5v17h910l30 -107v0l62 -211l-15 -4q-54 163 -136 234t-230 71h-287
q-39 0 -67 -51.5t-31 -116.5v-33v-471v-18v-21v-235q45 135 200 242l164 114q16 13 40 34.5t64 67.5t40 70zM778 844q-10 10 -26.5 10t-28.5 -10l-107 -107q-10 -11 -10 -27t10 -28l107 -107q12 -11 28.5 -11t26.5 11l107 107q11 12 11 28t-11 27zM752 1464v15
q-149 0 -279.5 -63.5t-219.5 -168.5t-140.5 -242t-51.5 -282t51.5 -282.5t140.5 -242.5t219.5 -169t279.5 -64v17h-9q-105 2 -196 49.5t-154 123.5t-108.5 172.5t-66.5 197.5t-21 198t21 197.5t66.5 197t108.5 173t154 124t196 49.5h9z" />
    <glyph glyph-name="Scaron" unicode="&#x160;" horiz-adv-x="1062" 
d="M885 1284v146h16v-459h-16q0 212 -109 340q-58 67 -137 99t-160 32q-102 0 -182.5 -51.5t-106.5 -134t17 -185.5q29 -62 92.5 -114.5t138.5 -90t159 -76t159 -83t134 -99.5t88.5 -136.5t18.5 -184.5q-8 -81 -50.5 -142.5t-106.5 -96t-137 -51.5t-152 -17q-107 0 -199 32
q-44 11 -135 77q-72 52 -94 54t-27 -28q-2 -9 -2 -23v-92h-16v459h16q0 -220 117 -340q123 -123 340 -123q115 0 201 82t86 196q0 79 -26.5 140t-71.5 101t-103.5 72t-123 58t-128.5 53t-122.5 63t-103.5 82t-71.5 116t-26.5 159q0 79 38 145.5t99 108t134 64t147 22.5
q136 0 244 -78q16 -11 34 -25t31.5 -25t27.5 -22.5t24.5 -18.5t19.5 -11t15.5 -2.5t9.5 8.5zM918 2056l10 -16l-398 -330l-395 330l8 16l387 -211z" />
    <glyph glyph-name="scaron" unicode="&#x161;" horiz-adv-x="1062" 
d="M885 1284v146h16v-459h-16q0 212 -109 340q-58 67 -137 99t-160 32q-102 0 -182.5 -51.5t-106.5 -134t17 -185.5q29 -62 92.5 -114.5t138.5 -90t159 -76t159 -83t134 -99.5t88.5 -136.5t18.5 -184.5q-8 -81 -50.5 -142.5t-106.5 -96t-137 -51.5t-152 -17q-107 0 -199 32
q-44 11 -135 77q-72 52 -94 54t-27 -28q-2 -9 -2 -23v-92h-16v459h16q0 -220 117 -340q123 -123 340 -123q115 0 201 82t86 196q0 79 -26.5 140t-71.5 101t-103.5 72t-123 58t-128.5 53t-122.5 63t-103.5 82t-71.5 116t-26.5 159q0 79 38 145.5t99 108t134 64t147 22.5
q136 0 244 -78q16 -11 34 -25t31.5 -25t27.5 -22.5t24.5 -18.5t19.5 -11t15.5 -2.5t9.5 8.5zM918 2056l10 -16l-398 -330l-395 330l8 16l387 -211z" />
    <glyph glyph-name="Ydieresis" unicode="&#x178;" horiz-adv-x="1499" 
d="M905 14v-14h-334v14q40 0 68 51.5t33 118.5v449l-426 647q-88 133 -185 133v17h334v-17q-21 0 -30 -9.5t-6 -27.5t13 -39t27 -47l273 -413l125 -193l438 592q27 37 41 61.5t16 42t-11 25.5t-42 8v17h199v-17q-29 0 -55 -12t-55 -41t-47.5 -52t-53.5 -69l-422 -569v-486
q5 -66 33 -118t67 -52zM604 1851l82 -84q9 -7 9 -19.5t-9 -21.5l-82 -81q-9 -9 -21.5 -9t-19.5 9l-84 81q-7 9 -7 21.5t7 19.5l84 84q7 7 19.5 7t21.5 -7zM934 1851l82 -84q9 -7 9 -19.5t-9 -21.5l-82 -81q-9 -9 -21.5 -9t-19.5 9l-84 81q-7 9 -7 21.5t7 19.5l84 84
q7 7 19.5 7t21.5 -7z" />
    <glyph glyph-name="Zcaron" unicode="&#x17d;" horiz-adv-x="1290" 
d="M795 14h-559l993 1416h-987l-31 -105l-61 -211l14 -4q54 162 136 232.5t230 70.5h523l-992 -1413h1022l31 104l62 211l-15 4q-52 -163 -135 -234t-231 -71zM1030 2056l10 -16l-397 -330l-395 330l8 16l387 -211z" />
    <glyph glyph-name="zcaron" unicode="&#x17e;" horiz-adv-x="1290" 
d="M795 14h-559l993 1416h-987l-31 -105l-61 -211l14 -4q54 162 136 232.5t230 70.5h523l-992 -1413h1022l31 104l62 211l-15 4q-52 -163 -135 -234t-231 -71zM1030 2056l10 -16l-397 -330l-395 330l8 16l387 -211z" />
    <glyph glyph-name="florin" unicode="&#x192;" horiz-adv-x="1124" 
d="M805 995h14v-329h-14v43q-1 21 -5.5 39t-16.5 36.5t-30 26.5t-48.5 3t-69.5 -28l-127 -88q-208 -146 -211 -319v-195q3 -65 31 -116.5t67 -51.5v-16h-334v16q41 0 69.5 51.5t31.5 116.5v1061q-3 65 -31.5 116.5t-69.5 51.5v17h910l30 -105l62 -211l-14 -4
q-53 163 -136 233t-231 70h-287q-39 0 -67 -51.5t-31 -116.5v-778q45 137 201 244l164 112q16 13 39.5 34.5t63.5 67.5t40 70z" />
    <glyph glyph-name="circumflex" unicode="&#x2c6;" horiz-adv-x="913" 
d="M459 1655l393 -330l-8 -16l-385 211l-387 -211l-11 16z" />
    <glyph glyph-name="caron" unicode="&#x2c7;" horiz-adv-x="915" 
d="M844 1647l10 -17l-397 -330l-396 330l9 17l387 -211z" />
    <glyph glyph-name="breve" unicode="&#x2d8;" horiz-adv-x="745" 
d="M375 1229q-125 0 -219.5 79.5t-94.5 202.5h121q0 -119 53.5 -190.5t139.5 -71.5t139 71.5t53 190.5h117q0 -123 -92 -202.5t-217 -79.5z" />
    <glyph glyph-name="dotaccent" unicode="&#x2d9;" horiz-adv-x="348" 
d="M195 1454l81 -84q9 -8 9 -20t-9 -21l-81 -82q-9 -9 -21.5 -9t-19.5 9l-84 82q-8 9 -8 21t8 20l84 84q8 8 20 8t21 -8z" />
    <glyph glyph-name="ring" unicode="&#x2da;" horiz-adv-x="550" 
d="M276 1495q85 0 149 -56.5t64 -142.5q0 -87 -63.5 -142.5t-149.5 -55.5q-87 0 -151 55t-64 143q0 87 64.5 143t150.5 56zM276 1110q59 0 96.5 50.5t37.5 135.5q0 84 -37.5 135.5t-96.5 51.5t-96 -51.5t-37 -135.5q0 -85 37 -135.5t96 -50.5z" />
    <glyph glyph-name="ogonek" unicode="&#x2db;" horiz-adv-x="356" 
d="M158 0h20q-45 -28 -73 -98t6 -113q6 -6 14.5 -9t17.5 -4t20.5 0.5t21 4t22.5 7t21.5 8t21 9.5t18 9t16 8t11.5 6v-84q-34 -17 -67 -25.5t-69.5 -3.5t-60.5 29q-40 39 -36 88.5t30.5 93t65.5 74.5z" />
    <glyph glyph-name="tilde" unicode="&#x2dc;" horiz-adv-x="530" 
d="M176 1430q25 0 55 -15q39 -22 50 -31q11 -8 49 -32q35 -13 51 -13q23 0 45 15q20 17 29 53l14 -4q-6 -59 -39 -92t-76 -33q-24 0 -55 14q-23 11 -49 31q-26 19 -49 31q-24 14 -54 14q-22 0 -41 -16q-16 -9 -30 -52l-15 5q6 59 39 92q38 33 76 33z" />
    <glyph glyph-name="hungarumlaut" unicode="&#x2dd;" horiz-adv-x="780" 
d="M61 1370l314 320l43 -88l-350 -242zM362 1370l314 320l43 -88l-350 -242z" />
    <glyph glyph-name="endash" unicode="&#x2013;" horiz-adv-x="759" 
d="M61 766h637v-37h-637v37z" />
    <glyph glyph-name="emdash" unicode="&#x2014;" horiz-adv-x="587" 
d="M61 766h465v-37h-465v37z" />
    <glyph glyph-name="quoteleft" unicode="&#x2018;" horiz-adv-x="346" 
d="M152 1245l-82 80q-8 9 -8 21.5t8 21.5l71 70q17 92 109 92v-23q-51 0 -51 -63l75 -76q9 -9 9 -21.5t-9 -21.5l-79 -80q-9 -9 -21.5 -9t-21.5 9z" />
    <glyph glyph-name="quoteright" unicode="&#x2019;" horiz-adv-x="346" 
d="M195 1444l81 -80q8 -9 8 -21.5t-8 -21.5l-71 -70q-17 -92 -109 -92v23q51 0 51 63l-75 76q-9 9 -9 21.5t9 21.5l80 80q9 9 21.5 9t21.5 -9z" />
    <glyph glyph-name="quotesinglbase" unicode="&#x201a;" horiz-adv-x="346" 
d="M195 215l81 -80q8 -9 8 -21.5t-8 -21.5l-71 -69q-7 -39 -33 -66t-76 -27v23q51 0 51 63l-75 76q-9 9 -9 21.5t9 21.5l80 80q9 9 21.5 9t21.5 -9z" />
    <glyph glyph-name="quotedblleft" unicode="&#x201c;" horiz-adv-x="612" 
d="M418 1245l-82 80q-8 9 -8 21.5t8 21.5l72 70q17 92 108 92v-23q-51 0 -51 -63l76 -76q9 -9 9 -21.5t-9 -21.5l-80 -80q-9 -9 -21.5 -9t-21.5 9zM152 1245l-82 80q-8 9 -8 21.5t8 21.5l71 70q17 92 109 92v-23q-51 0 -51 -63l75 -76q9 -9 9 -21.5t-9 -21.5l-79 -80
q-9 -9 -21.5 -9t-21.5 9z" />
    <glyph glyph-name="quotedblright" unicode="&#x201d;" horiz-adv-x="612" 
d="M195 1444l81 -80q8 -9 8 -21.5t-8 -21.5l-71 -70q-17 -92 -109 -92v23q51 0 51 63l-75 76q-9 9 -9 21.5t9 21.5l80 80q9 9 21.5 9t21.5 -9zM461 1444l82 -80q7 -9 7 -21.5t-7 -21.5l-72 -70q-17 -92 -109 -92v23q52 0 52 63l-76 76q-9 9 -9 21.5t9 21.5l80 80q9 9 21.5 9
t21.5 -9z" />
    <glyph glyph-name="quotedblbase" unicode="&#x201e;" horiz-adv-x="612" 
d="M195 215l81 -80q8 -9 8 -21.5t-8 -21.5l-71 -69q-7 -39 -33 -66t-76 -27v23q51 0 51 63l-75 76q-9 9 -9 21.5t9 21.5l80 80q9 9 21.5 9t21.5 -9zM461 215l82 -80q7 -9 7 -21.5t-7 -21.5l-72 -69q-7 -39 -33 -66t-76 -27v23q52 0 52 63l-76 76q-9 9 -9 21.5t9 21.5l80 80
q9 9 21.5 9t21.5 -9z" />
    <glyph glyph-name="dagger" unicode="&#x2020;" horiz-adv-x="757" 
d="M406 1481v-1727h-37v1727h37zM61 735h635v-37h-635v37z" />
    <glyph glyph-name="daggerdbl" unicode="&#x2021;" horiz-adv-x="759" 
d="M408 1481v-1727h-37v1727h37zM61 1126h637v-36h-637v36zM61 336h637v-37h-637v37z" />
    <glyph glyph-name="bullet" unicode="&#x2022;" horiz-adv-x="415" 
d="M207 807q61 0 104 -41t43 -100q0 -60 -42.5 -101t-104.5 -41q-60 0 -103 41t-43 101q0 58 43 99.5t103 41.5z" />
    <glyph glyph-name="ellipsis" unicode="&#x2026;" horiz-adv-x="1224" 
d="M195 217l81 -84q9 -7 9 -19.5t-9 -21.5l-81 -82q-9 -9 -21 -9t-20 9l-84 82q-8 9 -8 21.5t8 19.5l84 84q8 7 20 7t21 -7zM606 217l82 -84q9 -7 9 -19.5t-9 -21.5l-82 -82q-9 -9 -21.5 -9t-19.5 9l-84 82q-7 9 -7 21.5t7 19.5l84 84q7 7 19.5 7t21.5 -7zM1071 217l82 -84
q9 -8 9 -20t-9 -21l-82 -82q-9 -9 -21 -9t-20 9l-84 82q-8 9 -8 21.5t8 19.5l84 84q8 7 20 7t21 -7z" />
    <glyph glyph-name="perthousand" unicode="&#x2030;" horiz-adv-x="2408" 
d="M408 1438q98 0 178 -54t123 -140t43 -183q0 -151 -98 -265t-246 -114q-149 0 -248 114t-99 265q0 150 99 263.5t248 113.5zM1253 752q148 0 246 -114t98 -265t-98 -264t-246 -113t-247 113t-99 264t99 265t247 114zM1249 2h4q66 0 120.5 35t87.5 90.5t51 119.5t18 126
t-18 125.5t-51 119t-87.5 90.5t-120.5 35h-4q-86 -2 -150.5 -62t-94 -142t-29.5 -166q0 -61 17.5 -124.5t50.5 -118.5t87 -91t119 -37zM408 1430h-5q-65 -1 -119 -36t-87 -90t-50.5 -118.5t-17.5 -124.5q0 -85 29.5 -167t94 -142.5t150.5 -61.5h5q86 0 151 60.5t95 143
t30 167.5q0 84 -30 166t-95 142.5t-151 60.5zM436 0l639 1430h148l-641 -1430h-146zM1268 434l53 -53q11 -15 0 -29l-53 -53q-14 -11 -29 0l-53 53q-11 14 0 29l53 53q15 11 29 0zM420 1120l53 -53q6 -6 6 -14.5t-6 -12.5l-53 -53q-4 -6 -12.5 -6t-14.5 6l-53 53
q-6 4 -6 12.5t6 14.5l53 53q6 6 14.5 6t12.5 -6zM2003 752q148 0 246 -114t98 -265t-98 -264t-246 -113t-247 113t-99 264t99 265t247 114zM1999 2h4q87 0 152 60.5t94.5 143t29.5 167.5q0 62 -18 125.5t-50.5 119t-87 90.5t-120.5 35h-4q-65 -1 -119 -36.5t-87 -90.5
t-51 -118t-18 -125q0 -61 18 -124.5t51 -118.5t87 -91t119 -37zM2017 434l54 -53q11 -15 0 -29l-54 -53q-14 -11 -28 0l-54 53q-11 14 0 29l54 53q14 10 28 0z" />
    <glyph glyph-name="guilsinglleft" unicode="&#x2039;" horiz-adv-x="524" 
d="M463 1028l-242 -338l242 -340l-21 -6l-381 346l381 344z" />
    <glyph glyph-name="guilsinglright" unicode="&#x203a;" horiz-adv-x="524" 
d="M301 690l-240 338l19 6l383 -344l-383 -346l-19 6z" />
    <glyph glyph-name="fraction" unicode="&#x2044;" horiz-adv-x="798" 
d="M61 0l639 1430h37l-641 -1430h-35z" />
    <glyph glyph-name="Euro" unicode="&#x20ac;" horiz-adv-x="1765" 
d="M61 766v14h199q17 197 120 343.5t267.5 222t368.5 75.5h2q32 -1 84 -5.5t167 -27.5t177 -59l16 4l94 -321l-16 -4l-4 20q-29 91 -94.5 166.5t-142.5 119.5t-150.5 67.5t-130.5 23.5l-2 -2q-135 0 -248 -49.5t-190.5 -135t-124 -197.5t-56.5 -241h316v-14h-318
q0 -9 -1 -28t-1 -29h2v-33h318v-17h-316q7 -109 51 -240.5t130 -234.5q156 -184 409 -184q108 0 221 27t196.5 65.5t151 77t102.5 65.5l36 27l10 -12q-13 -11 -37.5 -29t-101.5 -63.5t-156.5 -81t-195.5 -64t-226 -28.5q-316 0 -506 190q-105 105 -158.5 239t-62.5 246h-199
v17h197v35q0 37 2 55h-199zM1049 829l106 -106q11 -12 11 -27.5t-11 -27.5l-106 -107q-12 -11 -28.5 -11t-27.5 11l-106 107q-11 12 -11 27.5t11 27.5l106 106q11 11 27.5 11t28.5 -11z" />
    <glyph glyph-name="trademark" unicode="&#x2122;" horiz-adv-x="1740" 
d="M324 1421h-91q-117 0 -159 -125l-2 -12l-11 2q32 106 43 146h629q17 -49 45 -146l-8 -2l-4 12q-42 125 -158 125h-92q-24 0 -39.5 -29t-17.5 -67v-608q2 -38 17.5 -67t39.5 -29v-9h-192v9q24 0 39.5 29t17.5 67v608q-2 38 -17.5 67t-39.5 29zM821 1434h86l334 -723
l291 698q-6 16 -25 16v9h172v-9q-23 0 -39 -30t-18 -68v-610q2 -38 17.5 -67t39.5 -29v-9h-192v9q24 0 39.5 29t17.5 67v600q0 60 -6 80l-293 -697l41 -88h-76l-2 -2l-4 2h-2h-2v2l-356 772v-677q3 -36 17 -62t36 -26v-9h-115v9q22 0 37 27t17 61v698z" />
    <glyph glyph-name="minus" unicode="&#x2212;" horiz-adv-x="757" 
d="M61 766h635v-37h-635v37z" />
    <glyph glyph-name="fi" unicode="&#xfb01;" horiz-adv-x="1581" 
d="M805 995h14v-329h-14v43q-1 21 -5.5 39t-16.5 36.5t-30 26.5t-48.5 3t-69.5 -28l-127 -88q-208 -146 -211 -319v-195q3 -65 31 -116.5t67 -51.5v-16h-334v16q41 0 69.5 51.5t31.5 116.5v1061q-3 65 -31.5 116.5t-69.5 51.5v17h910l30 -105l62 -211l-14 -4
q-53 163 -136 233t-231 70h-287q-39 0 -67 -51.5t-31 -116.5v-778q45 137 201 244l164 112q16 13 39.5 34.5t63.5 67.5t40 70zM1186 1430v-17q39 0 67 -51.5t31 -116.5v-1063q-3 -65 -31 -116.5t-67 -51.5v-14h334v14q-41 0 -69.5 51.5t-31.5 116.5v1063q3 65 31.5 116.5
t69.5 51.5v17h-334z" />
    <glyph glyph-name="fl" unicode="&#xfb02;" horiz-adv-x="2248" 
d="M805 995h14v-329h-14v43q-1 21 -5.5 39t-16.5 36.5t-30 26.5t-48.5 3t-69.5 -28l-127 -88q-208 -146 -211 -319v-195q3 -65 31 -116.5t67 -51.5v-16h-334v16q41 0 69.5 51.5t31.5 116.5v1061q-3 65 -31.5 116.5t-69.5 51.5v17h910l30 -105l62 -211l-14 -4
q-53 163 -136 233t-231 70h-287q-39 0 -67 -51.5t-31 -116.5v-778q45 137 201 244l164 112q16 13 39.5 34.5t63.5 67.5t40 70zM1806 14h-286q-41 0 -69.5 51.5t-31.5 116.5v1063q3 65 31.5 116.5t69.5 51.5v17h-334v-17q39 0 67 -51.5t31 -116.5v-1063q-3 -65 -31 -116.5
t-67 -51.5v-14h907l31 104l63 211l-16 4q-52 -162 -135 -233.5t-230 -71.5z" />
    <glyph glyph-name="_0127" 
 />
    <glyph glyph-name="_0129" 
 />
    <glyph glyph-name="_0141" 
 />
    <glyph glyph-name="_0142" 
 />
    <glyph glyph-name="_0143" 
 />
    <glyph glyph-name="_0144" 
 />
    <glyph glyph-name="_0157" 
 />
    <glyph glyph-name="_0158" 
 />
    <glyph glyph-name="_0023" 
 />
    <glyph glyph-name="_0022" 
 />
    <glyph glyph-name="_0024" 
 />
    <glyph glyph-name="_0014" 
 />
    <glyph glyph-name="_0015" 
 />
    <glyph glyph-name="_0016" 
 />
    <glyph glyph-name="_0017" 
 />
    <glyph glyph-name="_0018" 
 />
    <glyph glyph-name="_0019" 
 />
    <glyph glyph-name="_0020" 
 />
    <glyph glyph-name="_0021" 
 />
    <glyph glyph-name="_0009" 
 />
    <glyph glyph-name="_0007" 
 />
    <glyph glyph-name="_0004" 
 />
    <glyph glyph-name="_0003" 
 />
    <glyph glyph-name="_0002" 
 />
    <glyph glyph-name="_0001" 
 />
    <glyph glyph-name="_0000" 
 />
    </font>
</defs>
</svg>
